<?xml version="1.0" encoding="UTF-8" standalone="no"?>
<svg
   xmlns:dc="http://purl.org/dc/elements/1.1/"
   xmlns:cc="http://creativecommons.org/ns#"
   xmlns:rdf="http://www.w3.org/1999/02/22-rdf-syntax-ns#"
   xmlns:svg="http://www.w3.org/2000/svg"
   xmlns="http://www.w3.org/2000/svg"
   xmlns:sodipodi="http://sodipodi.sourceforge.net/DTD/sodipodi-0.dtd"
   xmlns:inkscape="http://www.inkscape.org/namespaces/inkscape"
   width="3671.7974"
   height="892.94879"
   viewBox="0 0 2937.4379 714.35904"
   version="1.1"
   id="svg2"
   inkscape:version="0.48.3.1 r9886"
   sodipodi:docname="rsslogo-wbg.png">
  <metadata
     id="metadata74">
    <rdf:RDF>
      <cc:Work
         rdf:about="">
        <dc:format>image/svg+xml</dc:format>
        <dc:type
           rdf:resource="http://purl.org/dc/dcmitype/StillImage" />
        <dc:title></dc:title>
      </cc:Work>
    </rdf:RDF>
  </metadata>
  <defs
     id="defs72" />
  <sodipodi:namedview
     pagecolor="#ffffff"
     bordercolor="#666666"
     borderopacity="1"
     objecttolerance="10"
     gridtolerance="10"
     guidetolerance="10"
     inkscape:pageopacity="0"
     inkscape:pageshadow="2"
     inkscape:window-width="2495"
     inkscape:window-height="1576"
     id="namedview70"
     showgrid="false"
     fit-margin-top="0"
     fit-margin-left="0"
     fit-margin-right="0"
     fit-margin-bottom="0"
     inkscape:zoom="0.81143145"
     inkscape:cx="1278.9787"
     inkscape:cy="234.20246"
     inkscape:window-x="65"
     inkscape:window-y="24"
     inkscape:window-maximized="1"
     inkscape:current-layer="svg2" />
  <rect
     style="fill:#ffffff;fill-opacity:1;stroke:#6b0000;stroke-width:0.71025455;stroke-opacity:1"
     id="rect3117"
     width="2936.6902"
     height="638.40076"
     x="23.04985"
     y="17.134403" />
  <path
     d="m 915.34789,37.158633 1720.43551,0 0,526.508487 -1720.43551,0 0,-526.508487 z"
     id="path4"
     inkscape:connector-curvature="0"
     style="fill:#FFFFFF" />
  <path
     d="m 1248.7525,57.409692 c 19.6893,-0.428443 40.0642,2.027962 57.7065,11.329929 14.4718,7.473945 26.0493,20.089203 32.7616,34.894289 7.6072,16.37603 10.0541,34.60865 10.5777,52.49851 -0.01,28.89608 0,57.80168 0,86.69776 -0.1618,20.83184 1.114,41.95883 -3.6941,62.42887 -3.7893,16.78543 -11.5489,33.17098 -24.5545,44.77702 -15.2716,14.14813 -36.3129,20.10824 -56.6782,21.56495 -21.584,1.23772 -44.1392,-0.35228 -63.7714,-10.16837 -14.8336,-7.19784 -26.849,-19.73693 -33.8279,-34.6277 -9.1972,-18.95621 -11.0728,-40.39738 -11.2157,-61.17209 0.01,-33.32333 0,-66.63713 0,-99.96045 0,-20.0416 1.5424,-40.60685 9.4448,-59.26791 6.0744,-14.586098 16.5665,-27.4489 30.2195,-35.532186 15.8905,-9.597117 34.7039,-13.005617 53.0317,-13.462622 z"
     id="path6"
     inkscape:connector-curvature="0"
     style="fill:#edac00" />
  <path
     d="m 1728.7035,57.428734 c 18.9563,-0.466527 38.5028,1.770896 55.7452,10.13029 12.7866,6.141012 23.7357,16.05232 30.9336,28.29626 10.3016,17.242446 13.9101,37.607756 14.5385,57.439896 0.057,40.63541 0.038,81.28034 0.01,121.91575 -0.4761,18.75627 -3.6275,37.92194 -12.4915,54.65977 -6.5314,12.52005 -16.7093,23.07878 -29.0865,29.9053 -16.7188,9.26388 -36.1701,12.30107 -55.0787,12.16777 -19.5941,0.10473 -39.8452,-3.12287 -56.9162,-13.23412 -11.8155,-6.92173 -21.3936,-17.37573 -27.6203,-29.5435 -8.3118,-16.01424 -11.3585,-34.18973 -12.1202,-52.06055 -0.3046,-29.52446 -0.067,-59.04893 -0.1428,-88.56387 0.2666,-19.03238 -1.0092,-38.21709 2.2374,-57.06857 2.6564,-15.96663 8.3023,-31.819017 18.6516,-44.462837 10.4064,-12.996096 25.5828,-21.56495 41.5875,-25.620874 9.7018,-2.589699 19.7369,-3.675087 29.7529,-3.960715 z"
     id="path8"
     inkscape:connector-curvature="0"
     style="fill:#edac00" />
  <path
     d="m 2253.0603,63.741123 c 14.3195,-5.103229 29.6768,-6.52185 44.7865,-6.388557 19.299,0.39988 39.2264,3.855984 55.7738,14.338549 12.9199,7.978556 22.7931,20.35579 28.6866,34.284945 7.3978,17.21388 9.4638,36.17961 9.4924,54.75498 -19.5561,0.0381 -39.1026,0.01 -58.6586,0.01 0.038,-10.73011 0.3618,-21.83154 -3.5418,-32.02847 -2.7135,-7.31209 -8.3784,-13.65304 -15.7381,-16.47125 -8.2547,-3.30376 -17.4043,-3.43706 -26.1445,-2.75155 -8.9402,0.78072 -18.2327,4.43676 -23.4597,12.07256 -6.4552,9.23532 -7.1883,20.91753 -7.5406,31.8095 -0.028,40.29265 0.01,80.58531 -0.019,120.87797 0.2951,10.57777 0.6379,21.74584 6.0648,31.17158 3.4657,6.38856 9.7685,10.93005 16.7188,12.8628 8.7593,2.40881 18.0517,2.44689 26.9824,0.99018 7.0836,-1.25676 14.0624,-4.58909 18.5182,-10.40639 6.1696,-7.90239 7.6739,-18.24214 8.1024,-27.97255 0.1428,-8.09281 -0.019,-16.19514 0.076,-24.28794 19.5275,-0.01 39.0645,0.01 58.592,-0.01 0.3332,20.85087 -0.1714,42.26349 -7.5597,62.0385 -5.2746,14.49088 -14.3861,27.8583 -27.1537,36.73182 -17.6423,12.55813 -39.8642,16.61406 -61.1436,16.57597 -20.5462,0.20947 -41.9302,-3.17999 -59.5535,-14.33855 -13.1103,-8.14041 -23.0597,-20.78423 -28.9151,-34.97996 -7.5882,-18.2707 -9.5114,-38.34086 -9.1592,-57.95402 0,-29.81961 0,-59.63922 0,-89.45884 0.1714,-10.49208 -0.4951,-21.02225 0.7046,-31.47626 1.5043,-19.04189 6.5504,-38.44559 18.0422,-54.012347 8.8545,-12.215378 21.841,-21.126986 36.0463,-25.98267 z"
     id="path10"
     inkscape:connector-curvature="0"
     style="fill:#edac00" />
  <path
     d="m 2504.3372,58.752146 c 20.3367,-2.722992 41.6732,-1.875627 60.8674,5.931551 15.8238,6.331431 29.6006,17.55663 39.0454,31.742844 7.2074,10.634909 11.9869,22.736029 15.0431,35.170389 -12.6152,3.69413 -25.2495,7.32161 -37.8648,11.00622 -5.0271,1.32341 -9.9113,3.17048 -15.0336,4.07497 -3.1895,-9.69233 -7.3597,-19.2704 -13.7673,-27.30608 -5.3793,-6.86461 -13.3007,-11.77742 -21.9648,-13.08179 -6.5599,-0.7712 -13.4055,-0.76167 -19.7084,1.41862 -7.731,2.51353 -14.11,8.69263 -16.8806,16.32843 -2.1327,5.97916 -3.1514,12.46292 -2.3136,18.78483 1.4567,8.75928 7.712,15.7667 14.5575,20.97465 12.2821,9.53047 26.4302,16.16658 39.969,23.65004 16.7378,9.03538 33.409,18.71819 47.3096,31.8571 13.3198,12.41532 23.3644,28.6771 26.811,46.69073 3.2561,17.46142 2.1708,35.93206 -4.0845,52.63181 -6.0173,16.38555 -18.0041,30.39087 -33.0567,39.16918 -17.947,10.62538 -39.1883,14.39568 -59.8202,14.13861 -19.794,0.0857 -39.9023,-5.18891 -56.1545,-16.7283 -19.1752,-13.45311 -31.6381,-34.46584 -39.0359,-56.32594 -1.333,-4.37964 -3.1991,-8.67358 -3.5323,-13.28172 19.2038,-3.65605 38.2742,-8.04521 57.4113,-12.07257 3.0277,16.24274 9.8066,33.11386 23.7453,42.96805 13.8625,10.24454 35.018,9.36861 47.4905,-2.71347 12.1868,-12.26299 13.653,-33.46614 3.5037,-47.42385 -8.4165,-11.70125 -20.9271,-19.47986 -33.1615,-26.63962 -19.2704,-11.0919 -39.5976,-20.60333 -57.2685,-34.25637 -12.4915,-9.5876 -23.5453,-21.82202 -29.077,-36.77943 -5.8363,-15.21448 -5.3412,-32.03799 -2.4183,-47.83325 2.9325,-14.67178 9.4924,-28.924648 20.3082,-39.445296 12.9485,-13.205557 31.0573,-20.041598 49.0805,-22.650338 z"
     id="path12"
     inkscape:connector-curvature="0"
     style="fill:#edac00" />
  <path
     d="m 925.4877,61.617951 c 29.93386,-0.0095 59.86773,0.0095 89.8016,-0.0095 22.4599,0.685509 45.7958,4.636703 64.7901,17.375733 15.4334,10.130289 26.2111,26.477766 30.6384,44.291456 3.7798,13.50071 3.6846,27.63932 3.1419,41.53038 -1.2853,16.34747 -5.903,33.01866 -16.4141,45.92906 -7.5597,9.49239 -18.0994,16.23322 -29.3626,20.54621 19.1752,45.5387 38.5979,90.96315 57.6208,136.55898 -20.9557,0 -41.9113,0.0571 -62.8669,-0.0286 -16.8711,-41.56846 -33.9136,-83.0798 -50.8704,-124.6197 -9.2829,0.019 -18.56589,0 -27.84879,0.01 -0.0286,41.54942 0.019,83.09884 -0.0286,124.64827 -19.53698,0 -39.07397,0.01 -58.61096,0 -0.019,-102.0741 -0.0286,-204.15772 0.01,-306.231818 z"
     id="path14"
     inkscape:connector-curvature="0"
     style="fill:#edac00" />
  <path
     d="m 1401.3924,367.85929 c -0.057,-102.08362 -0.076,-204.16724 0.01,-306.241339 26.1921,0.0095 52.3842,0 78.5764,0 20.032,-0.266586 40.5402,1.694729 59.1822,9.473345 13.7578,5.693527 26.1731,15.366812 33.6375,28.400991 8.6165,14.728913 10.8063,32.352193 9.5019,49.128103 -1.4567,14.72891 -7.8262,28.84848 -17.8327,39.74044 -5.6174,6.16006 -12.244,11.36802 -19.3847,15.65244 12.8343,8.43556 25.9256,17.54711 34.2469,30.78123 8.2166,12.76759 10.454,28.3153 10.5777,43.22511 0.2381,18.26118 -3.3323,37.17931 -13.6244,52.57468 -9.0545,13.68161 -23.0407,23.60244 -38.3695,29.14363 -19.0609,7.15023 -39.7023,8.37843 -59.8677,8.11185 -25.5542,0 -51.0989,0 -76.6531,0.01 z"
     id="path16"
     inkscape:connector-curvature="0"
     style="fill:#edac00" />
  <path
     d="m 1859.5785,61.617951 c 65.0567,-0.01904 130.1038,0.01904 195.1509,-0.01904 0.1333,17.299565 0.029,34.59913 0.057,51.898699 -22.7074,0.01 -45.4149,-0.01 -68.1319,0 -0.019,84.78405 0.019,169.5681 -0.019,254.35216 -19.537,0 -39.0645,0.01 -58.6015,0 -0.048,-84.78406 -0.01,-169.56811 -0.019,-254.35216 -22.8217,-0.01 -45.6339,0.01 -68.4556,-0.01 0.01,-17.290049 -0.029,-34.580093 0.019,-51.870137 z"
     id="path18"
     inkscape:connector-curvature="0"
     style="fill:#edac00" />
  <path
     d="m 2090.9852,62.474837 c 0.1714,-0.19994 0.5236,-0.59982 0.7045,-0.79976 19.2895,-0.123772 38.5789,-0.03808 57.8779,-0.04761 0.028,102.074093 0.019,204.138683 0,306.212773 -19.5465,0.019 -39.093,0.0286 -58.6395,-0.01 0.019,-101.78845 -0.086,-203.57693 0.057,-305.355878 z"
     id="path20"
     inkscape:connector-curvature="0"
     style="fill:#edac00" />
  <path
     d="m 1018.0789,110.07007 c 9.7781,0.51413 20.0416,3.37041 27.03,10.58729 7.712,7.77862 10.3588,19.14663 10.5111,29.79105 0.3333,11.25377 -1.6471,23.33585 -9.1305,32.18081 -6.9694,8.14993 -17.9566,11.52035 -28.3725,11.9964 -11.3299,0.0476 -22.66938,0 -34.00882,0.01 0.01,-28.21057 -0.019,-56.43067 0.01,-84.64124 11.32039,0.0571 22.64082,-0.0952 33.96122,0.0762 z"
     id="path22"
     inkscape:connector-curvature="0"
     style="fill:#FFFFFF" />
  <path
     d="m 1245.8105,109.49881 c 10.2255,-0.80928 21.2698,-0.52365 30.3147,4.90329 6.8361,4.03688 10.9777,11.38706 12.8819,18.90861 2.6373,9.59711 2.0375,19.64171 2.1231,29.48637 0,35.55123 0,71.10245 0,106.65368 0.086,12.72951 0.2952,26.48728 -6.8646,37.59822 -5.3412,8.48317 -15.5096,12.26299 -25.1162,12.93897 -10.3588,0.65695 -21.6411,0.1809 -30.5242,-5.8173 -10.6254,-7.37873 -13.2341,-21.19363 -13.7863,-33.27571 -0.057,-42.83475 0.019,-85.67902 -0.029,-128.51377 0.1238,-11.06335 1.3044,-23.08831 8.3975,-32.09512 5.3603,-6.90269 14.1291,-10.05413 22.6027,-10.78724 z"
     id="path24"
     inkscape:connector-curvature="0"
     style="fill:#FFFFFF" />
  <path
     d="m 1460.2223,109.9939 c 13.5769,0.57126 27.5822,-1.66617 40.7687,2.51353 8.8164,2.65635 16.595,9.08299 20.0226,17.73753 3.7988,9.53999 4.4748,20.68902 0.2475,30.20997 -5.2365,12.20586 -17.9375,19.6322 -30.686,21.55543 -10.0446,1.37102 -20.2225,0.53317 -30.3147,0.93305 -0.1047,-24.3165 -0.029,-48.63301 -0.038,-72.94951 z"
     id="path26"
     inkscape:connector-curvature="0"
     style="fill:#FFFFFF" />
  <path
     d="m 1725.6378,109.5369 c 8.9402,-0.7712 18.2993,-0.62839 26.7253,2.78963 6.8075,2.72299 12.1963,8.407 14.9669,15.15735 3.6466,8.73071 4.2273,18.36592 4.1131,27.71549 -0.029,41.5875 0.019,83.16549 -0.029,124.74347 -0.4094,10.67299 -2.047,22.34567 -9.5781,30.52417 -6.2171,6.95029 -15.8619,9.25436 -24.8211,9.6828 -9.4733,0.34276 -19.6131,-0.39036 -27.744,-5.74113 -6.9027,-4.50341 -10.7968,-12.34867 -12.4629,-20.21298 -1.5805,-6.53137 -1.6281,-13.29124 -1.571,-19.97495 0.019,-41.57798 0,-83.15597 0.01,-124.74347 0.1619,-10.25407 1.8185,-21.26028 8.4642,-29.46734 5.2841,-6.60754 13.7387,-9.66376 21.9267,-10.47304 z"
     id="path28"
     inkscape:connector-curvature="0"
     style="fill:#FFFFFF" />
  <path
     d="m 1460.2318,319.38814 c -0.019,-29.43878 -0.067,-58.87755 0.019,-88.30681 16.2046,0.25707 33.3233,-1.39006 48.4426,5.67449 11.2442,4.9985 19.5941,15.70956 21.6506,27.84877 2.0089,12.39628 0.8759,26.01124 -6.2267,36.70326 -5.1413,8.0452 -13.6626,13.51023 -22.7932,15.93807 -13.3864,3.65605 -27.4013,1.60904 -41.0924,2.14222 z"
     id="path30"
     inkscape:connector-curvature="0"
     style="fill:#FFFFFF" />
  <path
     d="m 1033.9599,418.5393 c 6.4647,-7.49299 16.4617,-10.78724 26.0779,-11.46322 10.4254,-0.71407 21.5649,0.42844 30.4956,6.28382 6.2457,3.97976 10.4349,10.54921 12.7009,17.49951 2.0756,6.19814 2.5135,12.76759 2.8087,19.25136 -8.1975,0.36179 -16.4332,-0.37132 -24.6021,0.49509 -0.3142,-5.5412 0.057,-11.62508 -3.1896,-16.44268 -2.4754,-3.7703 -7.1121,-5.3603 -11.4537,-5.41742 -4.7985,-0.22851 -10.3302,0.38083 -13.7006,4.21778 -3.7417,4.19874 -3.8274,10.16837 -3.9702,15.49058 -0.048,15.87142 -0.01,31.75237 -0.019,47.63331 0.1143,5.08419 0.048,10.48256 2.5897,15.06214 2.2089,3.97024 6.7599,5.92203 11.149,6.0458 5.3699,0.38084 11.787,-0.19041 15.1764,-4.96041 4.313,-6.32191 3.0182,-14.37663 3.2181,-21.58399 8.2452,0.0286 16.4903,-0.0952 24.7259,0.0762 0.1143,10.58729 -0.4094,21.75536 -5.6459,31.23823 -4.0464,7.37874 -11.1966,12.84376 -19.2894,15.07166 -10.5016,2.91341 -21.8792,2.91341 -32.3332,-0.2285 -8.4165,-2.45641 -15.681,-8.57838 -19.4418,-16.50933 -3.4561,-7.2264 -4.6176,-15.32872 -4.7319,-23.2692 0.038,-16.53788 -0.01,-33.06625 0.019,-49.59462 0.3332,-10.20646 2.5706,-20.97465 9.4162,-28.89608 z"
     id="path32"
     inkscape:connector-curvature="0"
     style="fill:#edac00" />
  <path
     d="m 934.31362,417.95852 c 5.34125,-6.03628 13.18652,-9.19724 21.02226,-10.38735 9.84466,-1.49479 20.39387,-0.79024 29.32452,3.91311 10.1874,5.17939 17.2424,15.55723 19.3275,26.68722 -7.35017,2.09461 -14.65273,4.37011 -22.04097,6.33143 -1.73281,-4.78904 -3.74173,-9.72089 -7.52155,-13.27221 -4.74143,-4.58909 -12.61526,-5.32221 -18.24214,-1.97083 -4.13209,2.48497 -5.80778,7.57867 -5.78874,12.17729 0.24755,5.06515 4.19874,8.80688 8.11185,11.51083 8.68311,5.84586 18.48969,9.78754 27.07758,15.77621 8.34033,5.59832 15.84287,13.38646 18.47067,23.33585 2.6087,10.13981 1.5233,21.51734 -4.0369,30.52416 -4.532,7.37874 -12.29155,12.32963 -20.5367,14.60514 -11.0443,2.90389 -23.24063,2.92293 -33.74224,-1.9518 -12.77711,-5.94107 -20.36531,-19.20375 -23.46914,-32.46643 8.20706,-1.27581 16.17609,-3.82743 24.43076,-4.75096 1.21868,7.18832 4.53197,14.72891 11.08238,18.51825 6.34095,3.84646 15.77621,2.56113 20.11777,-3.70365 3.76077,-5.28413 3.77981,-13.06274 -0.12378,-18.28022 -3.0467,-4.26539 -7.53107,-7.19784 -11.93927,-9.89227 -10.43496,-6.2743 -22.01243,-11.06334 -30.76218,-19.76549 -5.4079,-5.30317 -8.87353,-12.53909 -9.23532,-20.13681 -0.29515,-9.47334 1.76137,-19.69884 8.47364,-26.80147 z"
     id="path34"
     inkscape:connector-curvature="0"
     style="fill:#edac00" />
  <path
     d="m 1379.2371,416.30188 c 7.8262,-7.28353 18.9657,-9.49239 29.334,-9.41622 10.5017,0.01 21.7745,2.4564 29.4579,10.10172 8.664,8.5879 10.8919,21.43166 10.9205,33.15195 -8.2261,0.54269 -16.4522,-0.13329 -24.6783,0.0571 0.1238,-6.12198 0.067,-13.04371 -4.3796,-17.8137 -3.7894,-3.54179 -9.3591,-3.93215 -14.2815,-3.57036 -4.1797,0.20946 -8.5212,2.09461 -10.711,5.8173 -3.0087,5.00802 -2.5993,11.10143 -2.6659,16.71879 0.048,16.17609 -0.029,32.35219 0.038,48.5378 0.1618,5.00802 0.8473,10.72059 4.8842,14.20525 4.1416,3.50371 9.997,3.42755 15.1003,2.94198 4.351,-0.4094 8.4355,-3.11335 10.1779,-7.1788 2.6658,-6.03628 1.5995,-12.80567 1.8185,-19.20375 8.207,0 16.4045,-0.0381 24.6116,0.019 0.2761,10.47304 -0.2285,21.48878 -5.3412,30.89548 -4.2559,8.24514 -12.463,14.00532 -21.4412,16.01424 -10.7016,2.43736 -22.2124,2.24694 -32.5807,-1.55192 -8.0643,-2.94197 -14.6718,-9.37813 -17.928,-17.30908 -4.4938,-10.38736 -4.113,-21.98388 -4.1511,-33.06626 0.2476,-14.96693 -0.6189,-29.97195 0.6855,-44.9008 1.0092,-9.00681 4.2844,-18.21357 11.13,-24.44979 z"
     id="path36"
     inkscape:connector-curvature="0"
     style="fill:#edac00" />
  <path
     d="m 1979.0664,407.76158 c 10.7492,-1.87562 22.4504,-1.00922 32.038,4.57958 9.4353,5.44598 15.462,15.36681 17.9375,25.79225 -7.3597,2.12317 -14.7289,4.19874 -22.041,6.44569 -2.2946,-5.16988 -4.2749,-10.93005 -8.9973,-14.42424 -5.8744,-4.44629 -15.6429,-4.09401 -20.1654,2.12317 -3.3514,4.84616 -3.6275,12.17729 0.657,16.58549 4.9985,5.16036 11.6822,8.16898 17.8803,11.62508 9.7685,5.24604 19.9083,10.84436 26.6967,19.88926 4.8843,6.31239 7.3312,14.36712 6.9979,22.32663 0.2857,9.25436 -2.9324,18.82292 -9.6637,25.33525 -6.6076,6.79795 -16.0809,9.95891 -25.3353,10.80627 -11.5013,1.34246 -23.9737,-1.21868 -32.8377,-9.01634 -8.0262,-6.94077 -12.5867,-16.95681 -15.2335,-27.04901 8.1594,-1.45671 16.2141,-3.38946 24.326,-5.09371 1.2853,6.55993 3.9226,13.24364 9.3115,17.51855 6.2362,5.25556 16.8997,4.61766 21.8886,-2.05653 3.0372,-3.88455 3.399,-9.17819 2.4279,-13.85298 -1.6757,-5.56976 -6.3695,-9.50191 -11.0538,-12.58669 -10.7397,-7.10263 -23.174,-11.69173 -32.6855,-20.57478 -5.9125,-5.23652 -9.9779,-12.6343 -10.4825,-20.57477 -0.6379,-9.51143 1.5328,-19.62267 7.8167,-27.02997 5.1699,-6.01724 12.7961,-9.46383 20.5176,-10.7682 z"
     id="path38"
     inkscape:connector-curvature="0"
     style="fill:#edac00" />
  <path
     d="m 2148.844,413.62649 c 7.3216,-5.02706 16.4141,-6.72179 25.1639,-6.75035 10.2445,-0.0762 20.8794,3.11335 28.3533,10.35879 5.884,5.56975 9.5305,13.0913 11.4728,20.87944 -7.3978,2.13269 -14.786,4.28443 -22.1648,6.44568 -2.1708,-5.42694 -4.4082,-11.37753 -9.4448,-14.78603 -5.903,-4.0464 -15.2716,-3.52275 -19.6322,2.53257 -3.2847,4.80808 -3.6084,12.11065 0.657,16.47124 4.5891,4.90329 10.8253,7.7691 16.6045,11.01574 10.1874,5.43646 20.8223,11.10143 27.9535,20.48908 8.1595,10.5397 9.1782,25.4495 4.2654,37.59823 -3.8655,9.51143 -12.6724,16.44268 -22.4504,19.14663 -10.8348,2.9515 -22.7836,3.17048 -33.2376,-1.31389 -13.2722,-5.65544 -21.5555,-19.26088 -24.288,-32.98057 8.0452,-1.48527 16.0143,-3.33233 24.0119,-5.0461 1.3424,6.54089 3.9131,13.28172 9.34,17.52807 6.0744,5.08418 16.2999,4.64622 21.4602,-1.55192 3.3133,-4.13209 4.3892,-10.0446 2.5897,-15.05262 -1.5043,-4.35107 -4.9699,-7.67388 -8.5783,-10.36831 -9.7781,-6.96934 -21.1651,-11.33945 -30.7527,-18.59442 -5.1604,-3.85598 -9.8066,-8.70214 -12.3392,-14.70034 -3.2276,-7.47395 -2.9229,-16.02376 -0.952,-23.78333 1.7708,-7.00742 5.9505,-13.46262 11.9678,-17.53759 z"
     id="path40"
     inkscape:connector-curvature="0"
     style="fill:#edac00" />
  <path
     d="m 2546.3817,422.89037 c 4.3701,-7.70244 12.4344,-12.72951 20.9556,-14.58609 14.5195,-3.37042 31.6952,-1.24725 42.3016,10.11125 5.2936,5.38885 8.407,12.48196 10.3397,19.68932 -7.4263,2.11365 -14.8146,4.38916 -22.2599,6.41712 -1.7709,-4.77952 -3.7513,-9.73041 -7.5502,-13.28172 -4.2273,-4.16066 -11.0157,-5.08419 -16.4236,-2.91342 -8.0547,3.12288 -10.1112,15.46203 -3.6941,21.14603 4.4177,4.39868 10.1303,7.13119 15.5382,10.10173 10.2159,5.4555 20.8699,11.10143 28.1248,20.42244 8.8069,11.25376 9.6638,27.59171 3.38,40.21649 -4.313,8.67358 -12.8628,14.58609 -22.0886,17.01393 -11.8726,3.14191 -25.2115,2.80868 -36.1035,-3.32281 -11.3299,-6.47425 -17.9755,-18.78483 -20.908,-31.15255 8.2166,-1.24724 16.1952,-3.83694 24.4784,-4.71287 1.152,7.19784 4.5129,14.71939 11.0443,18.51825 6.5314,3.96072 16.3094,2.41832 20.4796,-4.24634 3.4085,-5.25557 3.3418,-12.67239 -0.4761,-17.68993 -3.9702,-5.4079 -9.9018,-8.83544 -15.6143,-12.10112 -8.8164,-4.94138 -18.1184,-9.34005 -25.64,-16.2237 -5.1222,-4.6367 -9.121,-10.77771 -10.2255,-17.6804 -0.9997,-8.73071 -0.238,-18.03268 4.3416,-25.72561 z"
     id="path42"
     inkscape:connector-curvature="0"
     style="fill:#edac00" />
  <path
     d="m 1125.4086,408.80889 c 8.2356,-0.0571 16.4712,-0.019 24.7069,-0.0286 -0.01,42.84427 0.01,85.68854 -0.01,128.53281 -8.2261,0 -16.4617,0.019 -24.6878,-0.01 -0.01,-42.83475 0.01,-85.6695 -0.01,-128.49473 z"
     id="path44"
     inkscape:connector-curvature="0"
     style="fill:#edac00" />
  <path
     d="m 1171.8232,408.78033 c 22.479,0.0476 44.958,-0.0952 67.4369,0.0666 0,7.12167 -0.076,14.25286 0.048,21.37453 -14.2243,0.70455 -28.5057,0.10473 -42.7586,0.3142 0.038,9.87322 -0.086,19.74644 0.067,29.62919 10.7777,0 21.5554,-0.0571 32.3331,0.0286 -0.01,7.15023 -0.038,14.30999 0.019,21.46974 -10.7968,0.50461 -21.6126,0.0952 -32.4189,0.23803 0.019,11.21567 -0.038,22.44087 0.029,33.66607 14.8051,-0.01 29.6101,0 44.4152,0 0.067,7.23592 -0.019,14.48137 0.076,21.72681 -23.0788,0.0571 -46.1576,0.01 -69.2364,0.0286 -0.019,-42.85379 0,-85.69806 -0.01,-128.54233 z"
     id="path46"
     inkscape:connector-curvature="0"
     style="fill:#edac00" />
  <path
     d="m 1262.2627,408.78033 c 9.0449,0.019 18.0898,-0.0571 27.1347,0.0476 8.2642,18.8134 16.8235,37.50302 25.1829,56.26881 3.1515,6.73131 5.8745,13.66256 9.3401,20.23202 0.1238,-25.51615 0.019,-51.03229 0.057,-76.54843 7.4168,0 14.8432,-0.01 22.26,0 -0.01,42.84427 0.01,85.68854 -0.01,128.54233 -7.8548,-0.01 -15.7096,0.01 -23.5644,-0.01 -9.3495,-20.59381 -18.661,-41.20667 -28.0106,-61.80048 -3.1038,-7.15975 -6.6647,-14.11957 -9.4448,-21.41262 -0.676,27.71549 -0.1047,55.46905 -0.2951,83.19406 -7.5502,0.0571 -15.1003,0.01 -22.6409,0.0286 -0.019,-42.85379 -0.01,-85.69806 -0.01,-128.54233 z"
     id="path48"
     inkscape:connector-curvature="0"
     style="fill:#edac00" />
  <path
     d="m 1468.7245,408.78033 c 22.5171,0.0666 45.0436,-0.15234 67.5607,0.11425 -0.2381,7.2264 0.3522,14.48136 -0.3523,21.68872 -14.1291,-0.13329 -28.2677,-0.019 -42.3968,-0.0571 0.038,9.88275 -0.086,19.75597 0.076,29.63872 10.8253,-0.01 21.6506,-0.0381 32.4854,0.01 -0.038,7.23592 0.019,14.47184 -0.038,21.70776 -10.8444,0.019 -21.6792,0 -32.5236,0.01 0.019,11.2252 -0.038,22.4504 0.029,33.6756 14.8717,0 29.7339,-0.019 44.5961,0.01 0,7.24545 0.01,14.49089 0,21.73633 -23.1454,0.01 -46.3004,0.01 -69.4458,0 0,-42.84427 -0.01,-85.68854 0.01,-128.53281 z"
     id="path50"
     inkscape:connector-curvature="0"
     style="fill:#edac00" />
  <path
     d="m 1626.1915,408.77081 c 10.5968,0.11425 21.2031,-0.19042 31.8,0.16185 10.0255,42.85379 20.4795,85.61238 30.8859,128.37096 -7.8833,0.0381 -15.7667,-0.01 -23.6405,0.0286 -2.2184,-8.76879 -3.9988,-17.65184 -6.1886,-26.42063 -0.1619,-0.15234 -0.5046,-0.46653 -0.6665,-0.61886 -11.0824,-0.25707 -22.1743,0.0381 -33.2567,-0.1333 -2.5801,8.98778 -4.7224,18.08981 -7.0645,27.13471 -7.931,0.0381 -15.8619,0.0286 -23.7833,0.01 10.5492,-42.86331 21.1746,-85.71711 31.9142,-128.53281 z"
     id="path52"
     inkscape:connector-curvature="0"
     style="fill:#edac00" />
  <path
     d="m 1701.5784,408.85649 c 9.0449,-0.17137 18.0898,-0.0476 27.1347,-0.0666 11.4441,25.43997 22.9264,50.86091 34.2468,76.35801 0.2761,-25.4495 0.038,-50.90852 0.1238,-76.36753 7.5882,0.019 15.1669,-0.0667 22.7551,0.0571 -0.029,42.81571 0,85.64094 -0.01,128.45665 -7.8928,0.0666 -15.7857,-0.019 -23.669,0.0571 -12.7105,-27.66787 -25.0306,-55.51665 -37.8268,-83.14645 -0.1713,27.70597 -0.01,55.41193 -0.076,83.11789 -7.5597,-0.019 -15.1098,0.0381 -22.6599,-0.0381 -0.019,-42.80619 0.019,-85.6219 -0.019,-128.42809 z"
     id="path54"
     inkscape:connector-curvature="0"
     style="fill:#edac00" />
  <path
     d="m 1807.2895,408.83745 c 11.7869,-0.13329 23.5833,-0.019 35.3798,-0.0571 11.349,-0.11425 23.7548,2.23742 32.0856,10.53969 6.5885,6.2267 9.5876,15.19543 10.9777,23.94518 1.59,12.14874 0.7235,24.41172 0.9425,36.6271 0.095,13.34837 0.3142,27.55362 -6.3504,39.57858 -3.9512,7.36922 -11.0348,12.71047 -18.9563,15.16687 -11.2442,3.66557 -23.212,2.49449 -34.8371,2.68491 -6.4076,-0.019 -12.8247,0.019 -19.2323,-0.0286 -0.01,-42.81571 0.01,-85.63142 -0.01,-128.45665 z"
     id="path56"
     inkscape:connector-curvature="0"
     style="fill:#edac00" />
  <path
     d="m 2033.6881,408.78985 c 8.7688,-0.019 17.5471,-0.019 26.3254,-0.01 7.1883,17.18531 14.2148,34.43727 21.5459,51.56546 6.8266,-17.2234 13.7864,-34.38967 20.7176,-51.56546 8.7593,0.01 17.5186,-0.0476 26.2874,0.0381 -11.587,25.40189 -23.4216,50.70858 -34.8277,76.17711 -0.4475,17.41382 -0.048,34.88476 -0.1904,52.31762 -8.2451,0.01 -16.4998,0.01 -24.7449,0 -0.1428,-17.35669 0.2666,-34.74194 -0.2,-52.07007 -11.3965,-25.58279 -23.3168,-50.95612 -34.9133,-76.45322 z"
     id="path58"
     inkscape:connector-curvature="0"
     style="fill:#edac00" />
  <path
     d="m 2224.2023,408.83745 c 27.4584,-0.0857 54.9264,-0.12377 82.3848,0.019 0,7.12167 -0.076,14.23382 0.048,21.35549 -9.6638,0.73312 -19.3847,0.0666 -29.0675,0.3618 0.01,35.57979 0,71.15957 0,106.73936 -8.1214,0.01 -16.2332,0.01 -24.345,0 -0.01,-35.57027 -0.01,-71.15005 0,-106.72984 -9.6733,-0.14281 -19.3371,0 -28.9913,-0.0762 -0.029,-7.2264 0,-14.44328 -0.029,-21.66968 z"
     id="path60"
     inkscape:connector-curvature="0"
     style="fill:#edac00" />
  <path
     d="m 2319.1928,408.78033 c 22.4885,-0.01 44.9865,-0.01 67.475,0.01 -0.01,7.23592 0,14.48136 -0.01,21.73632 -14.291,0.01 -28.5724,-0.01 -42.8538,0.01 0.038,9.87322 -0.086,19.74644 0.067,29.62919 10.8253,-0.019 21.6602,-0.01 32.495,-0.01 -0.029,7.24544 0.029,14.48136 -0.038,21.7268 -10.8443,0.019 -21.6887,0 -32.5235,0.019 0.01,11.21567 -0.038,22.44087 0.029,33.66607 14.8813,0.019 29.772,-0.0666 44.6628,0.0476 -0.029,7.21688 -0.01,14.44328 -0.01,21.66968 -23.0978,0.0762 -46.1957,0.019 -69.284,0.0381 -0.019,-42.85379 -0.01,-85.69806 -0.01,-128.54233 z"
     id="path62"
     inkscape:connector-curvature="0"
     style="fill:#edac00" />
  <path
     d="m 2407.9185,408.78985 c 11.5394,0.0476 23.0883,-0.16186 34.6277,0.10473 7.0836,28.22009 15.0241,56.23072 22.022,84.46986 5.4174,-18.03268 9.7209,-36.40811 14.6813,-54.5836 2.6373,-9.98748 5.3317,-19.95591 7.8833,-29.97195 11.5585,-0.0286 23.1074,-0.0952 34.6658,0.0381 -0.038,42.81571 0,85.6219 -0.019,128.43761 -7.0075,0.0666 -14.0149,0.0286 -21.0128,0.0286 0,-27.07758 0,-54.16468 0,-81.24226 -0.086,-6.79796 0.3713,-13.634 -0.7426,-20.37483 -1.3329,8.25466 -3.9702,16.21418 -5.903,24.33555 -6.6551,25.76368 -13.3579,51.51785 -20.013,77.28154 -6.1982,0.01 -12.3963,0.01 -18.5849,0 -8.9116,-33.91362 -17.4995,-67.91293 -26.4968,-101.80751 -0.2285,33.93266 -0.029,67.87485 -0.095,101.80751 -7.0075,0.01 -14.0053,0.01 -21.0032,0 -0.019,-42.84427 0,-85.68854 -0.01,-128.52329 z"
     id="path64"
     inkscape:connector-curvature="0"
     style="fill:#edac00" />
  <path
     d="m 1831.9392,430.60234 c 7.8643,0.0476 16.9663,-1.27581 23.4501,4.25587 5.5983,5.08418 6.2553,13.18651 6.5885,20.27962 -0.01,12.044 0.029,24.09752 -0.019,36.14152 -0.3522,7.2264 -1.4471,15.49058 -7.4644,20.31771 -6.4266,4.92233 -14.9479,3.95119 -22.5361,3.91311 -0.019,-28.29626 0.019,-56.60205 -0.019,-84.90783 z"
     id="path66"
     inkscape:connector-curvature="0"
     style="fill:#FFFFFF" />
  <path
     d="m 1641.7868,436.08641 c 3.8465,17.54711 8.1214,34.99901 11.9202,52.54612 -8.0357,0.01 -16.0618,0.01 -24.0975,0 3.7227,-17.5852 7.931,-35.07518 12.1773,-52.54612 z"
     id="path68"
     inkscape:connector-curvature="0"
     style="fill:#FFFFFF" />
  <flowRoot
     xml:space="preserve"
     id="flowRoot3020"
     style="font-size:40px;font-style:normal;font-weight:normal;line-height:125%;letter-spacing:0px;word-spacing:0px;fill:#ffffff;fill-opacity:1;stroke:none;font-family:Sans"
     transform="matrix(0.80000001,0,0,0.80000001,0.01657408,0.03941784)"><flowRegion
       id="flowRegion3022"><rect
         id="rect3024"
         width="67.971642"
         height="67.971642"
         x="1193.861"
         y="723.72638" /></flowRegion><flowPara
       id="flowPara3026" /></flowRoot>  <g
     id="g4068"
     transform="matrix(0.58110533,0,0,0.56113008,219.89174,30.789346)">
    <path
       id="path3732"
       d="m 0,0 1045,0 0,957 L 0,957 0,0 z"
       inkscape:connector-curvature="0"
       style="fill:#ffffff" />
    <path
       id="path3734"
       d="m 500.28,16.41 c 44.56,-1.54 88.59,8.68 130.53,22.95 41.85,14.32 81.5,34.77 117.95,59.78 21.58,14.32 40.4,32.21 59.75,49.3 7.91,7.09 14.9,15.11 22.42,22.58 5.16,4.86 12.63,3.06 19.01,3.5 3.55,0.03 8.35,0.62 9.54,4.63 1.92,7.15 -0.15,14.67 1.3,21.89 1.04,5.56 3.75,10.65 7.04,15.2 22.3,31.47 40.17,66.24 51.43,103.19 6.28,20.56 12.47,41.24 16.02,62.48 5.35,34.1 4.65,68.74 4.12,103.14 -0.98,36.39 -8.52,72.17 -16.43,107.57 -5.9,26.19 -16.49,51.17 -30.05,74.28 -10.6,17.93 -22.21,35.22 -33.03,53 -1.9,3.02 -2.7,6.59 -2.65,10.14 -0.08,14.33 -0.08,28.66 -0.07,42.99 -0.69,11.99 -0.23,24.02 -0.36,36.03 -0.04,30.97 -0.1,61.95 -0.06,92.93 -0.17,2.46 0.32,5.34 -1.43,7.36 -1.55,1.08 -3.49,1.13 -5.29,1.21 -120.67,0.09 -241.34,-0.08 -362.01,0.09 -119.99,0.18 -239.98,0.01 -359.98,0.08 -2.44,-0.2 -5.38,0.42 -7.32,-1.46 -1.38,-2.15 -1.1,-4.81 -1.21,-7.23 -0.01,-32.34 -0.11,-64.67 -0.17,-97 -0.3,-29.75 0.26,-59.51 -1.14,-89.23 -0.13,-3.18 -1.57,-6.11 -3.63,-8.48 -22.52,-28.37 -38.08,-61.7 -48.81,-96.15 -6.77,-21.68 -11.91,-43.84 -16.1,-66.16 -4.9,-27.36 -5.62,-55.26 -5.08,-82.99 0.23,-13.7 0.02,-27.42 0.93,-41.1 2.23,-30.06 10.93,-59.07 18.93,-87.97 10.46,-37.67 26.23,-73.79 46.04,-107.46 3.55,-5.88 5.98,-12.67 5.58,-19.61 -0.72,-8.63 -0.25,-17.29 -0.29,-25.93 -0.16,-3.02 1.59,-7.01 5.21,-6.51 6.14,1.17 12.59,2.19 18.72,0.35 9.42,-2.77 16.64,-9.95 22.93,-17.17 C 194.75,120.36 234,90.99 275.83,66.83 306.18,49.69 339.2,37.78 372.82,28.89 408.54,18.7 446,18.34 482.83,16.95 c 5.81,-0.34 11.64,-0.24 17.45,-0.54 z"
       inkscape:connector-curvature="0"
       style="fill:#edac00" />
    <path
       id="path3736"
       d="m 422.09,26.09 c 27.26,-1.98 54.56,-3.78 81.92,-3.72 40.66,-1.23 80.68,8.64 119.04,21.29 42.86,14.28 83.59,34.88 120.57,60.82 14.86,10.27 28.55,22.08 42.13,33.94 12.88,11.19 26.32,21.95 37.1,35.28 -222.03,0.04 -444.06,0.1 -666.09,-0.03 2.48,-3.46 4.74,-7.1 7.71,-10.18 26.48,-29.5 57.33,-54.92 90.53,-76.51 14.56,-9.42 29.46,-18.38 45.16,-25.78 21.72,-10.42 44.55,-18.42 67.79,-24.69 17.79,-4.64 35.75,-9.1 54.14,-10.42 z"
       inkscape:connector-curvature="0"
       style="fill:#ffffff" />
    <path
       id="path3738"
       d="m 122.15,183.93 c -0.06,-2.01 1.95,-3.23 3.75,-3.28 4.17,-0.39 8.36,-0.13 12.53,-0.02 0.01,0.61 0.02,1.81 0.03,2.41 -3.9,5.18 -8.3,9.96 -12.37,15 -0.86,1.36 -2.31,1.87 -3.83,2.11 -0.58,-5.38 -0.69,-10.85 -0.11,-16.22 z"
       inkscape:connector-curvature="0"
       style="fill:#ffffff" />
    <path
       id="path3740"
       d="m 160.84,183.54 c 0.69,-0.87 1.18,-2.07 2.34,-2.42 2.79,0.6 5.1,2.42 7.55,3.79 -1.57,0.93 -3.13,1.87 -4.7,2.79 -1.75,-1.37 -3.47,-2.77 -5.19,-4.16 z"
       inkscape:connector-curvature="0"
       style="fill:#ffffff" />
    <path
       id="path3742"
       d="m 176.92,181.4 c 83.36,-0.31 166.73,-0.05 250.1,-0.14 12.19,0.07 24.39,-0.13 36.59,0.11 -5.9,4.71 -12.77,8.94 -16.1,16.02 -3.1,5.7 -2.13,12.39 -2.4,18.61 0.19,6.16 -0.06,12.48 1.71,18.45 2.82,8 8.35,14.6 13.49,21.2 3,3.8 5.67,8.4 4.98,13.43 -1.02,8.99 -8.8,15.47 -16.82,18.47 -8.61,3.54 -18.38,2.2 -26.75,-1.35 -4.15,-1.88 -8.89,-3.35 -11.64,-7.25 -4.09,-5.68 -9.83,-10.09 -16.31,-12.7 -5.03,-2.14 -10.46,-2.98 -15.74,-4.23 -18.29,-4.11 -36.52,-8.57 -54.97,-11.93 -16.75,-3.11 -32.71,-9.58 -47.69,-17.57 -13.03,-6.93 -26.78,-12.93 -41.4,-15.45 -4.04,-0.75 -8.19,-0.82 -12.17,-1.91 -4.62,-1.34 -8.7,-4.61 -10.77,-8.98 -1.38,-2.91 -2.57,-6.02 -4.97,-8.26 -4.99,-5.05 -12.11,-6.77 -18.23,-9.98 -3.29,-1.76 -6.82,-3.05 -10.05,-4.9 -0.22,-0.41 -0.65,-1.23 -0.86,-1.64 z"
       inkscape:connector-curvature="0"
       style="fill:#ffffff" />
    <path
       id="path3744"
       d="m 469.82,183.97 c 4.04,-1.49 8.34,-2.35 12.66,-2.15 -9,5.2 -18.74,9.04 -27.98,13.82 3.08,-5.96 9.31,-9.33 15.32,-11.67 z"
       inkscape:connector-curvature="0"
       style="fill:#ffffff" />
    <path
       id="path3746"
       d="m 521.25,181.62 c 94.45,-0.09 188.9,-0.02 283.36,-0.04 0.05,0.54 0.15,1.6 0.2,2.14 -8.19,5.14 -16.37,10.3 -24.38,15.71 -7.18,5.13 -13.41,12.59 -22.52,14.18 -24.01,5.59 -48.24,13.14 -68.32,27.92 -4.49,3.57 -10.67,2.76 -15.5,5.55 -29.63,14.22 -63.73,12.99 -94.1,24.95 -5.8,2.35 -11.28,5.75 -15.39,10.52 -4.87,6.04 -13.26,7.75 -20.64,7.01 -5.09,-0.37 -9.44,-3.25 -13.79,-5.63 -2.82,-1.53 -6.36,-2.15 -8.34,-4.89 -1.24,-2.15 -1.08,-4.74 -1.3,-7.12 -0.23,-4.82 -0.44,-10 2.04,-14.33 2.59,-4.7 8.1,-6.58 11.18,-10.87 5.27,-6.28 6.5,-14.93 5.45,-22.84 -1.27,-8.38 -0.46,-16.95 -2,-25.31 -2.87,-7.51 -10.28,-11.75 -15.95,-16.95 z"
       inkscape:connector-curvature="0"
       style="fill:#ffffff" />
    <path
       id="path3748"
       d="m 842.02,182.77 c 2.89,-1.17 6.62,-1.95 9.41,-0.21 1.74,2.59 1.4,5.95 1.93,8.92 -0.62,0.34 -1.86,1.03 -2.49,1.37 -3.07,-3.25 -6.26,-6.41 -8.85,-10.08 z"
       inkscape:connector-curvature="0"
       style="fill:#ffffff" />
    <path
       id="path3750"
       d="m 811.52,184.54 c 2.82,-2.1 6.55,-1.06 9.72,-0.56 -4.26,3.48 -9.17,6.07 -13.83,8.96 0.72,-3.02 1.41,-6.48 4.11,-8.4 z"
       inkscape:connector-curvature="0"
       style="fill:#ffffff" />
    <path
       id="path3752"
       d="m 144.86,185.62 c 1.71,-0.79 3.39,-1.75 5.27,-2.06 2.03,1.31 3.73,3.05 5.52,4.66 -1.38,0.67 -2.75,2.23 -4.42,1.5 -2.3,-1.06 -4.27,-2.71 -6.37,-4.1 z"
       inkscape:connector-curvature="0"
       style="fill:#ffffff" />
    <path
       id="path3754"
       d="m 820.98,189.78 c 3.58,-2.19 7.13,-4.44 10.82,-6.45 0.45,0.71 1.33,2.14 1.78,2.86 -3.51,2.45 -7.05,4.82 -10.69,7.06 -0.66,-1.15 -1.3,-2.31 -1.91,-3.47 z"
       inkscape:connector-curvature="0"
       style="fill:#ffffff" />
    <path
       id="path3756"
       d="m 464.42,195.38 c 9.47,-5.85 20.45,-9.57 31.62,-9.85 10.22,-0.38 18.52,6.4 26.56,11.75 3.08,1.75 4.62,5.23 4.62,8.69 0.3,9.98 0.16,19.98 0.28,29.96 0.22,3.66 -2.54,7.12 -6.31,7.16 -9.17,0.25 -18.35,-0.03 -27.53,0.12 -0.34,-0.37 -1.03,-1.11 -1.38,-1.48 -10.08,0.03 -20.17,0.17 -30.25,-0.04 -3.5,0.16 -5.57,-3.46 -5.31,-6.61 0.14,-9.7 -0.5,-19.41 -0.05,-29.11 0.04,-4.88 3.94,-8.24 7.75,-10.59 z"
       inkscape:connector-curvature="0"
       style="fill:#ffffff" />
    <path
       id="path3758"
       d="m 159.23,190.45 c 1.8,-0.11 3.8,-0.33 5.3,0.91 5.58,3.92 10.44,8.76 15.58,13.22 -7.71,-1.13 -14.43,-5.56 -20.2,-10.56 -1.07,-0.82 -0.43,-2.42 -0.68,-3.57 z"
       inkscape:connector-curvature="0"
       style="fill:#ffffff" />
    <path
       id="path3760"
       d="m 142.58,191.71 c -0.38,2.12 -1.46,4.32 -0.53,6.44 0.7,2.65 3.46,3.71 5.29,5.43 2.04,1.6 0.65,4.38 0.92,6.54 -0.23,2.2 2.07,3.29 3.62,4.28 10.76,5.76 21.09,12.29 31.99,17.79 5.06,2.62 10.98,2.33 16.24,4.35 25.33,9.05 50.18,19.42 74.74,30.41 11.27,4.69 19.82,14.42 31.72,17.79 10.07,3.04 20.24,5.73 30.33,8.72 -0.1,0.99 -0.2,1.98 -0.29,2.98 -7.21,0.69 -14.46,1.14 -21.61,2.32 -8.96,1.47 -17.91,3.24 -27,3.62 -12.83,0.19 -25.17,-4.24 -37.95,-4.65 -13.53,-0.39 -26.93,2.41 -39.8,6.37 -3.75,1.21 -8.43,1.08 -10.89,-2.45 -5.35,-6.67 -13.84,-10.16 -22.27,-10.36 -12.02,-0.17 -24.04,0.04 -36.06,-0.09 -3.69,-0.09 -7.69,-1.11 -11.13,0.73 -3.13,1.87 -2.65,5.86 -2.88,8.98 -3.13,-1.73 -4.47,-5.49 -4.37,-8.92 -0.1,-20.73 -1.55,-41.44 -0.7,-62.17 0.53,-5.36 -0.08,-10.93 1.99,-16.04 3.46,-9.27 11.1,-16.05 18.64,-22.07 z"
       inkscape:connector-curvature="0"
       style="fill:#ffffff" />
    <path
       id="path3762"
       d="m 838.33,191.71 c 6.2,5.44 13.71,11.42 14.3,20.33 0.32,28.34 -0.04,56.68 0.06,85.02 0.1,2.41 -0.33,5.66 -3.05,6.43 -3.46,0.65 -7,0.12 -10.48,0.05 -15.1,-0.58 -30.24,-1.63 -45.33,-1.1 -6.14,1.76 -12.38,3.18 -18.81,2.9 -3.53,2.41 -7.64,4.02 -11.99,3.11 -21.53,-3.18 -43.42,-1.83 -64.89,1.09 -17.46,1.12 -34.99,-0.94 -52.11,-4.26 -4.02,-0.74 -8.08,-1.36 -11.95,-2.71 0.03,-0.62 0.1,-1.85 0.13,-2.47 10.94,-3.14 21.62,-7.22 32.8,-9.48 8.23,-1.69 16.81,-3.72 23.51,-9.08 3.21,-2.45 5.34,-6.16 9.03,-8 26.68,-12.75 53.81,-24.56 80.32,-37.65 3.35,-1.75 6.66,1.12 10.09,0.9 4.3,0.29 8.07,-2.12 11.53,-4.35 9.29,-6.11 18.67,-12.08 27.95,-18.21 3,-1.73 3.52,-5.46 2.23,-8.47 2.01,-4.78 4.52,-9.33 6.66,-14.05 z"
       inkscape:connector-curvature="0"
       style="fill:#ffffff" />
    <path
       id="path3764"
       d="m 148.33,193.43 c 3.08,1.27 6.15,2.57 9.08,4.16 0.37,1.17 0.75,2.34 1.13,3.51 -1.19,0.43 -2.38,0.87 -3.57,1.31 -2.15,-0.95 -4.59,-1.57 -6.27,-3.34 -0.99,-1.71 -0.38,-3.78 -0.37,-5.64 z"
       inkscape:connector-curvature="0"
       style="fill:#ffffff" />
    <path
       id="path3766"
       d="m 178.09,192.75 c 4.19,1.88 8.16,4.21 12.25,6.3 -0.51,1.07 -1.02,2.15 -1.52,3.23 -4.22,-1.8 -8.15,-4.2 -12.22,-6.3 0.5,-1.08 1,-2.15 1.49,-3.23 z"
       inkscape:connector-curvature="0"
       style="fill:#ffffff" />
    <path
       id="path3768"
       d="m 792.89,205.11 c 2.67,-2.03 5.37,-4.03 8.16,-5.9 0.69,0.51 2.06,1.53 2.74,2.05 -2.71,2.78 -5.57,5.42 -8.67,7.76 -0.76,-1.31 -1.5,-2.6 -2.23,-3.91 z"
       inkscape:connector-curvature="0"
       style="fill:#ffffff" />
    <path
       id="path3770"
       d="m 198.47,208.64 c -2.02,-1.87 -5.35,-4.37 -2.93,-7.22 4.92,3.09 9.87,6.13 14.91,9 -4.01,1.21 -8.65,0.98 -11.98,-1.78 z"
       inkscape:connector-curvature="0"
       style="fill:#ffffff" />
    <path
       id="path3772"
       d="m 464.46,201.64 c 14.82,-0.68 29.69,-0.11 44.53,-0.3 4.18,0.02 8.38,-0.18 12.54,0.35 -7.34,1.96 -14.98,2.01 -22.51,2.51 -11.53,-0.01 -23.31,0.36 -34.56,-2.56 z"
       inkscape:connector-curvature="0"
       style="fill:#ffffff" />
    <path
       id="path3774"
       d="m 162.37,202.39 c 1.22,0.1 2.63,-0.37 3.74,0.34 4.05,2.55 7.87,5.46 11.8,8.19 -0.57,0.97 -1.13,1.94 -1.69,2.92 -5.58,-0.27 -10.55,-3.64 -13.9,-7.93 -0.06,-1.18 -0.04,-2.35 0.05,-3.52 z"
       inkscape:connector-curvature="0"
       style="fill:#ffffff" />
    <path
       id="path3776"
       d="m 448.5,203.15 c 0.9,0.04 2.69,0.13 3.58,0.17 2.44,10.28 0.78,20.85 1.17,31.28 -0.97,0.03 -1.92,0.07 -2.88,0.11 -0.79,-10.51 -1.19,-21.04 -1.87,-31.56 z"
       inkscape:connector-curvature="0"
       style="fill:#ffffff" />
    <path
       id="path3778"
       d="m 531.23,203.74 c 0.56,-0.03 1.67,-0.08 2.23,-0.11 1.12,11.92 3.75,24.22 0.08,35.99 -0.58,-0.02 -1.75,-0.06 -2.34,-0.08 0.01,-11.93 -0.04,-23.86 0.03,-35.8 z"
       inkscape:connector-curvature="0"
       style="fill:#ffffff" />
    <path
       id="path3780"
       d="m 462.75,209.86 c 0.62,-2.31 3.11,-2.75 5.15,-2.93 16.67,0.57 33.38,0.21 50.07,0.38 2.47,-0.12 4.08,2.21 4.2,4.47 0.28,4.49 0.71,9.17 -0.88,13.49 -2.04,0.66 -4.11,1.29 -6.27,1.22 -15.32,0.04 -30.64,-0.16 -45.96,-0.04 -3.12,0.21 -6.04,-2.26 -6.33,-5.37 -0.34,-3.73 -0.33,-7.5 0.02,-11.22 z"
       inkscape:connector-curvature="0"
       style="fill:#ffffff" />
    <path
       id="path3782"
       d="m 775.69,214.9 c 3.32,-2.97 7.1,-5.63 11.25,-7.27 0.73,0.2 2.18,0.61 2.9,0.82 -0.21,1.16 -0.2,2.39 -0.64,3.5 -3.17,2.36 -6.67,4.22 -10.09,6.17 -1.96,1.53 -4.86,-1.06 -3.42,-3.22 z"
       inkscape:connector-curvature="0"
       style="fill:#ffffff" />
    <path
       id="path3784"
       d="m 466.21,212.95 c 0.42,-2.67 3.3,-3.87 5.74,-3.65 14.02,0.17 28.05,0.32 42.07,0.25 2.18,-0.31 4.42,0.9 5.23,2.98 0.79,3.29 1.06,7.04 -0.92,9.99 -4.35,1.14 -8.87,0.68 -13.3,0.75 -11.34,0.04 -22.69,-0.15 -34.02,-0.05 -5.13,0.03 -6,-6.48 -4.8,-10.27 z"
       inkscape:connector-curvature="0"
       style="fill:#ffffff" />
    <path
       id="path3786"
       d="m 181.99,213.14 c 1.77,-3.95 5.6,-0.3 8.08,0.83 1.79,0.84 0.02,2.85 -0.14,4.17 -2.78,-1.44 -5.41,-3.16 -7.94,-5 z"
       inkscape:connector-curvature="0"
       style="fill:#ffffff" />
    <path
       id="path3788"
       d="m 194.98,214.8 c 0.53,-0.42 1.6,-1.26 2.13,-1.68 2.91,0.84 5.5,2.45 8.16,3.86 0.48,1.41 0.95,2.82 1.42,4.23 -1.37,0.42 -2.73,0.85 -4.09,1.28 -2.86,-2.22 -5.25,-4.96 -7.62,-7.69 z"
       inkscape:connector-curvature="0"
       style="fill:#ffffff" />
    <path
       id="path3790"
       d="m 212.19,232.92 c 2.07,-5.85 6.74,-10.25 10.85,-14.72 6.41,1.22 12.89,2.28 19.1,4.36 19.1,6.05 37.72,14.33 53.78,26.44 6.31,4.87 5.68,15.62 -1.01,19.86 -1.97,1.69 -4.64,1.56 -6.83,0.37 -23.8,-10.23 -47.59,-20.47 -71.29,-30.93 -2.13,-1.07 -5.54,-2.31 -4.6,-5.38 z"
       inkscape:connector-curvature="0"
       style="fill:#ffffff" />
    <path
       id="path3792"
       d="m 675.72,257.67 c 22.75,-19.66 50.55,-33.81 80.26,-39.07 3.04,-0.65 6.05,1.33 6.91,4.27 1.33,3.86 3.33,7.45 4.83,11.24 0.93,2.14 -1.54,3.53 -3.09,4.39 -25.92,12.19 -51.93,24.22 -77.88,36.34 -2.14,1.1 -5.33,1.59 -6.81,-0.78 -2.36,-3.88 -4.66,-7.86 -6.38,-12.08 0.63,-1.47 1.1,-3.07 2.16,-4.31 z"
       inkscape:connector-curvature="0"
       style="fill:#ffffff" />
    <path
       id="path3794"
       d="m 178.9,224.97 c -1.63,-2.1 0.19,-4.45 1.91,-5.78 4.78,0.91 9.54,2.16 14.02,4.13 2.61,0.87 3.96,4.44 2.62,6.76 -1.8,1.36 -4.17,3.87 -6.55,2.3 -4.05,-2.38 -8.28,-4.54 -12,-7.41 z"
       inkscape:connector-curvature="0"
       style="fill:#ffffff" />
    <path
       id="path3796"
       d="m 859.83,220.91 1.56,-0.48 c 2.89,2.96 5.04,6.56 7.35,9.99 22.99,36.33 40.72,76.07 51.48,117.72 8.86,34.56 13.19,70.26 13.17,105.93 0.12,29.45 -3.97,58.69 -8.53,87.72 -2.52,15.83 -5.41,31.6 -8.76,47.28 -5.61,25.44 -16.21,49.51 -28.94,72.15 -8.52,15.06 -17.37,29.94 -26.12,44.88 -0.61,1.17 -2.27,0.4 -3.32,0.68 -0.15,-30.6 0.59,-61.17 0.47,-91.77 0.14,-44.98 0.32,-89.97 0.41,-134.95 0.49,-31.02 -0.17,-62.07 0.57,-93.08 0.15,-55.36 0.23,-110.72 0.66,-166.07 z"
       inkscape:connector-curvature="0"
       style="fill:#ffffff" />
    <path
       id="path3798"
       d="m 782.08,228.93 c 5.23,-6.02 14.62,-8.53 21.69,-4.24 -3.47,3.45 -7.52,7.32 -12.79,7.14 -3.25,0.21 -6.15,-1.41 -8.9,-2.9 z"
       inkscape:connector-curvature="0"
       style="fill:#ffffff" />
    <path
       id="path3800"
       d="m 107.51,243.46 c 2.08,-3.69 3.85,-7.83 7.53,-10.25 1.4,8.23 0.48,16.59 0.9,24.88 0.39,5.96 0.14,11.94 0.2,17.91 0.01,26.67 0.01,53.33 0,80 0.17,41.34 0.32,82.68 0.55,124.02 0.27,18 -0.2,36.01 0.55,54 0.07,23.98 0.11,47.97 0.41,71.95 -0.03,29.8 0.85,59.58 0.62,89.38 -0.5,0.11 -1.48,0.33 -1.98,0.45 C 102.84,679.27 92.88,660.16 84.53,640.64 69.05,603.11 58.6,563.45 54.35,523.05 c -1.77,-16.32 -2.92,-32.7 -3.16,-49.11 -0.88,-15.28 -0.3,-30.6 0.79,-45.85 2.75,-34.68 10.79,-68.72 21.19,-101.84 8.96,-28.54 20.15,-56.44 34.34,-82.79 z"
       inkscape:connector-curvature="0"
       style="fill:#ffffff" />
    <path
       id="path3802"
       d="m 460.74,247.56 c 10.65,-1.75 21.49,0.21 32.21,-0.65 10.78,0.08 21.59,-0.44 32.34,0.48 -5.24,2.9 -11.3,3.58 -17.17,4.11 -7.03,0.35 -14.09,1.08 -21.13,0.43 -8.84,-0.52 -18.06,-0.56 -26.25,-4.37 z"
       inkscape:connector-curvature="0"
       style="fill:#ffffff" />
    <path
       id="path3804"
       d="m 318.61,253.66 c 2.44,-0.88 5.1,-0.29 7.58,0.15 18.95,4.28 37.86,8.77 56.73,13.38 8.21,1.7 16.89,5.38 21.09,13.09 -6.28,4.66 -12.4,9.55 -18.82,14.02 -2.91,2.18 -6.78,1.51 -10.15,1.27 -6.35,-0.98 -12.77,0.37 -19.13,-0.51 -14.24,-1.54 -27.16,-8.15 -40.14,-13.72 -2.22,-0.87 -4.65,-2.58 -4.43,-5.28 0.16,-4.82 2.38,-9.27 3.39,-13.94 0.95,-2.91 1.33,-6.45 3.88,-8.46 z"
       inkscape:connector-curvature="0"
       style="fill:#ffffff" />
    <path
       id="path3806"
       d="m 470.35,256.49 c 14.55,0.13 29.12,-0.25 43.66,0.19 0.13,0.49 0.41,1.48 0.54,1.98 -14.74,0.15 -29.48,0.03 -44.23,0.06 0.01,-0.56 0.02,-1.67 0.03,-2.23 z"
       inkscape:connector-curvature="0"
       style="fill:#ffffff" />
    <path
       id="path3808"
       d="m 582.91,275.03 c 21.89,-5.6 43.96,-10.49 65.99,-15.51 2.66,-0.61 6.24,-0.84 7.78,1.95 2.06,3.91 2.87,8.33 4.52,12.42 1.05,3.44 3.17,6.96 2.13,10.65 -1.18,2.37 -3.95,3.05 -6.22,3.89 -11.63,3.96 -22.83,9.74 -35.21,10.97 -10.63,0.75 -21.3,-0.41 -31.85,-1.42 -7.18,-4.6 -14.15,-9.61 -21.04,-14.65 4.46,-3.01 8.49,-7.06 13.9,-8.3 z"
       inkscape:connector-curvature="0"
       style="fill:#ffffff" />
    <path
       id="path3810"
       d="m 474.56,264.45 c 11.26,-0.5 22.58,-0.48 33.84,-0.01 -10.66,4.18 -23.17,4.13 -33.84,0.01 z"
       inkscape:connector-curvature="0"
       style="fill:#ffffff" />
    <path
       id="path3812"
       d="m 468.03,275.51 c 0.66,0.18 1.99,0.55 2.66,0.73 0.15,6.03 -0.75,12.23 -1.17,18.32 -1.01,-0.08 -2,-0.15 -2.99,-0.22 0.38,-6.29 0.96,-12.56 1.5,-18.83 z"
       inkscape:connector-curvature="0"
       style="fill:#ffffff" />
    <path
       id="path3814"
       d="m 499.71,277.75 c 2.43,-1.24 6.58,-4.11 8.28,-0.52 -2.75,2.75 -5.34,5.66 -8,8.49 -2.62,-1.96 -3.27,-6.03 -0.28,-7.97 z"
       inkscape:connector-curvature="0"
       style="fill:#ffffff" />
    <path
       id="path3816"
       d="m 468.47,277.1 c 0.32,0.04 0.95,0.12 1.27,0.16 0.96,5.5 -0.71,11.24 -0.52,16.86 l -2.12,0.05 c 0.53,-5.69 0.56,-11.43 1.37,-17.07 z"
       inkscape:connector-curvature="0"
       style="fill:#ffffff" />
    <path
       id="path3818"
       d="m 476.09,276.54 c 2.68,0.28 5.41,0.76 7.75,2.2 0.05,2.78 -0.21,5.55 -0.7,8.29 -2.42,-3.45 -4.82,-6.92 -7.05,-10.49 z"
       inkscape:connector-curvature="0"
       style="fill:#ffffff" />
    <path
       id="path3820"
       d="m 503,290.97 c 0.42,-2.72 2.62,-4.67 4.07,-6.88 3.76,2.4 1.51,7.54 2.04,11.24 -2.07,-1.33 -4.82,-2.16 -6.11,-4.36 z"
       inkscape:connector-curvature="0"
       style="fill:#ffffff" />
    <path
       id="path3822"
       d="m 445.32,292.67 c 6.11,-2.68 12.24,-5.33 18.39,-7.93 -0.56,5.39 -1.15,10.79 -1.98,16.15 -5.45,-1.85 -10.84,-3.84 -16.27,-5.72 -0.05,-0.84 -0.1,-1.67 -0.14,-2.5 z"
       inkscape:connector-curvature="0"
       style="fill:#ffffff" />
    <path
       id="path3824"
       d="m 520.3,286.29 c 1.58,-0.09 3.29,-0.95 4.8,-0.1 3.98,1.77 7.82,3.9 11.3,6.53 -5.2,1.64 -10.28,5.3 -15.96,3.72 -0.73,-3.35 -0.69,-6.78 -0.14,-10.15 z"
       inkscape:connector-curvature="0"
       style="fill:#ffffff" />
    <path
       id="path3826"
       d="m 404.9,287.26 c 2.8,-0.84 6.02,0.89 6.64,3.79 2.34,8.49 1.35,17.49 -0.53,25.97 -5.97,-6.03 -11.74,-12.37 -18.84,-17.14 -2.18,-1.23 -3.96,-4.44 -1.68,-6.43 4.02,-3.45 9.4,-4.85 14.41,-6.19 z"
       inkscape:connector-curvature="0"
       style="fill:#ffffff" />
    <path
       id="path3828"
       d="m 416.74,289.97 c 5.96,0.78 11.09,5.32 11.46,11.53 -3.4,0.16 -7.56,1.18 -10.23,-1.59 -2.3,-2.8 -1.61,-6.63 -1.23,-9.94 z"
       inkscape:connector-curvature="0"
       style="fill:#ffffff" />
    <path
       id="path3830"
       d="m 544.92,301.17 c 4.46,-3.42 8.65,-7.2 13.32,-10.34 0.02,3.56 -0.54,7.13 -2.05,10.38 -3.6,1.86 -7.57,0.96 -11.27,-0.04 z"
       inkscape:connector-curvature="0"
       style="fill:#ffffff" />
    <path
       id="path3832"
       d="m 563.96,292.68 c 3.98,-1.49 8.54,-1.7 12.54,-0.17 2.69,1.62 4.33,4.44 6.41,6.72 -1.12,1.45 -2.34,2.83 -3.82,3.91 -5.89,4.43 -11.84,8.77 -17.7,13.22 -1.34,-7.93 -1.3,-16.42 2.57,-23.68 z"
       inkscape:connector-curvature="0"
       style="fill:#ffffff" />
    <path
       id="path3834"
       d="m 133.14,297.76 c 0.43,-2.69 3.75,-3.5 5.6,-5.12 1.8,1.85 3.65,3.66 5.5,5.47 -1.8,1.15 -3.62,2.28 -5.46,3.37 -2.04,-0.97 -4.02,-2.12 -5.64,-3.72 z"
       inkscape:connector-curvature="0"
       style="fill:#ffffff" />
    <path
       id="path3836"
       d="m 496.58,295.48 c 4.3,-1.09 7.53,2.91 11.21,4.46 -0.08,0.59 -0.25,1.76 -0.34,2.35 -3.21,0.12 -6.52,0.47 -9.56,-0.8 -0.43,-2.01 -0.88,-4.01 -1.31,-6.01 z"
       inkscape:connector-curvature="0"
       style="fill:#ffffff" />
    <path
       id="path3838"
       d="m 474.2,298.01 c 3.17,-0.59 6.31,-1.39 9.49,-1.94 -0.23,1.78 0.5,4.15 -1.44,5.2 -2.18,2.21 -5.45,1.28 -7.91,0.16 -0.06,-1.14 -0.1,-2.28 -0.14,-3.42 z"
       inkscape:connector-curvature="0"
       style="fill:#ffffff" />
    <path
       id="path3840"
       d="m 526.83,300.66 c 4.77,-1.8 9.6,-3.52 14.57,-4.66 1.13,2.89 -0.81,5.49 -3.52,6.39 -3.2,0.72 -6.58,0.51 -9.77,-0.12 -0.32,-0.41 -0.96,-1.21 -1.28,-1.61 z"
       inkscape:connector-curvature="0"
       style="fill:#ffffff" />
    <path
       id="path3842"
       d="m 433.99,298.4 c 4.45,-3.02 9.31,0.62 13.69,1.91 -0.06,0.57 -0.17,1.71 -0.23,2.28 -3.67,0.04 -7.39,0.41 -11.02,-0.25 -1.23,-1 -1.73,-2.59 -2.44,-3.94 z"
       inkscape:connector-curvature="0"
       style="fill:#ffffff" />
    <path
       id="path3844"
       d="m 169.01,302 c 8.52,-3.08 19.01,-2.45 26.37,3.16 -8.84,0.58 -18.32,1.29 -26.37,-3.16 z"
       inkscape:connector-curvature="0"
       style="fill:#ffffff" />
    <path
       id="path3846"
       d="m 316.58,301.86 c 8.79,-0.75 17.54,-2.58 26.4,-2.11 11.72,0.8 22.77,5.08 33.94,8.36 2.63,0.5 3.55,3.31 4.74,5.37 3.08,6.52 6.66,12.82 9.29,19.54 -5.66,0.22 -11.31,0.88 -16.98,0.68 -13.99,-0.28 -27.99,-0.21 -41.98,-0.55 -6.2,-0.15 -12.47,0.41 -18.61,-0.72 -3.69,-0.88 -5.06,-5.04 -4.65,-8.44 0.39,-6.75 -0.77,-13.65 0.83,-20.28 2.18,-1.12 4.58,-1.65 7.02,-1.85 z"
       inkscape:connector-curvature="0"
       style="fill:#ffffff" />
    <path
       id="path3848"
       d="m 239.39,301.52 c 15.36,-0.88 30.7,1.41 45.63,4.82 3.78,0.62 6.82,3.73 7.23,7.57 0.25,4 0.42,8.08 -0.18,12.06 -0.29,2.46 -2.6,4.06 -5,3.84 -14.35,0.04 -28.69,-0.6 -43.04,-0.66 -10.72,-0.79 -21.5,-0.1 -32.21,-1.03 -0.21,-0.22 -0.63,-0.67 -0.84,-0.89 -1.14,-3.95 -1.68,-8.05 -2.13,-12.13 -0.75,-3.99 2.19,-8 5.97,-9.1 7.94,-2.57 16.25,-4.01 24.57,-4.48 z"
       inkscape:connector-curvature="0"
       style="fill:#ffffff" />
    <path
       id="path3850"
       d="m 386.93,302.2 c 3.66,2.02 7.34,4.01 11.03,6.01 -0.42,0.53 -1.26,1.6 -1.68,2.13 -4.12,-0.39 -8.39,-1.7 -10.89,-5.22 0.38,-0.73 1.15,-2.19 1.54,-2.92 z"
       inkscape:connector-curvature="0"
       style="fill:#ffffff" />
    <path
       id="path3852"
       d="m 593.9,305.98 c 1.19,-1.09 2.11,-2.77 3.83,-3.09 3.51,-0.33 7.03,0.18 10.53,0.49 0.05,0.66 0.15,1.99 0.2,2.65 -3.79,0.96 -7.45,2.72 -11.41,2.76 -1.16,-0.82 -2.13,-1.85 -3.15,-2.81 z"
       inkscape:connector-curvature="0"
       style="fill:#ffffff" />
    <path
       id="path3854"
       d="m 122.1,304.96 c 5.44,-0.77 12.11,-1.92 15.9,3.16 -3.24,0.82 -6.63,1.98 -9.98,1.06 -2.4,-0.69 -4.21,-2.49 -5.92,-4.22 z"
       inkscape:connector-curvature="0"
       style="fill:#ffffff" />
    <path
       id="path3856"
       d="m 141.57,305.68 c 9.22,1.33 18.63,1.77 27.66,4.1 -9.15,2.14 -20.13,2.31 -27.66,-4.1 z"
       inkscape:connector-curvature="0"
       style="fill:#ffffff" />
    <path
       id="path3858"
       d="m 568.33,317.23 c 3.57,-5.3 8.9,-9.33 14.75,-11.85 1.97,-0.98 3.84,0.56 5.53,1.39 -0.2,1.99 0.46,4.81 -1.79,5.84 -5.88,2.89 -11.98,5.33 -18.13,7.58 -0.18,-0.98 -0.3,-1.97 -0.36,-2.96 z"
       inkscape:connector-curvature="0"
       style="fill:#ffffff" />
    <path
       id="path3860"
       d="m 420.89,307.23 c 0.44,-0.42 1.31,-1.27 1.74,-1.69 2.84,1.08 6.64,0.79 8.63,3.4 0.37,3.35 -1.28,6.47 -2.16,9.61 -0.92,0.01 -1.84,0.01 -2.75,0.02 -1.87,-3.75 -4.02,-7.39 -5.46,-11.34 z"
       inkscape:connector-curvature="0"
       style="fill:#ffffff" />
    <path
       id="path3862"
       d="m 440.95,306.97 c 7.99,-0.87 16.06,-0.55 24.09,-0.53 3.5,-0.38 6.68,3.16 6.28,6.57 -0.23,19.79 0.71,39.64 -1.17,59.37 -1.32,-0.81 -2.61,-1.67 -3.75,-2.71 -12.87,-11.64 -24.45,-24.87 -33.25,-39.87 -2.59,-3.89 -0.53,-8.53 0.41,-12.61 1.21,-3.99 2.79,-9.11 7.39,-10.22 z"
       inkscape:connector-curvature="0"
       style="fill:#ffffff" />
    <path
       id="path3864"
       d="m 504.61,307.71 c 1.66,-0.78 3.41,-1.5 5.31,-1.34 8.04,0.06 16.09,-0.04 24.14,0.04 2.34,-0.3 4.1,1.81 4.18,4.01 0.44,5.29 1.24,10.55 2.08,15.8 -9.25,16.31 -20.7,31.83 -35.44,43.62 -0.56,-1.91 -1.22,-3.83 -1.14,-5.84 0.08,-13.98 -0.17,-27.95 -0.09,-41.93 0.12,-4.8 -0.55,-9.72 0.96,-14.36 z"
       inkscape:connector-curvature="0"
       style="fill:#ffffff" />
    <path
       id="path3866"
       d="m 598.82,314.58 c 9.18,-3.33 18.15,-8.3 28.15,-8.32 10.9,-0.34 21.33,3.32 31.91,5.31 2.73,0.61 6.08,1.06 7.55,3.8 1.49,2.78 0.07,5.86 -0.12,8.77 -0.77,4.02 -0.27,8.18 -1.13,12.18 -0.75,2.72 -3.9,2.56 -6.16,2.53 -12.33,-0.37 -24.67,-0.47 -36.98,-1.09 -12.51,-0.3 -25.04,-0.28 -37.52,-1.18 3.34,-6.37 6.42,-12.87 9.79,-19.22 0.79,-1.79 2.94,-2.02 4.51,-2.78 z"
       inkscape:connector-curvature="0"
       style="fill:#ffffff" />
    <path
       id="path3868"
       d="m 478.23,307.12 c 2.24,0.12 2.86,3.17 3.34,5 0.17,18.33 -0.24,36.68 -0.88,55 0.04,2.21 -1.53,3.93 -2.54,5.76 -1.6,-2.38 -3.39,-4.83 -3.26,-7.86 -0.22,-14.33 -0.02,-28.66 -0.13,-42.99 0.05,-5.11 -0.63,-11.04 3.47,-14.91 z"
       inkscape:connector-curvature="0"
       style="fill:#ffffff" />
    <path
       id="path3870"
       d="m 486.42,307.16 c 0.67,0.06 2,0.19 2.67,0.25 1.05,5.15 0.56,10.42 0.67,15.63 0.12,11.29 -0.18,22.58 0.28,33.85 0.12,5.46 2.07,11.82 -2.42,16.13 -1.18,-1.85 -3.06,-3.61 -2.95,-5.97 0.03,-7 -0.08,-14.01 0.43,-20.99 0.31,-10.67 0.01,-21.35 0.25,-32.01 -0.02,-2.35 0.43,-4.65 1.07,-6.89 z"
       inkscape:connector-curvature="0"
       style="fill:#ffffff" />
    <path
       id="path3872"
       d="m 175.82,308.71 c 7.49,0.82 15.05,0.79 22.52,1.81 -3.31,2.45 -6.95,5.5 -11.37,4.89 -4.41,-0.75 -7.76,-4.04 -11.15,-6.7 z"
       inkscape:connector-curvature="0"
       style="fill:#ffffff" />
    <path
       id="path3874"
       d="m 493.29,312.89 c -0.33,-2.63 2.24,-4.14 3.64,-5.96 1.34,1.78 3.48,3.44 3.23,5.94 0.47,17.73 -0.15,35.47 -0.01,53.21 0.27,2.83 -1.49,5.11 -3.19,7.15 -1,-1.63 -2.58,-3.09 -2.61,-5.11 -0.57,-18.4 -0.87,-36.82 -1.06,-55.23 z"
       inkscape:connector-curvature="0"
       style="fill:#ffffff" />
    <path
       id="path3876"
       d="m 543.39,308.45 c 3.18,-0.82 6.47,-1.06 9.75,-1.1 0.13,0.58 0.4,1.74 0.54,2.32 -2.88,3.57 -5.11,7.65 -8.25,10.99 -0.67,-0.22 -2,-0.66 -2.67,-0.88 -0.06,-3.79 -0.64,-7.67 0.63,-11.33 z"
       inkscape:connector-curvature="0"
       style="fill:#ffffff" />
    <path
       id="path3878"
       d="m 718.45,310.83 c 5.15,-1.07 10.4,-0.02 15.6,-0.04 9.7,0.72 19.46,0.86 29.1,2.25 8.48,1.5 12.22,12.73 7.45,19.53 -1.23,2.39 -4.08,2.99 -6.53,3.02 -24.69,1.1 -49.41,1.15 -74.09,2.41 -3.08,0.41 -7.7,0.18 -8.47,-3.6 -0.53,-4.37 -0.23,-8.9 0.62,-13.22 0.57,-3.28 4.07,-4.45 6.92,-4.99 9.76,-2.01 19.62,-3.48 29.4,-5.36 z"
       inkscape:connector-curvature="0"
       style="fill:#ffffff" />
    <path
       id="path3880"
       d="m 787.44,312.62 c 4.69,0.01 9.39,-0.01 14.08,0.02 -0.07,0.71 -0.13,1.43 -0.18,2.15 -4.66,0.02 -9.32,0.03 -13.97,-0.01 0.02,-0.54 0.05,-1.62 0.07,-2.16 z"
       inkscape:connector-curvature="0"
       style="fill:#ffffff" />
    <path
       id="path3882"
       d="m 808.7,312.82 c 3.6,-0.31 7.21,-0.52 10.82,-0.73 0.02,0.69 0.05,2.06 0.07,2.74 -3.79,0.1 -7.59,0.13 -11.37,-0.1 0.12,-0.48 0.36,-1.44 0.48,-1.91 z"
       inkscape:connector-curvature="0"
       style="fill:#ffffff" />
    <path
       id="path3884"
       d="m 132.25,314.53 c 3.43,-0.19 6.87,-0.15 10.29,0.06 0.65,0.88 1.29,1.78 1.94,2.67 -0.8,0.76 -1.61,1.5 -2.41,2.26 -3.21,-0.36 -6.38,-0.96 -9.57,-1.44 -0.09,-1.18 -0.17,-2.37 -0.25,-3.55 z"
       inkscape:connector-curvature="0"
       style="fill:#ffffff" />
    <path
       id="path3886"
       d="m 386.48,313.45 c 7.79,0.05 15.79,3.15 20.97,9.07 2.21,2.4 2.63,5.78 1.97,8.87 -10.89,1.74 -21.63,-7.16 -22.94,-17.94 z"
       inkscape:connector-curvature="0"
       style="fill:#ffffff" />
    <path
       id="path3888"
       d="m 123.17,329.01 c -0.01,-4.92 -0.12,-9.85 0.51,-14.73 2.95,1.09 3.09,4.89 5.57,6.59 3.29,2.97 7.96,2.6 11.98,3.71 1.49,2.17 1.64,5.43 4.22,6.74 3.36,1.35 7.06,0.75 10.59,1.02 11.32,0.67 22.6,2.81 33.97,1.96 6.34,-0.58 12.61,-1.97 19,-2 26.34,-0.06 52.66,0.72 78.98,1.41 3.97,0.38 7.12,3.22 10.98,4.02 7.22,1.69 14.78,2.63 22.14,1.21 5.56,-1.11 11.21,-1.56 16.88,-1.47 22.69,-0.12 45.37,-0.99 68.07,-0.84 3.32,-0.2 7.7,1.31 7.66,5.28 0.01,16.69 -1.53,33.39 -0.71,50.09 0.08,5.77 2.73,11.12 6.23,15.58 6.69,8.74 9.39,19.73 10.77,30.45 1.15,9.64 2.41,19.27 4.33,28.79 0.83,3.68 0.45,8.21 -3.2,10.25 -4.22,2.49 -7.43,6.55 -8.39,11.41 -1.76,9.42 -0.83,19.06 -0.97,28.57 0.03,2.45 -2.33,3.86 -4.35,4.61 -3.57,1.37 -7.63,2.83 -9.45,6.49 -8.85,17.56 -17.6,35.18 -25.27,53.29 -6.96,16.35 -12.19,33.36 -17.77,50.22 -1.39,4.36 -0.54,8.99 -0.5,13.47 -4.65,0.93 -9.92,1.29 -13.46,4.84 -3.53,3.67 -5.22,8.6 -7.5,13.05 3.6,3.68 7.89,6.54 11.84,9.82 -6.91,3.66 -13.45,8.1 -20.85,10.73 -4.35,1.43 -8.66,4.07 -10.28,8.59 -14.37,33.68 -30.55,66.67 -42.13,101.47 -2.44,7.23 -3.37,14.87 -5.59,22.17 -1.39,4.78 -5.54,8.32 -10.27,9.61 -4.79,1.41 -9.89,3.11 -12.83,7.48 -4.5,-0.36 -7.58,-3.84 -10.95,-6.4 -16.34,-12.9 -33.26,-25.18 -48.19,-39.75 -23.28,-23.19 -43.77,-48.93 -65.02,-73.94 -4.72,-6.23 -3.27,-14.53 -3.61,-21.82 -1.18,-53.31 -0.84,-106.64 -1.16,-159.97 0.01,-30.34 -0.13,-60.67 -0.31,-91.01 -0.59,-36.99 -0.69,-73.99 -0.96,-110.99 z"
       inkscape:connector-curvature="0"
       style="fill:#ffffff" />
    <path
       id="path3890"
       d="m 147.59,314.48 c 6.45,0.34 12.87,1.22 19.28,2.05 -0.02,3.23 -3.41,3.1 -5.77,3.56 -5.14,0.69 -10.3,-1.6 -13.51,-5.61 z"
       inkscape:connector-curvature="0"
       style="fill:#ffffff" />
    <path
       id="path3892"
       d="m 173.78,316.15 c 2.62,-0.01 5.22,0.27 7.8,0.64 0.01,1 0.02,2 0.03,3.01 -3,1.12 -6,2.23 -9.03,3.25 0.41,-2.31 0.82,-4.6 1.2,-6.9 z"
       inkscape:connector-curvature="0"
       style="fill:#ffffff" />
    <path
       id="path3894"
       d="m 548.25,327.88 c 0.15,-4.58 3.68,-8.07 5.75,-11.91 0.56,0.27 1.68,0.82 2.25,1.09 0.57,5.43 0.65,10.91 1.16,16.36 -1.14,0.41 -2.27,0.83 -3.4,1.24 -1.94,-2.2 -4.84,-3.89 -5.76,-6.78 z"
       inkscape:connector-curvature="0"
       style="fill:#ffffff" />
    <path
       id="path3896"
       d="m 570.17,324.08 c 5.2,-3.28 11.36,-4.78 17.45,-5.06 -1.44,11.33 -13.43,19.66 -24.57,17.06 -0.35,-5.07 3.06,-9.4 7.12,-12 z"
       inkscape:connector-curvature="0"
       style="fill:#ffffff" />
    <path
       id="path3898"
       d="m 788.28,322.48 c 0.11,-1.01 0.23,-2.01 0.36,-3.01 6.51,0.27 13,0.96 19.51,1.3 0.38,0.55 1.14,1.65 1.52,2.21 -0.55,0.97 -1.09,1.94 -1.62,2.93 -6.69,-0.51 -13.2,-2.23 -19.77,-3.43 z"
       inkscape:connector-curvature="0"
       style="fill:#ffffff" />
    <path
       id="path3900"
       d="m 174.4,329.52 c 4.24,-4.19 10.21,-8.5 16.47,-6.28 2.78,0.69 4.18,3.29 5.36,5.66 -1.66,0.87 -3.11,2.64 -5.13,2.43 -5.58,-0.38 -11.17,-0.91 -16.7,-1.81 z"
       inkscape:connector-curvature="0"
       style="fill:#ffffff" />
    <path
       id="path3902"
       d="m 842.33,334.28 c 2.94,-2.57 6.11,-4.87 9.17,-7.3 0.44,21.66 0.15,43.34 0.15,65.01 0.02,46.01 -0.19,92.02 -0.26,138.04 0.05,38.3 -0.7,76.59 -0.78,114.89 -0.05,21.7 -0.44,43.39 -0.44,65.09 0.11,4.93 -0.99,10.04 -4.14,13.96 -28.82,37.21 -62.92,70.03 -98.98,100.14 -3.24,2.95 -6.94,-0.12 -9.15,-2.68 -5.47,0.84 -9.62,4.86 -14.81,6.48 -13.61,5.22 -28.62,3.3 -42.31,-0.51 -1.02,-5.23 -1.28,-10.71 -3.66,-15.55 -14.46,-29.43 -29.12,-58.76 -43.76,-88.09 -4.48,-9.36 -9.75,-18.41 -12.9,-28.34 -0.95,-2.47 -1.52,-5.7 -4.33,-6.71 -1.71,-0.23 -3.35,0.39 -4.99,0.72 0.47,-11.98 0.54,-24.04 -0.77,-35.98 -2.86,-0.38 -5.73,-0.2 -8.57,0.09 -0.86,-5.06 -1.42,-10.24 -3.3,-15.06 -7.67,-20.19 -15.89,-40.17 -23.44,-60.4 -7.61,-20.37 -15.04,-40.82 -21.97,-61.44 -1.39,-4.11 -3.07,-8.27 -2.78,-12.7 -0.13,-6.13 1.71,-12.64 -0.87,-18.48 -2.02,-5.4 -9.88,-6.86 -9.54,-13.42 2.64,-18.41 5.23,-36.85 8.37,-55.18 0.8,-5.14 4.23,-9.23 7.52,-13.03 3.29,-3.8 4.53,-8.92 4.41,-13.86 -0.13,-14.01 0.17,-28.02 0.67,-42.01 -0.07,-3.23 2.73,-6.27 6.02,-6.13 9.7,0.06 19.42,-0.29 29.11,0.32 14.68,0.03 29.36,0.13 44.04,0.23 8.33,0.2 16.81,-0.19 24.91,2.14 3.03,0.8 5.78,2.48 8.89,3.05 3.8,0.58 7.77,0.21 11.34,-1.28 5.57,-2.21 11.39,-3.86 17.38,-4.4 20.83,-1.01 41.68,-1.28 62.53,-1.81 5.81,0 11.15,-3.89 17.02,-2.39 3.23,0.81 5.34,4.34 8.89,4.05 12.33,0.03 24.66,-0.04 36.99,-0.24 2.95,-0.1 6,0.29 8.89,-0.49 3.15,-0.93 3.09,-4.91 5.45,-6.73 z"
       inkscape:connector-curvature="0"
       style="fill:#ffffff" />
    <path
       id="path3904"
       d="m 786.07,330.53 c 0.73,-0.23 2.2,-0.7 2.93,-0.94 4.15,1.3 7.7,3.99 11.33,6.33 -3.55,1.4 -8.1,3.01 -11.39,0.19 -1.97,-1.22 -2.7,-3.39 -2.87,-5.58 z"
       inkscape:connector-curvature="0"
       style="fill:#ffffff" />
    <path
       id="path3906"
       d="m 419.44,339.89 c -0.18,-4.37 4.09,-6.81 6.65,-9.69 1.98,1.56 4.06,3.04 5.78,4.91 10.56,12.52 20.11,25.88 30.96,38.17 -9.59,2.61 -19.39,4.57 -28.69,8.15 -5.15,1.8 -10.08,4.25 -15.37,5.64 -0.69,-15.71 0.09,-31.47 0.67,-47.18 z"
       inkscape:connector-curvature="0"
       style="fill:#ffffff" />
    <path
       id="path3908"
       d="m 509.11,375.07 c 11.5,-14.36 23.16,-28.59 34.73,-42.9 4.11,3.51 10.07,5.57 12.5,10.63 0.29,9.38 0.01,18.79 -0.08,28.18 -0.24,5.67 0.4,11.48 -1.39,16.97 -3.75,-0.46 -7.31,-1.76 -10.92,-2.79 -11.62,-3.35 -23.23,-6.73 -34.84,-10.09 z"
       inkscape:connector-curvature="0"
       style="fill:#ffffff" />
    <path
       id="path3910"
       d="m 474.82,383.91 c 0.04,-2.57 1.78,-4.61 3.04,-6.71 1.92,2.61 4.3,5.3 3.91,8.8 -0.24,3.02 0.8,6.59 -1.12,9.22 -0.32,17.35 0.09,34.72 -0.38,52.07 -0.54,1.59 -1.3,3.42 -3.08,3.94 -1.33,-1.46 -3.18,-2.92 -3.01,-5.11 -0.11,-20.73 0.28,-41.47 0.64,-62.21 z"
       inkscape:connector-curvature="0"
       style="fill:#ffffff" />
    <path
       id="path3912"
       d="m 422.16,391.16 c 13.19,-8.22 28.69,-11.55 43.9,-13.59 2.19,-0.58 4.49,1 4.39,3.33 0.06,19.69 -0.02,39.4 0.03,59.09 -0.06,2.73 0.14,5.65 -1.22,8.14 -1.22,2.11 -3.96,1.22 -5.78,0.51 -7,-3.19 -13.61,-7.6 -18.44,-13.67 -8.43,-10.73 -15.79,-22.24 -23.65,-33.39 -1.24,-1.73 -2.11,-3.68 -2.9,-5.64 0.84,-1.84 1.81,-3.77 3.67,-4.78 z"
       inkscape:connector-curvature="0"
       style="fill:#ffffff" />
    <path
       id="path3914"
       d="m 484.73,381.71 c 0.56,-1.39 1.14,-3.79 3.08,-3.56 1,0.81 1.89,1.76 2.79,2.68 0.42,16.74 -0.38,33.48 -0.48,50.22 -0.82,7.06 0.41,14.29 -1.44,21.23 -0.58,0.06 -1.72,0.19 -2.3,0.26 -0.63,-1.8 -1.55,-3.53 -1.67,-5.45 -0.36,-18.01 0.88,-35.99 0.52,-54 -0.21,-3.79 -0.84,-7.58 -0.5,-11.38 z"
       inkscape:connector-curvature="0"
       style="fill:#ffffff" />
    <path
       id="path3916"
       d="m 496.46,378.77 c 4.11,2.55 3,8.07 2.88,12.14 0.88,16.36 0.34,32.78 0.34,49.16 0.17,3.67 -1.64,6.95 -3.3,10.09 -1.51,-3.56 -3.21,-7.22 -2.89,-11.18 0.37,-10.65 0.05,-21.3 0.38,-31.95 0.58,-7.67 0.19,-15.38 0.69,-23.05 0.07,-1.9 1.19,-3.52 1.9,-5.21 z"
       inkscape:connector-curvature="0"
       style="fill:#ffffff" />
    <path
       id="path3918"
       d="m 503.75,380.99 c 0.52,-0.39 1.55,-1.17 2.06,-1.56 5.74,0.11 11.12,2.34 16.58,3.89 9.77,3.12 19.49,6.45 29.11,10.03 2.7,0.67 4.12,4.01 1.83,6.02 -12.12,12.86 -24.37,25.6 -36.66,38.31 -3.91,3.86 -7.18,8.61 -12.3,11.01 -1.36,-5.79 -0.9,-11.78 -1.08,-17.67 -0.22,-11.01 0.2,-22.04 -0.43,-33.05 0.01,-5.67 -0.39,-11.41 0.89,-16.98 z"
       inkscape:connector-curvature="0"
       style="fill:#ffffff" />
    <path
       id="path3920"
       d="m 514.4,449.35 c 9.23,-9.06 18.12,-18.45 27.34,-27.52 -0.01,12.68 -1.81,25.36 -5.52,37.49 -1.32,0.48 -2.72,1.81 -4.18,0.98 -6.64,-2.6 -13.16,-5.49 -19.68,-8.37 0.41,-1.04 1.28,-1.79 2.04,-2.58 z"
       inkscape:connector-curvature="0"
       style="fill:#ffffff" />
    <path
       id="path3922"
       d="m 432.55,429.67 c 0.5,-0.09 1.5,-0.28 2,-0.37 6.78,7.57 13.46,15.22 20.26,22.77 -4.25,1.53 -8.43,3.34 -12.83,4.37 -2.55,0.8 -5.14,-1.55 -5.58,-3.95 -1.63,-7.54 -2.53,-15.22 -3.85,-22.82 z"
       inkscape:connector-curvature="0"
       style="fill:#ffffff" />
    <path
       id="path3924"
       d="m 439.59,461.91 c 9.16,-2.97 17.92,-8.14 27.85,-7.82 0.04,9.1 0.04,18.2 -0.03,27.3 -1.97,2.07 -4.03,4.64 -7.17,4.64 -5.18,0.34 -10.82,0.83 -15.56,-1.73 -3.47,-2.12 -4.64,-6.36 -5.18,-10.14 -0.46,-4.06 -1.49,-8.31 0.09,-12.25 z"
       inkscape:connector-curvature="0"
       style="fill:#ffffff" />
    <path
       id="path3926"
       d="m 502.47,457.86 c 0.18,-1.25 0.81,-2.36 1.28,-3.5 4.7,0.58 8.97,2.74 13.4,4.26 5.14,2.03 10.49,3.59 15.41,6.13 2.83,1.59 3.44,5.16 2.25,8 -1.64,4.51 -0.4,10.91 -5.34,13.54 -4.71,1.17 -9.57,-0.34 -14.33,-0.47 -4.52,-0.43 -9.47,0.94 -13.54,-1.64 -0.39,-1.71 -0.97,-3.43 -0.76,-5.19 0.53,-7.05 0.72,-14.12 1.63,-21.13 z"
       inkscape:connector-curvature="0"
       style="fill:#ffffff" />
    <path
       id="path3928"
       d="m 473.41,471.54 c -2.36,-2.4 0.83,-5.84 3.53,-5.77 5.05,-0.28 10.15,-0.16 15.17,0.52 2.51,0 3.66,2.6 5.03,4.29 -1.64,1.26 -3.16,2.75 -5.1,3.55 -3.35,0.57 -6.7,-0.56 -10.06,-0.39 -2.91,-0.22 -6.82,0.9 -8.57,-2.2 z"
       inkscape:connector-curvature="0"
       style="fill:#ffffff" />
    <path
       id="path3930"
       d="m 472.3,480.02 c 1.09,-0.82 2.2,-1.62 3.31,-2.42 5.2,0.04 10.38,0.54 15.55,1.08 2.38,0.08 3.61,2.38 4.96,4.02 -1.87,1.22 -3.59,3.12 -6.01,3 -4.75,-0.01 -9.6,0.42 -14.28,-0.54 -2.38,-0.56 -2.82,-3.2 -3.53,-5.14 z"
       inkscape:connector-curvature="0"
       style="fill:#ffffff" />
    <path
       id="path3932"
       d="m 430.32,485.16 c 1.39,-2.48 3.65,-4.3 5.96,-5.89 0.65,5.94 -0.73,11.82 -1.93,17.6 -1.13,4.46 -2.23,9.01 -4.35,13.13 -0.45,0.29 -1.33,0.89 -1.77,1.18 -3.34,-8.39 -2.47,-18.25 2.09,-26.02 z"
       inkscape:connector-curvature="0"
       style="fill:#ffffff" />
    <path
       id="path3934"
       d="m 537.22,480.91 c 3.03,1.79 6.28,3.76 7.76,7.14 2.13,4.75 1.03,10.09 0.67,15.09 0.04,3.27 -2.68,5.5 -4.48,7.92 -0.58,-0.22 -1.74,-0.65 -2.31,-0.87 -0.43,-9.77 -1.58,-19.5 -1.64,-29.28 z"
       inkscape:connector-curvature="0"
       style="fill:#ffffff" />
    <path
       id="path3936"
       d="m 437.73,493.22 c 1.56,-1.22 2.95,-2.81 4.88,-3.46 7.38,-0.46 14.75,0.37 22.11,0.84 0.74,0.8 1.5,1.6 2.19,2.47 -0.95,1.15 -2.11,2.52 -3.73,2.56 -5.76,0.19 -11.45,-0.92 -17.2,-1.06 -2.79,-0.21 -5.77,0.22 -8.25,-1.35 z"
       inkscape:connector-curvature="0"
       style="fill:#ffffff" />
    <path
       id="path3938"
       d="m 472.02,492.64 c 7.66,-2.15 16.92,-5.96 24.13,-0.71 -1.48,1.21 -2.77,2.82 -4.59,3.51 -3.11,0.66 -6.35,0.54 -9.42,1.43 -3.39,-1.37 -6.71,-2.9 -10.12,-4.23 z"
       inkscape:connector-curvature="0"
       style="fill:#ffffff" />
    <path
       id="path3940"
       d="m 499.92,493.27 c 0.17,-0.68 0.51,-2.02 0.68,-2.7 4.78,0.06 9.6,-0.27 14.36,0.43 5.29,0.78 10.76,0.52 15.91,2.12 1.75,0.54 3.59,1.92 3.72,3.9 0.49,5.12 -1.8,9.94 -3.45,14.66 -1.46,-2.74 -2.78,-5.6 -2.74,-8.76 0.01,-3.28 -3.15,-5.54 -6.24,-5.41 -5.69,0 -11.36,-0.43 -16.97,-1.39 -2.02,-0.37 -3.62,-1.74 -5.27,-2.85 z"
       inkscape:connector-curvature="0"
       style="fill:#ffffff" />
    <path
       id="path3942"
       d="m 444.46,502.89 c -1.15,-3.44 3.2,-4.64 5.51,-5.86 2.5,1.9 4.64,4.25 6.98,6.35 -2.05,1.51 -4.16,3.61 -6.94,3.13 -2.36,0.16 -4.93,-1.25 -5.55,-3.62 z"
       inkscape:connector-curvature="0"
       style="fill:#ffffff" />
    <path
       id="path3944"
       d="m 461.77,500.76 c 3.46,-1.14 7.17,-1.57 10.65,-0.23 1.15,3.28 2.18,7.12 0.48,10.39 -1.06,2.3 -2.42,6.19 -5.74,4.76 -4.65,-3.03 -8.49,-9.53 -5.39,-14.92 z"
       inkscape:connector-curvature="0"
       style="fill:#ffffff" />
    <path
       id="path3946"
       d="m 477.71,500.61 c 4.49,-1.02 9.38,-1.73 13.83,-0.27 3.74,1.57 3.01,6.33 2.95,9.61 -0.37,2.86 -0.2,6.73 -3.14,8.32 -3.8,1.19 -8.04,1.51 -11.89,0.38 -2.43,-0.59 -2.84,-3.51 -2.96,-5.61 -0.11,-4.15 -0.7,-8.57 1.21,-12.43 z"
       inkscape:connector-curvature="0"
       style="fill:#ffffff" />
    <path
       id="path3948"
       d="m 501.06,500.08 c 2.25,1.32 4.8,2.43 6.35,4.63 1.5,5.92 -2.95,11.46 -8.42,13.17 -0.14,-5.97 -2.67,-12.93 2.07,-17.8 z"
       inkscape:connector-curvature="0"
       style="fill:#ffffff" />
    <path
       id="path3950"
       d="m 511.23,504.8 c 1.16,-1.25 2.37,-2.44 3.62,-3.6 3.08,1.39 7.02,2.17 9.18,4.86 -2.38,2.04 -5.11,3.63 -7.78,5.24 -1.69,-2.16 -3.4,-4.29 -5.02,-6.5 z"
       inkscape:connector-curvature="0"
       style="fill:#ffffff" />
    <path
       id="path3952"
       d="m 446.63,515.39 c -1.94,-1.18 -1.6,-4.09 0.6,-4.73 4.18,0.22 8.15,1.82 12.16,2.92 -0.17,1.08 -0.35,2.16 -0.51,3.26 -4.1,-0.22 -8.3,-0.23 -12.25,-1.45 z"
       inkscape:connector-curvature="0"
       style="fill:#ffffff" />
    <path
       id="path3954"
       d="m 543.47,514.61 c 1.72,-0.87 4.66,-0.85 5.15,1.49 14.93,39.55 30.1,79.02 44.45,118.78 1.23,3.94 4.04,7.78 3.21,12.06 -2.54,3.44 -6.82,4.76 -10.43,6.74 -6.76,3.62 -14.01,6.17 -20.99,9.31 -2,0.83 -4.36,1.26 -6.41,0.41 -2.28,-1.39 -3.39,-3.94 -4.67,-6.15 -4.54,-8.46 -9.89,-16.52 -13.51,-25.43 -1.49,-5.11 -1.53,-10.53 -1.69,-15.81 2.1,-22 4.12,-44.02 6.5,-65.99 0.57,-6.68 2.11,-13.47 0.45,-20.11 -0.64,-3.91 -2.97,-7.19 -4.27,-10.85 -0.64,-1.86 0.43,-3.78 2.21,-4.45 z"
       inkscape:connector-curvature="0"
       style="fill:#ffffff" />
    <path
       id="path3956"
       d="m 508.98,517.78 c 4.17,-1.39 8.45,-2.66 12.83,-3.19 0.27,0.67 0.8,1.99 1.06,2.65 -3.93,0.84 -7.83,2.56 -11.9,2.2 -0.5,-0.41 -1.49,-1.24 -1.99,-1.66 z"
       inkscape:connector-curvature="0"
       style="fill:#ffffff" />
    <path
       id="path3958"
       d="m 428.47,523.47 c 4.87,-2.14 10.36,-2.68 15.63,-2.78 4.43,-0.05 6.8,4.09 8.57,7.53 -6.7,3.78 -13.58,7.23 -20.18,11.17 -1.91,1.27 -4.98,1.8 -6.18,-0.64 -2.77,-4.64 -3.6,-12.54 2.16,-15.28 z"
       inkscape:connector-curvature="0"
       style="fill:#ffffff" />
    <path
       id="path3960"
       d="m 455.75,521.77 c 2.75,-0.62 5.58,-1.73 8.43,-1.04 1.38,0.72 2.41,1.9 3.53,2.96 -0.53,1.55 -1.08,3.11 -1.64,4.67 -4.58,0.46 -9.27,-1.86 -10.32,-6.59 z"
       inkscape:connector-curvature="0"
       style="fill:#ffffff" />
    <path
       id="path3962"
       d="m 527.25,527.9 c 2.85,-2.21 5.36,-4.84 8.38,-6.81 1.3,1.58 2.38,3.33 3.48,5.07 -3.32,1.59 -6.64,3.2 -10.02,4.67 -0.46,-0.73 -1.38,-2.2 -1.84,-2.93 z"
       inkscape:connector-curvature="0"
       style="fill:#ffffff" />
    <path
       id="path3964"
       d="m 472.49,524.85 c 0.38,-0.54 1.15,-1.63 1.53,-2.17 7.21,0.36 14.44,0.83 21.62,1.63 -0.11,1.06 -0.22,2.13 -0.32,3.21 -6.9,-0.01 -13.8,0.04 -20.69,-0.08 -0.72,-0.87 -1.44,-1.73 -2.14,-2.59 z"
       inkscape:connector-curvature="0"
       style="fill:#ffffff" />
    <path
       id="path3966"
       d="m 503.68,526.13 c 6.84,-2.16 14.59,-4.06 21.29,-0.35 -2.17,1.16 -4.28,2.63 -6.79,2.89 -5,0.68 -9.75,-1.35 -14.5,-2.54 z"
       inkscape:connector-curvature="0"
       style="fill:#ffffff" />
    <path
       id="path3968"
       d="m 401.79,545.71 c 4.06,-7.96 8.87,-16.59 17.35,-20.49 1.08,6.25 2.54,12.44 3.45,18.73 0.71,2.45 -1.34,4.26 -2.4,6.21 -2.19,3.53 -2.69,7.8 -2.65,11.88 0.27,22.32 1.41,44.63 1.19,66.96 -0.78,7.55 -6.63,13.08 -11.02,18.82 -2.04,2.29 -3.56,5.38 -6.53,6.62 -2.91,0.54 -5.35,-1.48 -7.77,-2.71 -6.8,-4.06 -13.92,-7.52 -20.84,-11.33 -3.48,-1.71 -4.09,-5.96 -3.01,-9.34 8.33,-29.28 18.89,-57.97 32.23,-85.35 z"
       inkscape:connector-curvature="0"
       style="fill:#ffffff" />
    <path
       id="path3970"
       d="m 475.49,532.71 c 4.45,-0.91 9.06,-0.56 13.59,-0.51 2.12,-0.25 3.49,1.52 4.95,2.72 -1.1,1.87 -2.26,4.55 -4.92,4.25 -4.71,-0.33 -9.53,-0.36 -14.14,-1.35 -2.91,-0.66 -1.87,-4.5 0.52,-5.11 z"
       inkscape:connector-curvature="0"
       style="fill:#ffffff" />
    <path
       id="path3972"
       d="m 501.67,532.55 c 5.33,-0.82 10.75,-0.04 16.1,0.33 -0.42,1.39 -1.29,2.54 -2.62,3.17 -3.96,2.37 -7.99,4.63 -12.15,6.62 -1.32,-0.82 -2.62,-1.65 -3.91,-2.49 0.53,-2.63 0.92,-5.44 2.58,-7.63 z"
       inkscape:connector-curvature="0"
       style="fill:#ffffff" />
    <path
       id="path3974"
       d="m 535.26,532.98 c 1.73,-0.6 3.43,0.22 5.11,0.62 0.86,4.85 0.29,10.08 -2.64,14.17 -4.21,6.39 -12.71,10.16 -20.13,7.54 -1.67,-3.91 0.55,-7.95 2.23,-11.43 2.97,-5.93 8.99,-9.8 15.43,-10.9 z"
       inkscape:connector-curvature="0"
       style="fill:#ffffff" />
    <path
       id="path3976"
       d="m 447.07,536.15 c 6.53,-3.37 16.21,2.28 15.56,9.8 -2.22,3.69 -6.34,6.22 -10.66,6.49 -7.38,0.5 -15.02,-1.62 -20.77,-6.37 5.25,-3.36 10.3,-7.09 15.87,-9.92 z"
       inkscape:connector-curvature="0"
       style="fill:#ffffff" />
    <path
       id="path3978"
       d="m 505.94,548.19 c 2.58,-2.4 5.18,-4.78 7.86,-7.06 0.6,0.55 1.79,1.64 2.38,2.19 -1.76,2.57 -3.55,5.17 -5.76,7.38 -1.94,0.92 -3.08,-1.61 -4.48,-2.51 z"
       inkscape:connector-curvature="0"
       style="fill:#ffffff" />
    <path
       id="path3980"
       d="m 480.53,543.27 c 4.11,-0.06 8.24,-0.37 12.33,0.15 1.97,0.17 3.82,1.5 4.44,3.42 0.4,2.08 -0.7,3.97 -1.66,5.72 -3.49,5.91 -7.15,11.71 -10.74,17.57 -1.4,-8.97 -2.88,-17.92 -4.37,-26.86 z"
       inkscape:connector-curvature="0"
       style="fill:#ffffff" />
    <path
       id="path3982"
       d="m 462.46,575.46 c 5.29,-8.74 7.84,-18.73 11.62,-28.14 3.76,2.2 5.37,6.48 5.1,10.7 -0.69,17.32 -1.23,34.67 -3.29,51.9 -2.2,20.69 -5.59,41.46 -12.94,61.02 -1.08,2.64 -2.46,5.9 -5.56,6.59 -4.1,0.66 -8.25,-0.15 -12.38,-0.04 -4.31,0 -8.63,0.57 -12.93,0.1 -3.26,-0.41 -5.3,-3.68 -5.44,-6.76 -0.79,-9.96 -2.22,-19.89 -2.41,-29.89 -0.25,-4.53 1.86,-8.7 4.2,-12.42 11.26,-17.74 23.24,-35.02 34.03,-53.06 z"
       inkscape:connector-curvature="0"
       style="fill:#ffffff" />
    <path
       id="path3984"
       d="m 437.72,555.31 c 9.85,2.23 20.03,-0.29 29.29,-3.75 -8.16,27.53 -25.16,51.15 -41.78,74.13 -0.72,-0.15 -2.17,-0.46 -2.89,-0.62 -0.9,-19.68 -1.2,-39.4 -1.12,-59.1 0.4,-4.5 -0.46,-10.16 3.38,-13.37 4.62,-1.81 8.75,1.83 13.12,2.71 z"
       inkscape:connector-curvature="0"
       style="fill:#ffffff" />
    <path
       id="path3986"
       d="m 492.47,565.6 c 2.1,-4.73 5.37,-8.77 8.72,-12.66 2.99,0.57 5.98,2.24 7.27,5.12 1.9,4.48 0.01,9.29 0.26,13.94 0.27,15.88 7.47,30.5 15.49,43.83 4.12,7.29 10,14.33 9.97,23.16 -0.01,11.7 -0.89,23.4 -1.7,35.08 -0.05,3.01 -2.18,6.28 -5.49,6.16 -4.99,-0.76 -10.04,-1.34 -15.08,-0.75 -3.63,0.14 -7.56,1.7 -10.94,-0.31 -2.08,-1.15 -2.8,-3.54 -3.12,-5.72 -3.18,-25.89 -11.2,-51.19 -11.05,-77.46 0.41,-10.31 1.12,-20.95 5.67,-30.39 z"
       inkscape:connector-curvature="0"
       style="fill:#ffffff" />
    <path
       id="path3988"
       d="m 517.13,560.17 c 7.13,-1.41 14.42,-1.78 21.63,-2.61 -1.42,20.8 -2.6,41.63 -4.29,62.42 -8.78,-11.09 -17.13,-23.16 -20.35,-37.15 -1.13,-5.55 -1.94,-11.28 -1.18,-16.94 0.37,-2.35 1.5,-5.34 4.19,-5.72 z"
       inkscape:connector-curvature="0"
       style="fill:#ffffff" />
    <path
       id="path3990"
       d="m 479.12,617.13 c 1.05,-6.83 1.37,-13.89 4.08,-20.33 0.37,5.39 -0.31,10.83 0.55,16.2 3,20.63 6.11,41.24 9.57,61.79 0.58,5.28 2.09,10.79 0.66,16.05 -1.28,4.89 -8.15,4.79 -9.19,9.79 -1.1,4.69 -0.65,9.85 1.56,14.17 1.19,2.55 4.15,3.73 5.32,6.3 0.15,2.07 -0.67,4.05 -1.19,6.03 -2.72,8.92 -5.87,17.72 -9.54,26.3 -5.26,-7.3 -9.07,-15.53 -12.73,-23.71 -1.97,-4.31 -2.55,-9.25 -1.35,-13.85 2.09,-7.81 1.4,-15.96 1.57,-23.94 -3.41,-2.5 -5.48,-6.72 -3.82,-10.9 7.77,-20.51 11.39,-42.28 14.51,-63.9 z"
       inkscape:connector-curvature="0"
       style="fill:#ffffff" />
    <path
       id="path3992"
       d="m 405.84,657.8 c 4.46,-5.71 8.62,-11.76 13.96,-16.72 2.38,11.51 1.97,23.32 2.95,34.97 0.17,4.6 5.5,6.03 7.06,9.97 -3.28,3.59 -5.84,7.8 -6.26,12.76 -2.28,2.08 -4.22,4.97 -3.72,8.21 0.49,3.66 1.41,7.26 2.53,10.78 1.77,2.58 5.18,3.48 7.1,5.92 -0.76,5.46 -2.1,10.9 -4.88,15.71 -4.08,7.91 -3.71,17.12 -2.97,25.74 2.74,23.59 6.69,47.02 10.45,70.46 2.32,14.88 5.15,29.69 7.83,44.51 0.43,3.11 2.52,5.6 3.31,8.59 0.19,2.77 -2.02,4.82 -4.02,6.39 -2.66,1.93 -3.83,5.1 -5.29,7.91 -17.91,-3.74 -35.6,-8.59 -53.07,-14.03 -25.63,-7.76 -51.4,-15.88 -75.03,-28.69 -2.29,-1.23 -4.82,-3.32 -4.22,-6.23 1.11,-8.38 -3.04,-16.67 -0.58,-24.98 2.23,-8.7 9.4,-14.55 14.87,-21.2 10.5,-12.59 20.1,-25.9 29.61,-39.24 10.66,-15.32 20.33,-31.45 27.25,-48.83 1.7,-3.74 0.79,-7.91 1.16,-11.86 0.57,-6.15 2.11,-12.16 3.03,-18.26 3.38,1.27 7.98,1.98 10.28,-1.55 2.43,-3.98 4.88,-8.01 6.95,-12.2 1.03,-4.67 0.86,-9.6 2.7,-14.09 3.35,-0.27 6.85,-1.25 9,-4.04 z"
       inkscape:connector-curvature="0"
       style="fill:#ffffff" />
    <path
       id="path3994"
       d="m 540.96,643.78 c 4.32,5.77 7.08,12.47 10.5,18.77 1.39,2.51 3.04,5.03 5.51,6.6 2.88,1.93 6.59,1.21 9.66,2.68 -0.4,3.91 -1.82,7.84 -0.58,11.76 1.49,7.28 8.19,12.79 15.6,13.04 0.84,9.46 1.63,18.98 0.7,28.47 -0.32,14.17 4.4,28.07 10.93,40.49 7.89,14.24 19.43,25.9 30.04,38.09 9.5,11.16 19.71,21.72 28.74,33.28 7.54,9.36 12.62,20.33 18.17,30.9 -5.07,3.75 -11.03,5.89 -16.62,8.68 -14.89,7.07 -29.69,14.72 -45.7,18.96 -12.56,2.92 -25.41,-0.12 -37.96,-1.52 -7.31,-0.74 -14.53,-3.2 -20.43,-7.62 -2.29,-1.69 -4.09,-3.93 -6.36,-5.61 -3.68,-1.43 -7.49,0.71 -11.22,0.47 -2.43,-0.96 -2.56,-3.97 -2.42,-6.18 0.55,-9 0.18,-18.02 0.3,-27.03 0.68,-24.99 0.78,-49.99 1.04,-74.99 0.56,-8.33 0.3,-16.69 0.37,-25.03 -0.08,-6.62 0.28,-13.28 -0.6,-19.86 -0.6,-3.42 -4.05,-5.7 -4.48,-9.08 2.55,-7.74 7.41,-14.88 8.07,-23.16 -0.37,-4.73 -4.96,-7.06 -8.06,-9.93 4.73,-0.34 10.13,-2.62 10.73,-7.95 1.51,-11.37 1.43,-22.99 4.07,-34.23 z"
       inkscape:connector-curvature="0"
       style="fill:#ffffff" />
    <path
       id="path3996"
       d="m 362.48,648.82 c 9.98,4.2 18.54,10.95 26.44,18.24 1.67,1.52 1.48,3.88 1.66,5.94 -4.59,3.43 -9.56,7.06 -15.53,7.28 -5.46,0.13 -12.14,-2.38 -13.3,-8.37 -0.98,-7.68 0.32,-15.42 0.73,-23.09 z"
       inkscape:connector-curvature="0"
       style="fill:#ffffff" />
    <path
       id="path3998"
       d="m 601.42,659.71 c 1.61,-0.78 4.31,-1.88 5.18,0.43 1.81,6.18 2.79,13.08 -0.6,18.94 -5.93,-1.08 -11.1,-4.66 -15.08,-9.06 -1.24,-1.32 -1.03,-3.62 0.52,-4.58 2.99,-2.43 6.54,-4.03 9.98,-5.73 z"
       inkscape:connector-curvature="0"
       style="fill:#ffffff" />
    <path
       id="path4000"
       d="m 572.59,677.65 c 3.92,-2.62 8.93,-4.54 13.62,-2.93 4.59,1.9 8.1,5.56 11.84,8.71 -6.61,2.83 -13.4,5.28 -20.38,7.04 -2.91,-2.16 -5.61,-4.85 -6.99,-8.26 -0.43,-1.8 0.42,-3.57 1.91,-4.56 z"
       inkscape:connector-curvature="0"
       style="fill:#ffffff" />
    <path
       id="path4002"
       d="m 498.84,688.16 c 1.14,-2.28 3.71,-3.16 5.89,-4.12 0.15,3.82 -1.23,7.51 -2.72,10.95 -0.49,0.21 -1.46,0.64 -1.95,0.85 -0.47,-2.55 -1.37,-5.07 -1.22,-7.68 z"
       inkscape:connector-curvature="0"
       style="fill:#ffffff" />
    <path
       id="path4004"
       d="m 340.41,686.59 c 5.98,-1.06 12.65,-1.37 18.06,1.8 5.19,3.12 6.15,9.54 8.9,14.46 2.67,4.89 4.86,11.08 1.61,16.27 -12.03,19.87 -23.83,39.9 -36.37,59.46 -6.7,10.69 -15.24,20.03 -22.99,29.94 -1.97,2.69 -5.44,4.66 -8.79,3.36 -4.83,-1.78 -9.9,-3.44 -14.05,-6.57 -3.34,-2.65 -1.96,-7.29 -0.94,-10.73 6.96,-20.9 15.87,-41.06 24.29,-61.39 4.13,-10.08 8.81,-19.92 13.06,-29.94 1.46,-3.43 2.71,-7.04 5.16,-9.93 2.97,-3.69 7.45,-5.9 12.06,-6.73 z"
       inkscape:connector-curvature="0"
       style="fill:#ffffff" />
    <path
       id="path4006"
       d="m 367.52,686.51 c 0.97,-0.06 1.95,-0.12 2.93,-0.17 0.5,2.89 0.99,5.78 1.25,8.72 -1.04,0.04 -3.12,0.13 -4.16,0.18 -0.03,-2.92 -0.04,-5.82 -0.02,-8.73 z"
       inkscape:connector-curvature="0"
       style="fill:#ffffff" />
    <path
       id="path4008"
       d="m 434.07,692.75 c 8.24,-0.64 16.54,-0.36 24.8,-0.23 2.12,-0.1 3.38,1.87 4.72,3.19 -0.47,6.86 -4.64,12.8 -9.6,17.28 -2.68,2.36 -6.19,4.42 -9.9,3.7 -2.94,-0.62 -4.51,-3.42 -6.25,-5.57 -2.9,-3.97 -6.14,-7.79 -8.26,-12.26 -1.47,-3.08 1.4,-6.15 4.49,-6.11 z"
       inkscape:connector-curvature="0"
       style="fill:#ffffff" />
    <path
       id="path4010"
       d="m 508.54,695.06 c 0.6,-0.35 1.8,-1.06 2.39,-1.42 5.94,-0.14 11.84,0.56 17.77,0.74 -1.59,6.45 -2.31,13.22 -5,19.35 -0.94,2.44 -4.46,2.44 -5.69,0.25 -3.85,-5.93 -6.4,-12.58 -9.47,-18.92 z"
       inkscape:connector-curvature="0"
       style="fill:#ffffff" />
    <path
       id="path4012"
       d="m 586.21,693.74 c 2.2,2.38 5.14,4.77 5.27,8.28 0.27,2.89 -2.25,4.75 -3.98,6.65 -0.81,-4.94 -1.23,-9.93 -1.29,-14.93 z"
       inkscape:connector-curvature="0"
       style="fill:#ffffff" />
    <path
       id="path4014"
       d="m 614.22,696.18 c 1.37,-0.8 1.87,1.1 2.39,1.95 18.6,38.36 37.62,76.52 56.67,114.66 1.32,2.63 2.28,5.83 1.03,8.67 -2.05,2.82 -5.82,3.34 -8.52,5.34 -3.48,2.16 -6.55,6.15 -11.1,5.43 -3.81,-1.1 -5.94,-4.75 -8.43,-7.53 -13.1,-15.55 -26.67,-30.73 -39.24,-46.73 -10.57,-12.92 -18.27,-28.48 -20.57,-45.11 -1.01,-8.33 2.3,-16.62 7.32,-23.14 4.96,-6.81 12.7,-10.77 20.45,-13.54 z"
       inkscape:connector-curvature="0"
       style="fill:#ffffff" />
    <path
       id="path4016"
       d="m 491.45,700.53 c 3.32,-2.1 7.58,-0.96 11.05,0.18 6.93,2.18 7.67,10.46 10.96,15.9 -7.63,-1.35 -15.31,-2.46 -22.83,-4.34 -1.94,-3.58 -2.12,-8.68 0.82,-11.74 z"
       inkscape:connector-curvature="0"
       style="fill:#ffffff" />
    <path
       id="path4018"
       d="m 425.16,706.39 c 0.66,-0.18 1.99,-0.54 2.65,-0.72 2.24,3.63 4.65,7.16 6.99,10.73 -2.71,-0.37 -5.42,-0.75 -8.13,-1.12 -1,-2.86 -1.35,-5.88 -1.51,-8.89 z"
       inkscape:connector-curvature="0"
       style="fill:#ffffff" />
    <path
       id="path4020"
       d="m 494.5,730.94 c 1.38,-3.7 0.39,-9.18 4.5,-11.2 3.25,-1.53 5.12,1.83 6.52,4.16 -0.76,1.7 -1.15,3.86 -2.92,4.86 -2.46,1.4 -5.39,1.57 -8.1,2.18 z"
       inkscape:connector-curvature="0"
       style="fill:#ffffff" />
    <path
       id="path4022"
       d="m 126.16,727.96 c -0.04,-1.66 0.23,-3.3 0.62,-4.9 4.98,4.75 9.04,10.36 13.31,15.73 25.38,32.4 54.17,62.41 87.31,86.95 13.52,10.25 28.05,19.11 43.37,26.41 18.55,8.77 36.54,18.79 55.69,26.24 19.81,7.96 40.17,14.43 60.62,20.52 3.43,1.08 7.32,1.54 9.83,4.41 -7.29,0.72 -14.64,0.31 -21.95,0.49 -44.68,-0.16 -89.3,0.39 -133.96,0.06 -35,0.51 -70.02,0.2 -105.03,0.3 -2.87,0.07 -5.76,-0.42 -8.26,-1.87 -1.52,-5.65 -1.09,-11.53 -1.14,-17.31 -0.12,-52.34 -0.39,-104.68 -0.41,-157.03 z"
       inkscape:connector-curvature="0"
       style="fill:#ffffff" />
    <path
       id="path4024"
       d="m 510.88,730.43 c 4.71,-1.32 9.4,-3.68 14.41,-2.89 0.47,1.46 1.36,2.84 1.29,4.44 -0.24,16.35 -1.05,32.67 -1.17,49.02 -0.83,24.64 -1.73,49.31 -0.79,73.96 -0.23,4.66 0.87,9.36 0.22,13.99 -0.13,2.5 -2.62,3.7 -4.82,3.85 -4.71,0.59 -9.54,1.07 -14.26,0.41 -4.56,-0.83 -5.69,-6 -6.54,-9.8 -3.63,-18.19 -6.73,-36.47 -9.88,-54.74 -1.96,-12.7 -4.82,-25.3 -6.06,-38.09 1.33,-8.56 1.96,-17.57 5.9,-25.43 4.28,-8.25 13.25,-12.18 21.7,-14.72 z"
       inkscape:connector-curvature="0"
       style="fill:#ffffff" />
    <path
       id="path4026"
       d="m 443.94,730.81 c 7.99,-1.41 15.36,3.03 21.43,7.7 5.95,4.69 9.78,11.93 9.98,19.54 0.14,6.65 -1.05,13.27 -0.4,19.93 -0.09,4.17 1.34,8.25 0.75,12.43 -2.8,24.37 -5.49,48.76 -8.44,73.13 -0.79,7.3 -7.89,13.27 -15.29,12.09 -4.6,-0.05 -8.37,-3.62 -9.18,-8.03 -4.21,-21.14 -7.67,-42.43 -11.8,-63.59 -3.16,-15.47 -4.65,-31.28 -4.4,-47.06 0.07,-3.98 -0.38,-8.08 0.91,-11.92 2.2,-7.38 8.95,-12.89 16.44,-14.22 z"
       inkscape:connector-curvature="0"
       style="fill:#ffffff" />
    <path
       id="path4028"
       d="m 847.03,732.89 c 1.04,0.85 2.8,1.34 2.69,3.03 0.96,6.32 0.28,12.75 0.43,19.12 -0.62,43.98 -0.56,87.97 -0.85,131.95 -0.14,4.78 0.52,9.68 -0.9,14.34 -4.66,2.77 -10.26,1.59 -15.39,1.84 -28.32,-0.66 -56.66,-0.17 -84.99,-0.34 -25.65,0.75 -51.34,0.04 -77,0.56 -15.65,0.13 -31.31,0.23 -46.96,0.37 -2.77,0.12 -5.5,-0.4 -8.01,-1.53 29.49,-14.41 59.4,-27.94 88.8,-42.53 10.43,-5.26 21.17,-10.05 30.82,-16.69 11.24,-7.64 21.48,-16.63 31.45,-25.84 16.05,-14.59 32.4,-28.91 47.32,-44.68 8.16,-8.56 16.05,-17.39 23.57,-26.52 3.35,-4.11 7.05,-8.07 9.02,-13.08 z"
       inkscape:connector-curvature="0"
       style="fill:#ffffff" />
    <path
       id="path4030"
       d="m 479.41,785.72 c 0.28,0.78 0.84,2.34 1.12,3.13 5.83,27.65 10.35,55.56 15.57,83.33 0.37,3.61 3.51,5.77 5.21,8.71 0.7,2.64 -1.35,4.71 -2.69,6.72 -3.49,4.43 -3.98,10.35 -7.09,15 -1.22,0.74 -2.24,-0.31 -3.15,-0.98 -2.79,-2.23 -4.55,-5.44 -7.29,-7.7 -3.09,-2.6 -6.36,-5.19 -8.28,-8.82 -2.4,-4.31 -2.69,-9.5 -1.7,-14.25 4.1,-20.72 7.26,-41.71 7.76,-62.86 0.75,-7.41 -0.13,-14.87 0.54,-22.28 z"
       inkscape:connector-curvature="0"
       style="fill:#ffffff" />
    <path
       id="path4032"
       d="m 281.83,819.11 c 5.69,1.9 11.5,3.76 16.74,6.73 -2.69,0.74 -5.58,1.85 -8.34,0.76 -3.8,-1.08 -6.28,-4.39 -8.4,-7.49 z"
       inkscape:connector-curvature="0"
       style="fill:#ffffff" />
    <path
       id="path4034"
       d="m 734.06,828.03 c 1.06,-0.77 2.4,-0.55 3.65,-0.6 -0.47,2.03 -0.43,4.57 -2.28,5.96 -4.02,3.21 -8.28,7.93 -14,6.14 0.76,-1.83 0.88,-4.2 2.71,-5.34 3.18,-2.25 6.55,-4.21 9.92,-6.16 z"
       inkscape:connector-curvature="0"
       style="fill:#ffffff" />
    <path
       id="path4036"
       d="m 277.57,828.89 c 7.28,-1.66 14.88,2.76 17.39,9.7 -5.87,-3.09 -11.84,-6.06 -17.39,-9.7 z"
       inkscape:connector-curvature="0"
       style="fill:#ffffff" />
    <path
       id="path4038"
       d="m 268.96,830.2 c 3.26,1.62 6.47,3.34 9.75,4.94 -0.29,0.74 -0.86,2.21 -1.14,2.95 -3.51,-1.39 -6.76,-3.33 -10.09,-5.08 0.37,-0.7 1.11,-2.11 1.48,-2.81 z"
       inkscape:connector-curvature="0"
       style="fill:#ffffff" />
    <path
       id="path4040"
       d="m 258.95,837.97 c 0.59,-1.25 1.19,-2.5 1.8,-3.72 11.07,6.22 22.19,12.35 33.24,18.61 -0.62,1.56 -1.7,2.4 -3.21,1.33 -10.62,-5.38 -21.19,-10.87 -31.83,-16.22 z"
       inkscape:connector-curvature="0"
       style="fill:#ffffff" />
    <path
       id="path4042"
       d="m 660.55,835.57 c 0.97,-0.12 1.94,-0.22 2.93,-0.32 1.34,2.89 2.87,5.71 3.92,8.74 -0.29,0.49 -0.88,1.47 -1.17,1.96 -1.96,-1.31 -4.28,-2.35 -5.61,-4.37 -0.6,-1.96 -0.12,-4.03 -0.07,-6.01 z"
       inkscape:connector-curvature="0"
       style="fill:#ffffff" />
    <path
       id="path4044"
       d="m 700.7,842.9 c 2.11,-2.3 5.4,-2.65 8.34,-2.76 2.89,-0.47 5.11,1.76 7.48,3.01 -2.68,4.42 -7.15,7.17 -11.65,9.45 -3.15,-1.95 -5.84,-5.96 -4.17,-9.7 z"
       inkscape:connector-curvature="0"
       style="fill:#ffffff" />
    <path
       id="path4046"
       d="m 684.19,848.14 c 3.02,-1.66 5.95,-4.74 9.72,-3.72 2.74,0.8 3.88,3.92 3.86,6.54 0.55,4.12 -4.41,5.39 -6.9,7.63 -2.27,-3.46 -4.54,-6.92 -6.68,-10.45 z"
       inkscape:connector-curvature="0"
       style="fill:#ffffff" />
    <path
       id="path4048"
       d="m 669.36,852.38 c 2.26,-2.51 5.23,-4.21 7.91,-6.22 2.09,2.81 4.47,5.46 6.18,8.55 -0.83,3.17 -1.03,6.91 -3.39,9.42 -2.15,1.22 -4.95,0.17 -6.33,-1.73 -2.19,-2.92 -3.99,-6.36 -4.37,-10.02 z"
       inkscape:connector-curvature="0"
       style="fill:#ffffff" />
    <path
       id="path4050"
       d="m 517.14,890.67 c 6.88,-3.19 15.17,-3.03 22.03,0.15 2.68,1.29 5.71,3.75 5.07,7.1 -3.01,6.3 -11.45,8.05 -17.42,5.31 -4.67,-2.83 -7.01,-8.04 -9.68,-12.56 z"
       inkscape:connector-curvature="0"
       style="fill:#ffffff" />
    <path
       id="path4052"
       d="m 498.41,898.01 c 1.12,-2.59 2.84,-4.84 4.62,-7 1.72,1.56 3.43,3.15 5.1,4.78 -1.94,2.4 -3.84,4.84 -5.9,7.15 -1.3,-1.64 -2.59,-3.26 -3.82,-4.93 z"
       inkscape:connector-curvature="0"
       style="fill:#ffffff" />
    <path
       id="path4054"
       d="m 448.51,893.44 c 7.6,-0.01 15.2,-0.06 22.8,0.03 l -0.1,1.9 c -7.55,0.03 -15.09,0 -22.64,0.02 l -0.06,-1.95 z"
       inkscape:connector-curvature="0"
       style="fill:#ffffff" />
    <path
       id="path4056"
       d="m 510.25,894.52 c 0.66,-0.1 2,-0.31 2.67,-0.41 1.82,3.01 5.75,5.38 4.84,9.37 -2.01,-0.08 -4.02,-0.18 -6.02,-0.29 -1.07,-2.77 -1.43,-5.73 -1.49,-8.67 z"
       inkscape:connector-curvature="0"
       style="fill:#ffffff" />
    <path
       id="path4058"
       d="m 548.03,901.06 c 1.17,-1.07 1.93,-3.28 3.89,-2.88 6.34,0.49 12.54,2.04 18.84,2.83 0.05,0.65 0.14,1.95 0.18,2.6 -6.62,-0.02 -13.26,0.15 -19.88,-0.08 -1.47,0.01 -2.05,-1.7 -3.03,-2.47 z"
       inkscape:connector-curvature="0"
       style="fill:#ffffff" />
    <path
       id="path4060"
       d="m 443.07,901.17 c 12.71,-0.01 25.42,-0.07 38.13,0.03 0,0.65 -0.01,1.94 -0.01,2.59 -12.69,0.2 -25.37,0.61 -38.05,-0.09 -0.02,-0.63 -0.05,-1.9 -0.07,-2.53 z"
       inkscape:connector-curvature="0"
       style="fill:#ffffff" />
  </g>
</svg>
