<?xml version="1.0" encoding="UTF-8" ?>
<!DOCTYPE svg PUBLIC "-//W3C//DTD SVG 1.1//EN" "http://www.w3.org/Graphics/SVG/1.1/DTD/svg11.dtd">
<svg width="1045pt" height="957pt" viewBox="0 0 1045 957" version="1.1" xmlns="http://www.w3.org/2000/svg">
<path fill="#003359" d=" M 0.00 0.00 L 1045.00 0.00 L 1045.00 957.00 L 0.00 957.00 L 0.00 0.00 Z" />
<path fill="#EDAC00" d=" M 500.28 16.41 C 544.84 14.87 588.87 25.09 630.81 39.36 C 672.66 53.68 712.31 74.13 748.76 99.14 C 770.34 113.46 789.16 131.35 808.51 148.44 C 816.42 155.53 823.41 163.55 830.93 171.02 C 836.09 175.88 843.56 174.08 849.94 174.52 C 853.49 174.55 858.29 175.14 859.48 179.15 C 861.40 186.30 859.33 193.82 860.78 201.04 C 861.82 206.60 864.53 211.69 867.82 216.24 C 890.12 247.71 907.99 282.48 919.25 319.43 C 925.53 339.99 931.72 360.67 935.27 381.91 C 940.62 416.01 939.92 450.65 939.39 485.05 C 938.41 521.44 930.87 557.22 922.96 592.62 C 917.06 618.81 906.47 643.79 892.91 666.90 C 882.31 684.83 870.70 702.12 859.88 719.90 C 857.98 722.92 857.18 726.49 857.23 730.04 C 857.15 744.37 857.15 758.70 857.16 773.03 C 856.47 785.02 856.93 797.05 856.80 809.06 C 856.76 840.03 856.70 871.01 856.74 901.99 C 856.57 904.45 857.06 907.33 855.31 909.35 C 853.76 910.43 851.82 910.48 850.02 910.56 C 729.35 910.65 608.68 910.48 488.01 910.65 C 368.02 910.83 248.03 910.66 128.03 910.73 C 125.59 910.53 122.65 911.15 120.71 909.27 C 119.33 907.12 119.61 904.46 119.50 902.04 C 119.49 869.70 119.39 837.37 119.33 805.04 C 119.03 775.29 119.59 745.53 118.19 715.81 C 118.06 712.63 116.62 709.70 114.56 707.33 C 92.04 678.96 76.48 645.63 65.75 611.18 C 58.98 589.50 53.84 567.34 49.65 545.02 C 44.75 517.66 44.03 489.76 44.57 462.03 C 44.80 448.33 44.59 434.61 45.50 420.93 C 47.73 390.87 56.43 361.86 64.43 332.96 C 74.89 295.29 90.66 259.17 110.47 225.50 C 114.02 219.62 116.45 212.83 116.05 205.89 C 115.33 197.26 115.80 188.60 115.76 179.96 C 115.60 176.94 117.35 172.95 120.97 173.45 C 127.11 174.62 133.56 175.64 139.69 173.80 C 149.11 171.03 156.33 163.85 162.62 156.63 C 194.75 120.36 234.00 90.99 275.83 66.83 C 306.18 49.69 339.20 37.78 372.82 28.89 C 408.54 18.70 446.00 18.34 482.83 16.95 C 488.64 16.61 494.47 16.71 500.28 16.41 Z" />
<path fill="#003359" d=" M 422.09 26.09 C 449.35 24.11 476.65 22.31 504.01 22.37 C 544.67 21.14 584.69 31.01 623.05 43.66 C 665.91 57.94 706.64 78.54 743.62 104.48 C 758.48 114.75 772.17 126.56 785.75 138.42 C 798.63 149.61 812.07 160.37 822.85 173.70 C 600.82 173.74 378.79 173.80 156.76 173.67 C 159.24 170.21 161.50 166.57 164.47 163.49 C 190.95 133.99 221.80 108.57 255.00 86.98 C 269.56 77.56 284.46 68.60 300.16 61.20 C 321.88 50.78 344.71 42.78 367.95 36.51 C 385.74 31.87 403.70 27.41 422.09 26.09 Z" />
<path fill="#003359" d=" M 122.15 183.93 C 122.09 181.92 124.10 180.70 125.90 180.65 C 130.07 180.26 134.26 180.52 138.43 180.63 C 138.44 181.24 138.45 182.44 138.46 183.04 C 134.56 188.22 130.16 193.00 126.09 198.04 C 125.23 199.40 123.78 199.91 122.26 200.15 C 121.68 194.77 121.57 189.30 122.15 183.93 Z" />
<path fill="#003359" d=" M 160.84 183.54 C 161.53 182.67 162.02 181.47 163.18 181.12 C 165.97 181.72 168.28 183.54 170.73 184.91 C 169.16 185.84 167.60 186.78 166.03 187.70 C 164.28 186.33 162.56 184.93 160.84 183.54 Z" />
<path fill="#003359" d=" M 176.92 181.40 C 260.28 181.09 343.65 181.35 427.02 181.26 C 439.21 181.33 451.41 181.13 463.61 181.37 C 457.71 186.08 450.84 190.31 447.51 197.39 C 444.41 203.09 445.38 209.78 445.11 216.00 C 445.30 222.16 445.05 228.48 446.82 234.45 C 449.64 242.45 455.17 249.05 460.31 255.65 C 463.31 259.45 465.98 264.05 465.29 269.08 C 464.27 278.07 456.49 284.55 448.47 287.55 C 439.86 291.09 430.09 289.75 421.72 286.20 C 417.57 284.32 412.83 282.85 410.08 278.95 C 405.99 273.27 400.25 268.86 393.77 266.25 C 388.74 264.11 383.31 263.27 378.03 262.02 C 359.74 257.91 341.51 253.45 323.06 250.09 C 306.31 246.98 290.35 240.51 275.37 232.52 C 262.34 225.59 248.59 219.59 233.97 217.07 C 229.93 216.32 225.78 216.25 221.80 215.16 C 217.18 213.82 213.10 210.55 211.03 206.18 C 209.65 203.27 208.46 200.16 206.06 197.92 C 201.07 192.87 193.95 191.15 187.83 187.94 C 184.54 186.18 181.01 184.89 177.78 183.04 C 177.56 182.63 177.13 181.81 176.92 181.40 Z" />
<path fill="#003359" d=" M 469.82 183.97 C 473.86 182.48 478.16 181.62 482.48 181.82 C 473.48 187.02 463.74 190.86 454.50 195.64 C 457.58 189.68 463.81 186.31 469.82 183.97 Z" />
<path fill="#003359" d=" M 521.25 181.62 C 615.70 181.53 710.15 181.60 804.61 181.58 C 804.66 182.12 804.76 183.18 804.81 183.72 C 796.62 188.86 788.44 194.02 780.43 199.43 C 773.25 204.56 767.02 212.02 757.91 213.61 C 733.90 219.20 709.67 226.75 689.59 241.53 C 685.10 245.10 678.92 244.29 674.09 247.08 C 644.46 261.30 610.36 260.07 579.99 272.03 C 574.19 274.38 568.71 277.78 564.60 282.55 C 559.73 288.59 551.34 290.30 543.96 289.56 C 538.87 289.19 534.52 286.31 530.17 283.93 C 527.35 282.40 523.81 281.78 521.83 279.04 C 520.59 276.89 520.75 274.30 520.53 271.92 C 520.30 267.10 520.09 261.92 522.57 257.59 C 525.16 252.89 530.67 251.01 533.75 246.72 C 539.02 240.44 540.25 231.79 539.20 223.88 C 537.93 215.50 538.74 206.93 537.20 198.57 C 534.33 191.06 526.92 186.82 521.25 181.62 Z" />
<path fill="#003359" d=" M 842.02 182.77 C 844.91 181.60 848.64 180.82 851.43 182.56 C 853.17 185.15 852.83 188.51 853.36 191.48 C 852.74 191.82 851.50 192.51 850.87 192.85 C 847.80 189.60 844.61 186.44 842.02 182.77 Z" />
<path fill="#003359" d=" M 811.52 184.54 C 814.34 182.44 818.07 183.48 821.24 183.98 C 816.98 187.46 812.07 190.05 807.41 192.94 C 808.13 189.92 808.82 186.46 811.52 184.54 Z" />
<path fill="#003359" d=" M 144.86 185.62 C 146.57 184.83 148.25 183.87 150.13 183.56 C 152.16 184.87 153.86 186.61 155.65 188.22 C 154.27 188.89 152.90 190.45 151.23 189.72 C 148.93 188.66 146.96 187.01 144.86 185.62 Z" />
<path fill="#003359" d=" M 820.98 189.78 C 824.56 187.59 828.11 185.34 831.80 183.33 C 832.25 184.04 833.13 185.47 833.58 186.19 C 830.07 188.64 826.53 191.01 822.89 193.25 C 822.23 192.10 821.59 190.94 820.98 189.78 Z" />
<path fill="#003359" d=" M 464.42 195.38 C 473.89 189.53 484.87 185.81 496.04 185.53 C 506.26 185.15 514.56 191.93 522.60 197.28 C 525.68 199.03 527.22 202.51 527.22 205.97 C 527.52 215.95 527.38 225.95 527.50 235.93 C 527.72 239.59 524.96 243.05 521.19 243.09 C 512.02 243.34 502.84 243.06 493.66 243.21 C 493.32 242.84 492.63 242.10 492.28 241.73 C 482.20 241.76 472.11 241.90 462.03 241.69 C 458.53 241.85 456.46 238.23 456.72 235.08 C 456.86 225.38 456.22 215.67 456.67 205.97 C 456.71 201.09 460.61 197.73 464.42 195.38 Z" />
<path fill="#003359" d=" M 159.23 190.45 C 161.03 190.34 163.03 190.12 164.53 191.36 C 170.11 195.28 174.97 200.12 180.11 204.58 C 172.40 203.45 165.68 199.02 159.91 194.02 C 158.84 193.20 159.48 191.60 159.23 190.45 Z" />
<path fill="#003359" d=" M 142.58 191.71 C 142.20 193.83 141.12 196.03 142.05 198.15 C 142.75 200.80 145.51 201.86 147.34 203.58 C 149.38 205.18 147.99 207.96 148.26 210.12 C 148.03 212.32 150.33 213.41 151.88 214.40 C 162.64 220.16 172.97 226.69 183.87 232.19 C 188.93 234.81 194.85 234.52 200.11 236.54 C 225.44 245.59 250.29 255.96 274.85 266.95 C 286.12 271.64 294.67 281.37 306.57 284.74 C 316.64 287.78 326.81 290.47 336.90 293.46 C 336.80 294.45 336.70 295.44 336.61 296.44 C 329.40 297.13 322.15 297.58 315.00 298.76 C 306.04 300.23 297.09 302.00 288.00 302.38 C 275.17 302.57 262.83 298.14 250.05 297.73 C 236.52 297.34 223.12 300.14 210.25 304.10 C 206.50 305.31 201.82 305.18 199.36 301.65 C 194.01 294.98 185.52 291.49 177.09 291.29 C 165.07 291.12 153.05 291.33 141.03 291.20 C 137.34 291.11 133.34 290.09 129.90 291.93 C 126.77 293.80 127.25 297.79 127.02 300.91 C 123.89 299.18 122.55 295.42 122.65 291.99 C 122.55 271.26 121.10 250.55 121.95 229.82 C 122.48 224.46 121.87 218.89 123.94 213.78 C 127.40 204.51 135.04 197.73 142.58 191.71 Z" />
<path fill="#003359" d=" M 838.33 191.71 C 844.53 197.15 852.04 203.13 852.63 212.04 C 852.95 240.38 852.59 268.72 852.69 297.06 C 852.79 299.47 852.36 302.72 849.64 303.49 C 846.18 304.14 842.64 303.61 839.16 303.54 C 824.06 302.96 808.92 301.91 793.83 302.44 C 787.69 304.20 781.45 305.62 775.02 305.34 C 771.49 307.75 767.38 309.36 763.03 308.45 C 741.50 305.27 719.61 306.62 698.14 309.54 C 680.68 310.66 663.15 308.60 646.03 305.28 C 642.01 304.54 637.95 303.92 634.08 302.57 C 634.11 301.95 634.18 300.72 634.21 300.10 C 645.15 296.96 655.83 292.88 667.01 290.62 C 675.24 288.93 683.82 286.90 690.52 281.54 C 693.73 279.09 695.86 275.38 699.55 273.54 C 726.23 260.79 753.36 248.98 779.87 235.89 C 783.22 234.14 786.53 237.01 789.96 236.79 C 794.26 237.08 798.03 234.67 801.49 232.44 C 810.78 226.33 820.16 220.36 829.44 214.23 C 832.44 212.50 832.96 208.77 831.67 205.76 C 833.68 200.98 836.19 196.43 838.33 191.71 Z" />
<path fill="#003359" d=" M 148.33 193.43 C 151.41 194.70 154.48 196.00 157.41 197.59 C 157.78 198.76 158.16 199.93 158.54 201.10 C 157.35 201.53 156.16 201.97 154.97 202.41 C 152.82 201.46 150.38 200.84 148.70 199.07 C 147.71 197.36 148.32 195.29 148.33 193.43 Z" />
<path fill="#003359" d=" M 178.09 192.75 C 182.28 194.63 186.25 196.96 190.34 199.05 C 189.83 200.12 189.32 201.20 188.82 202.28 C 184.60 200.48 180.67 198.08 176.60 195.98 C 177.10 194.90 177.60 193.83 178.09 192.75 Z" />
<path fill="#003359" d=" M 792.89 205.11 C 795.56 203.08 798.26 201.08 801.05 199.21 C 801.74 199.72 803.11 200.74 803.79 201.26 C 801.08 204.04 798.22 206.68 795.12 209.02 C 794.36 207.71 793.62 206.42 792.89 205.11 Z" />
<path fill="#003359" d=" M 198.47 208.64 C 196.45 206.77 193.12 204.27 195.54 201.42 C 200.46 204.51 205.41 207.55 210.45 210.42 C 206.44 211.63 201.80 211.40 198.47 208.64 Z" />
<path fill="#003359" d=" M 464.46 201.64 C 479.28 200.96 494.15 201.53 508.99 201.34 C 513.17 201.36 517.37 201.16 521.53 201.69 C 514.19 203.65 506.55 203.70 499.02 204.20 C 487.49 204.19 475.71 204.56 464.46 201.64 Z" />
<path fill="#003359" d=" M 162.37 202.39 C 163.59 202.49 165.00 202.02 166.11 202.73 C 170.16 205.28 173.98 208.19 177.91 210.92 C 177.34 211.89 176.78 212.86 176.22 213.84 C 170.64 213.57 165.67 210.20 162.32 205.91 C 162.26 204.73 162.28 203.56 162.37 202.39 Z" />
<path fill="#003359" d=" M 448.50 203.15 C 449.40 203.19 451.19 203.28 452.08 203.32 C 454.52 213.60 452.86 224.17 453.25 234.60 C 452.28 234.63 451.33 234.67 450.37 234.71 C 449.58 224.20 449.18 213.67 448.50 203.15 Z" />
<path fill="#003359" d=" M 531.23 203.74 C 531.79 203.71 532.90 203.66 533.46 203.63 C 534.58 215.55 537.21 227.85 533.54 239.62 C 532.96 239.60 531.79 239.56 531.20 239.54 C 531.21 227.61 531.16 215.68 531.23 203.74 Z" />
<path fill="#003359" d=" M 462.75 209.86 C 463.37 207.55 465.86 207.11 467.90 206.93 C 484.57 207.50 501.28 207.14 517.97 207.31 C 520.44 207.19 522.05 209.52 522.17 211.78 C 522.45 216.27 522.88 220.95 521.29 225.27 C 519.25 225.93 517.18 226.56 515.02 226.49 C 499.70 226.53 484.38 226.33 469.06 226.45 C 465.94 226.66 463.02 224.19 462.73 221.08 C 462.39 217.35 462.40 213.58 462.75 209.86 Z" />
<path fill="#003359" d=" M 775.69 214.90 C 779.01 211.93 782.79 209.27 786.94 207.63 C 787.67 207.83 789.12 208.24 789.84 208.45 C 789.63 209.61 789.64 210.84 789.20 211.95 C 786.03 214.31 782.53 216.17 779.11 218.12 C 777.15 219.65 774.25 217.06 775.69 214.90 Z" />
<path fill="#003359" d=" M 466.21 212.95 C 466.63 210.28 469.51 209.08 471.95 209.30 C 485.97 209.47 500.00 209.62 514.02 209.55 C 516.20 209.24 518.44 210.45 519.25 212.53 C 520.04 215.82 520.31 219.57 518.33 222.52 C 513.98 223.66 509.46 223.20 505.03 223.27 C 493.69 223.31 482.34 223.12 471.01 223.22 C 465.88 223.25 465.01 216.74 466.21 212.95 Z" />
<path fill="#003359" d=" M 181.99 213.14 C 183.76 209.19 187.59 212.84 190.07 213.97 C 191.86 214.81 190.09 216.82 189.93 218.14 C 187.15 216.70 184.52 214.98 181.99 213.14 Z" />
<path fill="#003359" d=" M 194.98 214.80 C 195.51 214.38 196.58 213.54 197.11 213.12 C 200.02 213.96 202.61 215.57 205.27 216.98 C 205.75 218.39 206.22 219.80 206.69 221.21 C 205.32 221.63 203.96 222.06 202.60 222.49 C 199.74 220.27 197.35 217.53 194.98 214.80 Z" />
<path fill="#003359" d=" M 212.19 232.92 C 214.26 227.07 218.93 222.67 223.04 218.20 C 229.45 219.42 235.93 220.48 242.14 222.56 C 261.24 228.61 279.86 236.89 295.92 249.00 C 302.23 253.87 301.60 264.62 294.91 268.86 C 292.94 270.55 290.27 270.42 288.08 269.23 C 264.28 259.00 240.49 248.76 216.79 238.30 C 214.66 237.23 211.25 235.99 212.19 232.92 Z" />
<path fill="#003359" d=" M 675.72 257.67 C 698.47 238.01 726.27 223.86 755.98 218.60 C 759.02 217.95 762.03 219.93 762.89 222.87 C 764.22 226.73 766.22 230.32 767.72 234.11 C 768.65 236.25 766.18 237.64 764.63 238.50 C 738.71 250.69 712.70 262.72 686.75 274.84 C 684.61 275.94 681.42 276.43 679.94 274.06 C 677.58 270.18 675.28 266.20 673.56 261.98 C 674.19 260.51 674.66 258.91 675.72 257.67 Z" />
<path fill="#003359" d=" M 178.90 224.97 C 177.27 222.87 179.09 220.52 180.81 219.19 C 185.59 220.10 190.35 221.35 194.83 223.32 C 197.44 224.19 198.79 227.76 197.45 230.08 C 195.65 231.44 193.28 233.95 190.90 232.38 C 186.85 230.00 182.62 227.84 178.90 224.97 Z" />
<path fill="#003359" d=" M 859.83 220.91 L 861.39 220.43 C 864.28 223.39 866.43 226.99 868.74 230.42 C 891.73 266.75 909.46 306.49 920.22 348.14 C 929.08 382.70 933.41 418.40 933.39 454.07 C 933.51 483.52 929.42 512.76 924.86 541.79 C 922.34 557.62 919.45 573.39 916.10 589.07 C 910.49 614.51 899.89 638.58 887.16 661.22 C 878.64 676.28 869.79 691.16 861.04 706.10 C 860.43 707.27 858.77 706.50 857.72 706.78 C 857.57 676.18 858.31 645.61 858.19 615.01 C 858.33 570.03 858.51 525.04 858.60 480.06 C 859.09 449.04 858.43 417.99 859.17 386.98 C 859.32 331.62 859.40 276.26 859.83 220.91 Z" />
<path fill="#003359" d=" M 782.08 228.93 C 787.31 222.91 796.70 220.40 803.77 224.69 C 800.30 228.14 796.25 232.01 790.98 231.83 C 787.73 232.04 784.83 230.42 782.08 228.93 Z" />
<path fill="#003359" d=" M 107.51 243.46 C 109.59 239.77 111.36 235.63 115.04 233.21 C 116.44 241.44 115.52 249.80 115.94 258.09 C 116.33 264.05 116.08 270.03 116.14 276.00 C 116.15 302.67 116.15 329.33 116.14 356.00 C 116.31 397.34 116.46 438.68 116.69 480.02 C 116.96 498.02 116.49 516.03 117.24 534.02 C 117.31 558.00 117.35 581.99 117.65 605.97 C 117.62 635.77 118.50 665.55 118.27 695.35 C 117.77 695.46 116.79 695.68 116.29 695.80 C 102.84 679.27 92.88 660.16 84.53 640.64 C 69.05 603.11 58.60 563.45 54.35 523.05 C 52.58 506.73 51.43 490.35 51.19 473.94 C 50.31 458.66 50.89 443.34 51.98 428.09 C 54.73 393.41 62.77 359.37 73.17 326.25 C 82.13 297.71 93.32 269.81 107.51 243.46 Z" />
<path fill="#003359" d=" M 460.74 247.56 C 471.39 245.81 482.23 247.77 492.95 246.91 C 503.73 246.99 514.54 246.47 525.29 247.39 C 520.05 250.29 513.99 250.97 508.12 251.50 C 501.09 251.85 494.03 252.58 486.99 251.93 C 478.15 251.41 468.93 251.37 460.74 247.56 Z" />
<path fill="#003359" d=" M 318.61 253.66 C 321.05 252.78 323.71 253.37 326.19 253.81 C 345.14 258.09 364.05 262.58 382.92 267.19 C 391.13 268.89 399.81 272.57 404.01 280.28 C 397.73 284.94 391.61 289.83 385.19 294.30 C 382.28 296.48 378.41 295.81 375.04 295.57 C 368.69 294.59 362.27 295.94 355.91 295.06 C 341.67 293.52 328.75 286.91 315.77 281.34 C 313.55 280.47 311.12 278.76 311.34 276.06 C 311.50 271.24 313.72 266.79 314.73 262.12 C 315.68 259.21 316.06 255.67 318.61 253.66 Z" />
<path fill="#003359" d=" M 470.35 256.49 C 484.90 256.62 499.47 256.24 514.01 256.68 C 514.14 257.17 514.42 258.16 514.55 258.66 C 499.81 258.81 485.07 258.69 470.32 258.72 C 470.33 258.16 470.34 257.05 470.35 256.49 Z" />
<path fill="#003359" d=" M 582.91 275.03 C 604.80 269.43 626.87 264.54 648.90 259.52 C 651.56 258.91 655.14 258.68 656.68 261.47 C 658.74 265.38 659.55 269.80 661.20 273.89 C 662.25 277.33 664.37 280.85 663.33 284.54 C 662.15 286.91 659.38 287.59 657.11 288.43 C 645.48 292.39 634.28 298.17 621.90 299.40 C 611.27 300.15 600.60 298.99 590.05 297.98 C 582.87 293.38 575.90 288.37 569.01 283.33 C 573.47 280.32 577.50 276.27 582.91 275.03 Z" />
<path fill="#003359" d=" M 474.56 264.45 C 485.82 263.95 497.14 263.97 508.40 264.44 C 497.74 268.62 485.23 268.57 474.56 264.45 Z" />
<path fill="#003359" d=" M 468.03 275.51 C 468.69 275.69 470.02 276.06 470.69 276.24 C 470.84 282.27 469.94 288.47 469.52 294.56 C 468.51 294.48 467.52 294.41 466.53 294.34 C 466.91 288.05 467.49 281.78 468.03 275.51 Z" />
<path fill="#003359" d=" M 499.71 277.75 C 502.14 276.51 506.29 273.64 507.99 277.23 C 505.24 279.98 502.65 282.89 499.99 285.72 C 497.37 283.76 496.72 279.69 499.71 277.75 Z" />
<path fill="#003359" d=" M 468.47 277.10 C 468.79 277.14 469.42 277.22 469.74 277.26 C 470.70 282.76 469.03 288.50 469.22 294.12 L 467.10 294.17 C 467.63 288.48 467.66 282.74 468.47 277.10 Z" />
<path fill="#003359" d=" M 476.09 276.54 C 478.77 276.82 481.50 277.30 483.84 278.74 C 483.89 281.52 483.63 284.29 483.14 287.03 C 480.72 283.58 478.32 280.11 476.09 276.54 Z" />
<path fill="#003359" d=" M 503.00 290.97 C 503.42 288.25 505.62 286.30 507.07 284.09 C 510.83 286.49 508.58 291.63 509.11 295.33 C 507.04 294.00 504.29 293.17 503.00 290.97 Z" />
<path fill="#003359" d=" M 445.32 292.67 C 451.43 289.99 457.56 287.34 463.71 284.74 C 463.15 290.13 462.56 295.53 461.73 300.89 C 456.28 299.04 450.89 297.05 445.46 295.17 C 445.41 294.33 445.36 293.50 445.32 292.67 Z" />
<path fill="#003359" d=" M 520.30 286.29 C 521.88 286.20 523.59 285.34 525.10 286.19 C 529.08 287.96 532.92 290.09 536.40 292.72 C 531.20 294.36 526.12 298.02 520.44 296.44 C 519.71 293.09 519.75 289.66 520.30 286.29 Z" />
<path fill="#003359" d=" M 404.90 287.26 C 407.70 286.42 410.92 288.15 411.54 291.05 C 413.88 299.54 412.89 308.54 411.01 317.02 C 405.04 310.99 399.27 304.65 392.17 299.88 C 389.99 298.65 388.21 295.44 390.49 293.45 C 394.51 290.00 399.89 288.60 404.90 287.26 Z" />
<path fill="#003359" d=" M 416.74 289.97 C 422.70 290.75 427.83 295.29 428.20 301.50 C 424.80 301.66 420.64 302.68 417.97 299.91 C 415.67 297.11 416.36 293.28 416.74 289.97 Z" />
<path fill="#003359" d=" M 544.92 301.17 C 549.38 297.75 553.57 293.97 558.24 290.83 C 558.26 294.39 557.70 297.96 556.19 301.21 C 552.59 303.07 548.62 302.17 544.92 301.17 Z" />
<path fill="#003359" d=" M 563.96 292.68 C 567.94 291.19 572.50 290.98 576.50 292.51 C 579.19 294.13 580.83 296.95 582.91 299.23 C 581.79 300.68 580.57 302.06 579.09 303.14 C 573.20 307.57 567.25 311.91 561.39 316.36 C 560.05 308.43 560.09 299.94 563.96 292.68 Z" />
<path fill="#003359" d=" M 133.14 297.76 C 133.57 295.07 136.89 294.26 138.74 292.64 C 140.54 294.49 142.39 296.30 144.24 298.11 C 142.44 299.26 140.62 300.39 138.78 301.48 C 136.74 300.51 134.76 299.36 133.14 297.76 Z" />
<path fill="#003359" d=" M 496.58 295.48 C 500.88 294.39 504.11 298.39 507.79 299.94 C 507.71 300.53 507.54 301.70 507.45 302.29 C 504.24 302.41 500.93 302.76 497.89 301.49 C 497.46 299.48 497.01 297.48 496.58 295.48 Z" />
<path fill="#003359" d=" M 474.20 298.01 C 477.37 297.42 480.51 296.62 483.69 296.07 C 483.46 297.85 484.19 300.22 482.25 301.27 C 480.07 303.48 476.80 302.55 474.34 301.43 C 474.28 300.29 474.24 299.15 474.20 298.01 Z" />
<path fill="#003359" d=" M 526.83 300.66 C 531.60 298.86 536.43 297.14 541.40 296.00 C 542.53 298.89 540.59 301.49 537.88 302.39 C 534.68 303.11 531.30 302.90 528.11 302.27 C 527.79 301.86 527.15 301.06 526.83 300.66 Z" />
<path fill="#003359" d=" M 433.99 298.40 C 438.44 295.38 443.30 299.02 447.68 300.31 C 447.62 300.88 447.51 302.02 447.45 302.59 C 443.78 302.63 440.06 303.00 436.43 302.34 C 435.20 301.34 434.70 299.75 433.99 298.40 Z" />
<path fill="#003359" d=" M 169.01 302.00 C 177.53 298.92 188.02 299.55 195.38 305.16 C 186.54 305.74 177.06 306.45 169.01 302.00 Z" />
<path fill="#003359" d=" M 316.58 301.86 C 325.37 301.11 334.12 299.28 342.98 299.75 C 354.70 300.55 365.75 304.83 376.92 308.11 C 379.55 308.61 380.47 311.42 381.66 313.48 C 384.74 320.00 388.32 326.30 390.95 333.02 C 385.29 333.24 379.64 333.90 373.97 333.70 C 359.98 333.42 345.98 333.49 331.99 333.15 C 325.79 333.00 319.52 333.56 313.38 332.43 C 309.69 331.55 308.32 327.39 308.73 323.99 C 309.12 317.24 307.96 310.34 309.56 303.71 C 311.74 302.59 314.14 302.06 316.58 301.86 Z" />
<path fill="#003359" d=" M 239.39 301.52 C 254.75 300.64 270.09 302.93 285.02 306.34 C 288.80 306.96 291.84 310.07 292.25 313.91 C 292.50 317.91 292.67 321.99 292.07 325.97 C 291.78 328.43 289.47 330.03 287.07 329.81 C 272.72 329.85 258.38 329.21 244.03 329.15 C 233.31 328.36 222.53 329.05 211.82 328.12 C 211.61 327.90 211.19 327.45 210.98 327.23 C 209.84 323.28 209.30 319.18 208.85 315.10 C 208.10 311.11 211.04 307.10 214.82 306.00 C 222.76 303.43 231.07 301.99 239.39 301.52 Z" />
<path fill="#003359" d=" M 386.93 302.20 C 390.59 304.22 394.27 306.21 397.96 308.21 C 397.54 308.74 396.70 309.81 396.28 310.34 C 392.16 309.95 387.89 308.64 385.39 305.12 C 385.77 304.39 386.54 302.93 386.93 302.20 Z" />
<path fill="#003359" d=" M 593.90 305.98 C 595.09 304.89 596.01 303.21 597.73 302.89 C 601.24 302.56 604.76 303.07 608.26 303.38 C 608.31 304.04 608.41 305.37 608.46 306.03 C 604.67 306.99 601.01 308.75 597.05 308.79 C 595.89 307.97 594.92 306.94 593.90 305.98 Z" />
<path fill="#003359" d=" M 122.10 304.96 C 127.54 304.19 134.21 303.04 138.00 308.12 C 134.76 308.94 131.37 310.10 128.02 309.18 C 125.62 308.49 123.81 306.69 122.10 304.96 Z" />
<path fill="#003359" d=" M 141.57 305.68 C 150.79 307.01 160.20 307.45 169.23 309.78 C 160.08 311.92 149.10 312.09 141.57 305.68 Z" />
<path fill="#003359" d=" M 568.33 317.23 C 571.90 311.93 577.23 307.90 583.08 305.38 C 585.05 304.40 586.92 305.94 588.61 306.77 C 588.41 308.76 589.07 311.58 586.82 312.61 C 580.94 315.50 574.84 317.94 568.69 320.19 C 568.51 319.21 568.39 318.22 568.33 317.23 Z" />
<path fill="#003359" d=" M 420.89 307.23 C 421.33 306.81 422.20 305.96 422.63 305.54 C 425.47 306.62 429.27 306.33 431.26 308.94 C 431.63 312.29 429.98 315.41 429.10 318.55 C 428.18 318.56 427.26 318.56 426.35 318.57 C 424.48 314.82 422.33 311.18 420.89 307.23 Z" />
<path fill="#003359" d=" M 440.95 306.97 C 448.94 306.10 457.01 306.42 465.04 306.44 C 468.54 306.06 471.72 309.60 471.32 313.01 C 471.09 332.80 472.03 352.65 470.15 372.38 C 468.83 371.57 467.54 370.71 466.40 369.67 C 453.53 358.03 441.95 344.80 433.15 329.80 C 430.56 325.91 432.62 321.27 433.56 317.19 C 434.77 313.20 436.35 308.08 440.95 306.97 Z" />
<path fill="#003359" d=" M 504.61 307.71 C 506.27 306.93 508.02 306.21 509.92 306.37 C 517.96 306.43 526.01 306.33 534.06 306.41 C 536.40 306.11 538.16 308.22 538.24 310.42 C 538.68 315.71 539.48 320.97 540.32 326.22 C 531.07 342.53 519.62 358.05 504.88 369.84 C 504.32 367.93 503.66 366.01 503.74 364.00 C 503.82 350.02 503.57 336.05 503.65 322.07 C 503.77 317.27 503.10 312.35 504.61 307.71 Z" />
<path fill="#003359" d=" M 598.82 314.58 C 608.00 311.25 616.97 306.28 626.97 306.26 C 637.87 305.92 648.30 309.58 658.88 311.57 C 661.61 312.18 664.96 312.63 666.43 315.37 C 667.92 318.15 666.50 321.23 666.31 324.14 C 665.54 328.16 666.04 332.32 665.18 336.32 C 664.43 339.04 661.28 338.88 659.02 338.85 C 646.69 338.48 634.35 338.38 622.04 337.76 C 609.53 337.46 597.00 337.48 584.52 336.58 C 587.86 330.21 590.94 323.71 594.31 317.36 C 595.10 315.57 597.25 315.34 598.82 314.58 Z" />
<path fill="#003359" d=" M 478.23 307.12 C 480.47 307.24 481.09 310.29 481.57 312.12 C 481.74 330.45 481.33 348.80 480.69 367.12 C 480.73 369.33 479.16 371.05 478.15 372.88 C 476.55 370.50 474.76 368.05 474.89 365.02 C 474.67 350.69 474.87 336.36 474.76 322.03 C 474.81 316.92 474.13 310.99 478.23 307.12 Z" />
<path fill="#003359" d=" M 486.42 307.16 C 487.09 307.22 488.42 307.35 489.09 307.41 C 490.14 312.56 489.65 317.83 489.76 323.04 C 489.88 334.33 489.58 345.62 490.04 356.89 C 490.16 362.35 492.11 368.71 487.62 373.02 C 486.44 371.17 484.56 369.41 484.67 367.05 C 484.70 360.05 484.59 353.04 485.10 346.06 C 485.41 335.39 485.11 324.71 485.35 314.05 C 485.33 311.70 485.78 309.40 486.42 307.16 Z" />
<path fill="#003359" d=" M 175.82 308.71 C 183.31 309.53 190.87 309.50 198.34 310.52 C 195.03 312.97 191.39 316.02 186.97 315.41 C 182.56 314.66 179.21 311.37 175.82 308.71 Z" />
<path fill="#003359" d=" M 493.29 312.89 C 492.96 310.26 495.53 308.75 496.93 306.93 C 498.27 308.71 500.41 310.37 500.16 312.87 C 500.63 330.60 500.01 348.34 500.15 366.08 C 500.42 368.91 498.66 371.19 496.96 373.23 C 495.96 371.60 494.38 370.14 494.35 368.12 C 493.78 349.72 493.48 331.30 493.29 312.89 Z" />
<path fill="#003359" d=" M 543.39 308.45 C 546.57 307.63 549.86 307.39 553.14 307.35 C 553.27 307.93 553.54 309.09 553.68 309.67 C 550.80 313.24 548.57 317.32 545.43 320.66 C 544.76 320.44 543.43 320.00 542.76 319.78 C 542.70 315.99 542.12 312.11 543.39 308.45 Z" />
<path fill="#003359" d=" M 718.45 310.83 C 723.60 309.76 728.85 310.81 734.05 310.79 C 743.75 311.51 753.51 311.65 763.15 313.04 C 771.63 314.54 775.37 325.77 770.60 332.57 C 769.37 334.96 766.52 335.56 764.07 335.59 C 739.38 336.69 714.66 336.74 689.98 338.00 C 686.90 338.41 682.28 338.18 681.51 334.40 C 680.98 330.03 681.28 325.50 682.13 321.18 C 682.70 317.90 686.20 316.73 689.05 316.19 C 698.81 314.18 708.67 312.71 718.45 310.83 Z" />
<path fill="#003359" d=" M 787.44 312.62 C 792.13 312.63 796.83 312.61 801.52 312.64 C 801.45 313.35 801.39 314.07 801.34 314.79 C 796.68 314.81 792.02 314.82 787.37 314.78 C 787.39 314.24 787.42 313.16 787.44 312.62 Z" />
<path fill="#003359" d=" M 808.70 312.82 C 812.30 312.51 815.91 312.30 819.52 312.09 C 819.54 312.78 819.57 314.15 819.59 314.83 C 815.80 314.93 812.00 314.96 808.22 314.73 C 808.34 314.25 808.58 313.29 808.70 312.82 Z" />
<path fill="#003359" d=" M 132.25 314.53 C 135.68 314.34 139.12 314.38 142.54 314.59 C 143.19 315.47 143.83 316.37 144.48 317.26 C 143.68 318.02 142.87 318.76 142.07 319.52 C 138.86 319.16 135.69 318.56 132.50 318.08 C 132.41 316.90 132.33 315.71 132.25 314.53 Z" />
<path fill="#003359" d=" M 386.48 313.45 C 394.27 313.50 402.27 316.60 407.45 322.52 C 409.66 324.92 410.08 328.30 409.42 331.39 C 398.53 333.13 387.79 324.23 386.48 313.45 Z" />
<path fill="#003359" d=" M 123.17 329.01 C 123.16 324.09 123.05 319.16 123.68 314.28 C 126.63 315.37 126.77 319.17 129.25 320.87 C 132.54 323.84 137.21 323.47 141.23 324.58 C 142.72 326.75 142.87 330.01 145.45 331.32 C 148.81 332.67 152.51 332.07 156.04 332.34 C 167.36 333.01 178.64 335.15 190.01 334.30 C 196.35 333.72 202.62 332.33 209.01 332.30 C 235.35 332.24 261.67 333.02 287.99 333.71 C 291.96 334.09 295.11 336.93 298.97 337.73 C 306.19 339.42 313.75 340.36 321.11 338.94 C 326.67 337.83 332.32 337.38 337.99 337.47 C 360.68 337.35 383.36 336.48 406.06 336.63 C 409.38 336.43 413.76 337.94 413.72 341.91 C 413.73 358.60 412.19 375.30 413.01 392.00 C 413.09 397.77 415.74 403.12 419.24 407.58 C 425.93 416.32 428.63 427.31 430.01 438.03 C 431.16 447.67 432.42 457.30 434.34 466.82 C 435.17 470.50 434.79 475.03 431.14 477.07 C 426.92 479.56 423.71 483.62 422.75 488.48 C 420.99 497.90 421.92 507.54 421.78 517.05 C 421.81 519.50 419.45 520.91 417.43 521.66 C 413.86 523.03 409.80 524.49 407.98 528.15 C 399.13 545.71 390.38 563.33 382.71 581.44 C 375.75 597.79 370.52 614.80 364.94 631.66 C 363.55 636.02 364.40 640.65 364.44 645.13 C 359.79 646.06 354.52 646.42 350.98 649.97 C 347.45 653.64 345.76 658.57 343.48 663.02 C 347.08 666.70 351.37 669.56 355.32 672.84 C 348.41 676.50 341.87 680.94 334.47 683.57 C 330.12 685.00 325.81 687.64 324.19 692.16 C 309.82 725.84 293.64 758.83 282.06 793.63 C 279.62 800.86 278.69 808.50 276.47 815.80 C 275.08 820.58 270.93 824.12 266.20 825.41 C 261.41 826.82 256.31 828.52 253.37 832.89 C 248.87 832.53 245.79 829.05 242.42 826.49 C 226.08 813.59 209.16 801.31 194.23 786.74 C 170.95 763.55 150.46 737.81 129.21 712.80 C 124.49 706.57 125.94 698.27 125.60 690.98 C 124.42 637.67 124.76 584.34 124.44 531.01 C 124.45 500.67 124.31 470.34 124.13 440.00 C 123.54 403.01 123.44 366.01 123.17 329.01 Z" />
<path fill="#003359" d=" M 147.59 314.48 C 154.04 314.82 160.46 315.70 166.87 316.53 C 166.85 319.76 163.46 319.63 161.10 320.09 C 155.96 320.78 150.80 318.49 147.59 314.48 Z" />
<path fill="#003359" d=" M 173.78 316.15 C 176.40 316.14 179.00 316.42 181.58 316.79 C 181.59 317.79 181.60 318.79 181.61 319.80 C 178.61 320.92 175.61 322.03 172.58 323.05 C 172.99 320.74 173.40 318.45 173.78 316.15 Z" />
<path fill="#003359" d=" M 548.25 327.88 C 548.40 323.30 551.93 319.81 554.00 315.97 C 554.56 316.24 555.68 316.79 556.25 317.06 C 556.82 322.49 556.90 327.97 557.41 333.42 C 556.27 333.83 555.14 334.25 554.01 334.66 C 552.07 332.46 549.17 330.77 548.25 327.88 Z" />
<path fill="#003359" d=" M 570.17 324.08 C 575.37 320.80 581.53 319.30 587.62 319.02 C 586.18 330.35 574.19 338.68 563.05 336.08 C 562.70 331.01 566.11 326.68 570.17 324.08 Z" />
<path fill="#003359" d=" M 788.28 322.48 C 788.39 321.47 788.51 320.47 788.64 319.47 C 795.15 319.74 801.64 320.43 808.15 320.77 C 808.53 321.32 809.29 322.42 809.67 322.98 C 809.12 323.95 808.58 324.92 808.05 325.91 C 801.36 325.40 794.85 323.68 788.28 322.48 Z" />
<path fill="#003359" d=" M 174.40 329.52 C 178.64 325.33 184.61 321.02 190.87 323.24 C 193.65 323.93 195.05 326.53 196.23 328.90 C 194.57 329.77 193.12 331.54 191.10 331.33 C 185.52 330.95 179.93 330.42 174.40 329.52 Z" />
<path fill="#003359" d=" M 842.33 334.28 C 845.27 331.71 848.44 329.41 851.50 326.98 C 851.94 348.64 851.65 370.32 851.65 391.99 C 851.67 438.00 851.46 484.01 851.39 530.03 C 851.44 568.33 850.69 606.62 850.61 644.92 C 850.56 666.62 850.17 688.31 850.17 710.01 C 850.28 714.94 849.18 720.05 846.03 723.97 C 817.21 761.18 783.11 794.00 747.05 824.11 C 743.81 827.06 740.11 823.99 737.90 821.43 C 732.43 822.27 728.28 826.29 723.09 827.91 C 709.48 833.13 694.47 831.21 680.78 827.40 C 679.76 822.17 679.50 816.69 677.12 811.85 C 662.66 782.42 648.00 753.09 633.36 723.76 C 628.88 714.40 623.61 705.35 620.46 695.42 C 619.51 692.95 618.94 689.72 616.13 688.71 C 614.42 688.48 612.78 689.10 611.14 689.43 C 611.61 677.45 611.68 665.39 610.37 653.45 C 607.51 653.07 604.64 653.25 601.80 653.54 C 600.94 648.48 600.38 643.30 598.50 638.48 C 590.83 618.29 582.61 598.31 575.06 578.08 C 567.45 557.71 560.02 537.26 553.09 516.64 C 551.70 512.53 550.02 508.37 550.31 503.94 C 550.18 497.81 552.02 491.30 549.44 485.46 C 547.42 480.06 539.56 478.60 539.90 472.04 C 542.54 453.63 545.13 435.19 548.27 416.86 C 549.07 411.72 552.50 407.63 555.79 403.83 C 559.08 400.03 560.32 394.91 560.20 389.97 C 560.07 375.96 560.37 361.95 560.87 347.96 C 560.80 344.73 563.60 341.69 566.89 341.83 C 576.59 341.89 586.31 341.54 596.00 342.15 C 610.68 342.18 625.36 342.28 640.04 342.38 C 648.37 342.58 656.85 342.19 664.95 344.52 C 667.98 345.32 670.73 347.00 673.84 347.57 C 677.64 348.15 681.61 347.78 685.18 346.29 C 690.75 344.08 696.57 342.43 702.56 341.89 C 723.39 340.88 744.24 340.61 765.09 340.08 C 770.90 340.08 776.24 336.19 782.11 337.69 C 785.34 338.50 787.45 342.03 791.00 341.74 C 803.33 341.77 815.66 341.70 827.99 341.50 C 830.94 341.40 833.99 341.79 836.88 341.01 C 840.03 340.08 839.97 336.10 842.33 334.28 Z" />
<path fill="#003359" d=" M 786.07 330.53 C 786.80 330.30 788.27 329.83 789.00 329.59 C 793.15 330.89 796.70 333.58 800.33 335.92 C 796.78 337.32 792.23 338.93 788.94 336.11 C 786.97 334.89 786.24 332.72 786.07 330.53 Z" />
<path fill="#003359" d=" M 419.44 339.89 C 419.26 335.52 423.53 333.08 426.09 330.20 C 428.07 331.76 430.15 333.24 431.87 335.11 C 442.43 347.63 451.98 360.99 462.83 373.28 C 453.24 375.89 443.44 377.85 434.14 381.43 C 428.99 383.23 424.06 385.68 418.77 387.07 C 418.08 371.36 418.86 355.60 419.44 339.89 Z" />
<path fill="#003359" d=" M 509.11 375.07 C 520.61 360.71 532.27 346.48 543.84 332.17 C 547.95 335.68 553.91 337.74 556.34 342.80 C 556.63 352.18 556.35 361.59 556.26 370.98 C 556.02 376.65 556.66 382.46 554.87 387.95 C 551.12 387.49 547.56 386.19 543.95 385.16 C 532.33 381.81 520.72 378.43 509.11 375.07 Z" />
<path fill="#003359" d=" M 474.82 383.91 C 474.86 381.34 476.60 379.30 477.86 377.20 C 479.78 379.81 482.16 382.50 481.77 386.00 C 481.53 389.02 482.57 392.59 480.65 395.22 C 480.33 412.57 480.74 429.94 480.27 447.29 C 479.73 448.88 478.97 450.71 477.19 451.23 C 475.86 449.77 474.01 448.31 474.18 446.12 C 474.07 425.39 474.46 404.65 474.82 383.91 Z" />
<path fill="#003359" d=" M 422.16 391.16 C 435.35 382.94 450.85 379.61 466.06 377.57 C 468.25 376.99 470.55 378.57 470.45 380.90 C 470.51 400.59 470.43 420.30 470.48 439.99 C 470.42 442.72 470.62 445.64 469.26 448.13 C 468.04 450.24 465.30 449.35 463.48 448.64 C 456.48 445.45 449.87 441.04 445.04 434.97 C 436.61 424.24 429.25 412.73 421.39 401.58 C 420.15 399.85 419.28 397.90 418.49 395.94 C 419.33 394.10 420.30 392.17 422.16 391.16 Z" />
<path fill="#003359" d=" M 484.73 381.71 C 485.29 380.32 485.87 377.92 487.81 378.15 C 488.81 378.96 489.70 379.91 490.60 380.83 C 491.02 397.57 490.22 414.31 490.12 431.05 C 489.30 438.11 490.53 445.34 488.68 452.28 C 488.10 452.34 486.96 452.47 486.38 452.54 C 485.75 450.74 484.83 449.01 484.71 447.09 C 484.35 429.08 485.59 411.10 485.23 393.09 C 485.02 389.30 484.39 385.51 484.73 381.71 Z" />
<path fill="#003359" d=" M 496.46 378.77 C 500.57 381.32 499.46 386.84 499.34 390.91 C 500.22 407.27 499.68 423.69 499.68 440.07 C 499.85 443.74 498.04 447.02 496.38 450.16 C 494.87 446.60 493.17 442.94 493.49 438.98 C 493.86 428.33 493.54 417.68 493.87 407.03 C 494.45 399.36 494.06 391.65 494.56 383.98 C 494.63 382.08 495.75 380.46 496.46 378.77 Z" />
<path fill="#003359" d=" M 503.75 380.99 C 504.27 380.60 505.30 379.82 505.81 379.43 C 511.55 379.54 516.93 381.77 522.39 383.32 C 532.16 386.44 541.88 389.77 551.50 393.35 C 554.20 394.02 555.62 397.36 553.33 399.37 C 541.21 412.23 528.96 424.97 516.67 437.68 C 512.76 441.54 509.49 446.29 504.37 448.69 C 503.01 442.90 503.47 436.91 503.29 431.02 C 503.07 420.01 503.49 408.98 502.86 397.97 C 502.87 392.30 502.47 386.56 503.75 380.99 Z" />
<path fill="#003359" d=" M 514.40 449.35 C 523.63 440.29 532.52 430.90 541.74 421.83 C 541.73 434.51 539.93 447.19 536.22 459.32 C 534.90 459.80 533.50 461.13 532.04 460.30 C 525.40 457.70 518.88 454.81 512.36 451.93 C 512.77 450.89 513.64 450.14 514.40 449.35 Z" />
<path fill="#003359" d=" M 432.55 429.67 C 433.05 429.58 434.05 429.39 434.55 429.30 C 441.33 436.87 448.01 444.52 454.81 452.07 C 450.56 453.60 446.38 455.41 441.98 456.44 C 439.43 457.24 436.84 454.89 436.40 452.49 C 434.77 444.95 433.87 437.27 432.55 429.67 Z" />
<path fill="#003359" d=" M 439.59 461.91 C 448.75 458.94 457.51 453.77 467.44 454.09 C 467.48 463.19 467.48 472.29 467.41 481.39 C 465.44 483.46 463.38 486.03 460.24 486.03 C 455.06 486.37 449.42 486.86 444.68 484.30 C 441.21 482.18 440.04 477.94 439.50 474.16 C 439.04 470.10 438.01 465.85 439.59 461.91 Z" />
<path fill="#003359" d=" M 502.47 457.86 C 502.65 456.61 503.28 455.50 503.75 454.36 C 508.45 454.94 512.72 457.10 517.15 458.62 C 522.29 460.65 527.64 462.21 532.56 464.75 C 535.39 466.34 536.00 469.91 534.81 472.75 C 533.17 477.26 534.41 483.66 529.47 486.29 C 524.76 487.46 519.90 485.95 515.14 485.82 C 510.62 485.39 505.67 486.76 501.60 484.18 C 501.21 482.47 500.63 480.75 500.84 478.99 C 501.37 471.94 501.56 464.87 502.47 457.86 Z" />
<path fill="#003359" d=" M 473.41 471.54 C 471.05 469.14 474.24 465.70 476.94 465.77 C 481.99 465.49 487.09 465.61 492.11 466.29 C 494.62 466.29 495.77 468.89 497.14 470.58 C 495.50 471.84 493.98 473.33 492.04 474.13 C 488.69 474.70 485.34 473.57 481.98 473.74 C 479.07 473.52 475.16 474.64 473.41 471.54 Z" />
<path fill="#003359" d=" M 472.30 480.02 C 473.39 479.20 474.50 478.40 475.61 477.60 C 480.81 477.64 485.99 478.14 491.16 478.68 C 493.54 478.76 494.77 481.06 496.12 482.70 C 494.25 483.92 492.53 485.82 490.11 485.70 C 485.36 485.69 480.51 486.12 475.83 485.16 C 473.45 484.60 473.01 481.96 472.30 480.02 Z" />
<path fill="#003359" d=" M 430.32 485.16 C 431.71 482.68 433.97 480.86 436.28 479.27 C 436.93 485.21 435.55 491.09 434.35 496.87 C 433.22 501.33 432.12 505.88 430.00 510.00 C 429.55 510.29 428.67 510.89 428.23 511.18 C 424.89 502.79 425.76 492.93 430.32 485.16 Z" />
<path fill="#003359" d=" M 537.22 480.91 C 540.25 482.70 543.50 484.67 544.98 488.05 C 547.11 492.80 546.01 498.14 545.65 503.14 C 545.69 506.41 542.97 508.64 541.17 511.06 C 540.59 510.84 539.43 510.41 538.86 510.19 C 538.43 500.42 537.28 490.69 537.22 480.91 Z" />
<path fill="#003359" d=" M 437.73 493.22 C 439.29 492.00 440.68 490.41 442.61 489.76 C 449.99 489.30 457.36 490.13 464.72 490.60 C 465.46 491.40 466.22 492.20 466.91 493.07 C 465.96 494.22 464.80 495.59 463.18 495.63 C 457.42 495.82 451.73 494.71 445.98 494.57 C 443.19 494.36 440.21 494.79 437.73 493.22 Z" />
<path fill="#003359" d=" M 472.02 492.64 C 479.68 490.49 488.94 486.68 496.15 491.93 C 494.67 493.14 493.38 494.75 491.56 495.44 C 488.45 496.10 485.21 495.98 482.14 496.87 C 478.75 495.50 475.43 493.97 472.02 492.64 Z" />
<path fill="#003359" d=" M 499.92 493.27 C 500.09 492.59 500.43 491.25 500.60 490.57 C 505.38 490.63 510.20 490.30 514.96 491.00 C 520.25 491.78 525.72 491.52 530.87 493.12 C 532.62 493.66 534.46 495.04 534.59 497.02 C 535.08 502.14 532.79 506.96 531.14 511.68 C 529.68 508.94 528.36 506.08 528.40 502.92 C 528.41 499.64 525.25 497.38 522.16 497.51 C 516.47 497.51 510.80 497.08 505.19 496.12 C 503.17 495.75 501.57 494.38 499.92 493.27 Z" />
<path fill="#003359" d=" M 444.46 502.89 C 443.31 499.45 447.66 498.25 449.97 497.03 C 452.47 498.93 454.61 501.28 456.95 503.38 C 454.90 504.89 452.79 506.99 450.01 506.51 C 447.65 506.67 445.08 505.26 444.46 502.89 Z" />
<path fill="#003359" d=" M 461.77 500.76 C 465.23 499.62 468.94 499.19 472.42 500.53 C 473.57 503.81 474.60 507.65 472.90 510.92 C 471.84 513.22 470.48 517.11 467.16 515.68 C 462.51 512.65 458.67 506.15 461.77 500.76 Z" />
<path fill="#003359" d=" M 477.71 500.61 C 482.20 499.59 487.09 498.88 491.54 500.34 C 495.28 501.91 494.55 506.67 494.49 509.95 C 494.12 512.81 494.29 516.68 491.35 518.27 C 487.55 519.46 483.31 519.78 479.46 518.65 C 477.03 518.06 476.62 515.14 476.50 513.04 C 476.39 508.89 475.80 504.47 477.71 500.61 Z" />
<path fill="#003359" d=" M 501.06 500.08 C 503.31 501.40 505.86 502.51 507.41 504.71 C 508.91 510.63 504.46 516.17 498.99 517.88 C 498.85 511.91 496.32 504.95 501.06 500.08 Z" />
<path fill="#003359" d=" M 511.23 504.80 C 512.39 503.55 513.60 502.36 514.85 501.20 C 517.93 502.59 521.87 503.37 524.03 506.06 C 521.65 508.10 518.92 509.69 516.25 511.30 C 514.56 509.14 512.85 507.01 511.23 504.80 Z" />
<path fill="#003359" d=" M 446.63 515.39 C 444.69 514.21 445.03 511.30 447.23 510.66 C 451.41 510.88 455.38 512.48 459.39 513.58 C 459.22 514.66 459.04 515.74 458.88 516.84 C 454.78 516.62 450.58 516.61 446.63 515.39 Z" />
<path fill="#003359" d=" M 543.47 514.61 C 545.19 513.74 548.13 513.76 548.62 516.10 C 563.55 555.65 578.72 595.12 593.07 634.88 C 594.30 638.82 597.11 642.66 596.28 646.94 C 593.74 650.38 589.46 651.70 585.85 653.68 C 579.09 657.30 571.84 659.85 564.86 662.99 C 562.86 663.82 560.50 664.25 558.45 663.40 C 556.17 662.01 555.06 659.46 553.78 657.25 C 549.24 648.79 543.89 640.73 540.27 631.82 C 538.78 626.71 538.74 621.29 538.58 616.01 C 540.68 594.01 542.70 571.99 545.08 550.02 C 545.65 543.34 547.19 536.55 545.53 529.91 C 544.89 526.00 542.56 522.72 541.26 519.06 C 540.62 517.20 541.69 515.28 543.47 514.61 Z" />
<path fill="#003359" d=" M 508.98 517.78 C 513.15 516.39 517.43 515.12 521.81 514.59 C 522.08 515.26 522.61 516.58 522.87 517.24 C 518.94 518.08 515.04 519.80 510.97 519.44 C 510.47 519.03 509.48 518.20 508.98 517.78 Z" />
<path fill="#003359" d=" M 428.47 523.47 C 433.34 521.33 438.83 520.79 444.10 520.69 C 448.53 520.64 450.90 524.78 452.67 528.22 C 445.97 532.00 439.09 535.45 432.49 539.39 C 430.58 540.66 427.51 541.19 426.31 538.75 C 423.54 534.11 422.71 526.21 428.47 523.47 Z" />
<path fill="#003359" d=" M 455.75 521.77 C 458.50 521.15 461.33 520.04 464.18 520.73 C 465.56 521.45 466.59 522.63 467.71 523.69 C 467.18 525.24 466.63 526.80 466.07 528.36 C 461.49 528.82 456.80 526.50 455.75 521.77 Z" />
<path fill="#003359" d=" M 527.25 527.90 C 530.10 525.69 532.61 523.06 535.63 521.09 C 536.93 522.67 538.01 524.42 539.11 526.16 C 535.79 527.75 532.47 529.36 529.09 530.83 C 528.63 530.10 527.71 528.63 527.25 527.90 Z" />
<path fill="#003359" d=" M 472.49 524.85 C 472.87 524.31 473.64 523.22 474.02 522.68 C 481.23 523.04 488.46 523.51 495.64 524.31 C 495.53 525.37 495.42 526.44 495.32 527.52 C 488.42 527.51 481.52 527.56 474.63 527.44 C 473.91 526.57 473.19 525.71 472.49 524.85 Z" />
<path fill="#003359" d=" M 503.68 526.13 C 510.52 523.97 518.27 522.07 524.97 525.78 C 522.80 526.94 520.69 528.41 518.18 528.67 C 513.18 529.35 508.43 527.32 503.68 526.13 Z" />
<path fill="#003359" d=" M 401.79 545.71 C 405.85 537.75 410.66 529.12 419.14 525.22 C 420.22 531.47 421.68 537.66 422.59 543.95 C 423.30 546.40 421.25 548.21 420.19 550.16 C 418.00 553.69 417.50 557.96 417.54 562.04 C 417.81 584.36 418.95 606.67 418.73 629.00 C 417.95 636.55 412.10 642.08 407.71 647.82 C 405.67 650.11 404.15 653.20 401.18 654.44 C 398.27 654.98 395.83 652.96 393.41 651.73 C 386.61 647.67 379.49 644.21 372.57 640.40 C 369.09 638.69 368.48 634.44 369.56 631.06 C 377.89 601.78 388.45 573.09 401.79 545.71 Z" />
<path fill="#003359" d=" M 475.49 532.71 C 479.94 531.80 484.55 532.15 489.08 532.20 C 491.20 531.95 492.57 533.72 494.03 534.92 C 492.93 536.79 491.77 539.47 489.11 539.17 C 484.40 538.84 479.58 538.81 474.97 537.82 C 472.06 537.16 473.10 533.32 475.49 532.71 Z" />
<path fill="#003359" d=" M 501.67 532.55 C 507.00 531.73 512.42 532.51 517.77 532.88 C 517.35 534.27 516.48 535.42 515.15 536.05 C 511.19 538.42 507.16 540.68 503.00 542.67 C 501.68 541.85 500.38 541.02 499.09 540.18 C 499.62 537.55 500.01 534.74 501.67 532.55 Z" />
<path fill="#003359" d=" M 535.26 532.98 C 536.99 532.38 538.69 533.20 540.37 533.60 C 541.23 538.45 540.66 543.68 537.73 547.77 C 533.52 554.16 525.02 557.93 517.60 555.31 C 515.93 551.40 518.15 547.36 519.83 543.88 C 522.80 537.95 528.82 534.08 535.26 532.98 Z" />
<path fill="#003359" d=" M 447.07 536.15 C 453.60 532.78 463.28 538.43 462.63 545.95 C 460.41 549.64 456.29 552.17 451.97 552.44 C 444.59 552.94 436.95 550.82 431.20 546.07 C 436.45 542.71 441.50 538.98 447.07 536.15 Z" />
<path fill="#003359" d=" M 505.94 548.19 C 508.52 545.79 511.12 543.41 513.80 541.13 C 514.40 541.68 515.59 542.77 516.18 543.32 C 514.42 545.89 512.63 548.49 510.42 550.70 C 508.48 551.62 507.34 549.09 505.94 548.19 Z" />
<path fill="#003359" d=" M 480.53 543.27 C 484.64 543.21 488.77 542.90 492.86 543.42 C 494.83 543.59 496.68 544.92 497.30 546.84 C 497.70 548.92 496.60 550.81 495.64 552.56 C 492.15 558.47 488.49 564.27 484.90 570.13 C 483.50 561.16 482.02 552.21 480.53 543.27 Z" />
<path fill="#003359" d=" M 462.46 575.46 C 467.75 566.72 470.30 556.73 474.08 547.32 C 477.84 549.52 479.45 553.80 479.18 558.02 C 478.49 575.34 477.95 592.69 475.89 609.92 C 473.69 630.61 470.30 651.38 462.95 670.94 C 461.87 673.58 460.49 676.84 457.39 677.53 C 453.29 678.19 449.14 677.38 445.01 677.49 C 440.70 677.49 436.38 678.06 432.08 677.59 C 428.82 677.18 426.78 673.91 426.64 670.83 C 425.85 660.87 424.42 650.94 424.23 640.94 C 423.98 636.41 426.09 632.24 428.43 628.52 C 439.69 610.78 451.67 593.50 462.46 575.46 Z" />
<path fill="#003359" d=" M 437.72 555.31 C 447.57 557.54 457.75 555.02 467.01 551.56 C 458.85 579.09 441.85 602.71 425.23 625.69 C 424.51 625.54 423.06 625.23 422.34 625.07 C 421.44 605.39 421.14 585.67 421.22 565.97 C 421.62 561.47 420.76 555.81 424.60 552.60 C 429.22 550.79 433.35 554.43 437.72 555.31 Z" />
<path fill="#003359" d=" M 492.47 565.60 C 494.57 560.87 497.84 556.83 501.19 552.94 C 504.18 553.51 507.17 555.18 508.46 558.06 C 510.36 562.54 508.47 567.35 508.72 572.00 C 508.99 587.88 516.19 602.50 524.21 615.83 C 528.33 623.12 534.21 630.16 534.18 638.99 C 534.17 650.69 533.29 662.39 532.48 674.07 C 532.43 677.08 530.30 680.35 526.99 680.23 C 522.00 679.47 516.95 678.89 511.91 679.48 C 508.28 679.62 504.35 681.18 500.97 679.17 C 498.89 678.02 498.17 675.63 497.85 673.45 C 494.67 647.56 486.65 622.26 486.80 595.99 C 487.21 585.68 487.92 575.04 492.47 565.60 Z" />
<path fill="#003359" d=" M 517.13 560.17 C 524.26 558.76 531.55 558.39 538.76 557.56 C 537.34 578.36 536.16 599.19 534.47 619.98 C 525.69 608.89 517.34 596.82 514.12 582.83 C 512.99 577.28 512.18 571.55 512.94 565.89 C 513.31 563.54 514.44 560.55 517.13 560.17 Z" />
<path fill="#003359" d=" M 479.12 617.13 C 480.17 610.30 480.49 603.24 483.20 596.80 C 483.57 602.19 482.89 607.63 483.75 613.00 C 486.75 633.63 489.86 654.24 493.32 674.79 C 493.90 680.07 495.41 685.58 493.98 690.84 C 492.70 695.73 485.83 695.63 484.79 700.63 C 483.69 705.32 484.14 710.48 486.35 714.80 C 487.54 717.35 490.50 718.53 491.67 721.10 C 491.82 723.17 491.00 725.15 490.48 727.13 C 487.76 736.05 484.61 744.85 480.94 753.43 C 475.68 746.13 471.87 737.90 468.21 729.72 C 466.24 725.41 465.66 720.47 466.86 715.87 C 468.95 708.06 468.26 699.91 468.43 691.93 C 465.02 689.43 462.95 685.21 464.61 681.03 C 472.38 660.52 476.00 638.75 479.12 617.13 Z" />
<path fill="#003359" d=" M 405.84 657.80 C 410.30 652.09 414.46 646.04 419.80 641.08 C 422.18 652.59 421.77 664.40 422.75 676.05 C 422.92 680.65 428.25 682.08 429.81 686.02 C 426.53 689.61 423.97 693.82 423.55 698.78 C 421.27 700.86 419.33 703.75 419.83 706.99 C 420.32 710.65 421.24 714.25 422.36 717.77 C 424.13 720.35 427.54 721.25 429.46 723.69 C 428.70 729.15 427.36 734.59 424.58 739.40 C 420.50 747.31 420.87 756.52 421.61 765.14 C 424.35 788.73 428.30 812.16 432.06 835.60 C 434.38 850.48 437.21 865.29 439.89 880.11 C 440.32 883.22 442.41 885.71 443.20 888.70 C 443.39 891.47 441.18 893.52 439.18 895.09 C 436.52 897.02 435.35 900.19 433.89 903.00 C 415.98 899.26 398.29 894.41 380.82 888.97 C 355.19 881.21 329.42 873.09 305.79 860.28 C 303.50 859.05 300.97 856.96 301.57 854.05 C 302.68 845.67 298.53 837.38 300.99 829.07 C 303.22 820.37 310.39 814.52 315.86 807.87 C 326.36 795.28 335.96 781.97 345.47 768.63 C 356.13 753.31 365.80 737.18 372.72 719.80 C 374.42 716.06 373.51 711.89 373.88 707.94 C 374.45 701.79 375.99 695.78 376.91 689.68 C 380.29 690.95 384.89 691.66 387.19 688.13 C 389.62 684.15 392.07 680.12 394.14 675.93 C 395.17 671.26 395.00 666.33 396.84 661.84 C 400.19 661.57 403.69 660.59 405.84 657.80 Z" />
<path fill="#003359" d=" M 540.96 643.78 C 545.28 649.55 548.04 656.25 551.46 662.55 C 552.85 665.06 554.50 667.58 556.97 669.15 C 559.85 671.08 563.56 670.36 566.63 671.83 C 566.23 675.74 564.81 679.67 566.05 683.59 C 567.54 690.87 574.24 696.38 581.65 696.63 C 582.49 706.09 583.28 715.61 582.35 725.10 C 582.03 739.27 586.75 753.17 593.28 765.59 C 601.17 779.83 612.71 791.49 623.32 803.68 C 632.82 814.84 643.03 825.40 652.06 836.96 C 659.60 846.32 664.68 857.29 670.23 867.86 C 665.16 871.61 659.20 873.75 653.61 876.54 C 638.72 883.61 623.92 891.26 607.91 895.50 C 595.35 898.42 582.50 895.38 569.95 893.98 C 562.64 893.24 555.42 890.78 549.52 886.36 C 547.23 884.67 545.43 882.43 543.16 880.75 C 539.48 879.32 535.67 881.46 531.94 881.22 C 529.51 880.26 529.38 877.25 529.52 875.04 C 530.07 866.04 529.70 857.02 529.82 848.01 C 530.50 823.02 530.60 798.02 530.86 773.02 C 531.42 764.69 531.16 756.33 531.23 747.99 C 531.15 741.37 531.51 734.71 530.63 728.13 C 530.03 724.71 526.58 722.43 526.15 719.05 C 528.70 711.31 533.56 704.17 534.22 695.89 C 533.85 691.16 529.26 688.83 526.16 685.96 C 530.89 685.62 536.29 683.34 536.89 678.01 C 538.40 666.64 538.32 655.02 540.96 643.78 Z" />
<path fill="#003359" d=" M 362.48 648.82 C 372.46 653.02 381.02 659.77 388.92 667.06 C 390.59 668.58 390.40 670.94 390.58 673.00 C 385.99 676.43 381.02 680.06 375.05 680.28 C 369.59 680.41 362.91 677.90 361.75 671.91 C 360.77 664.23 362.07 656.49 362.48 648.82 Z" />
<path fill="#003359" d=" M 601.42 659.71 C 603.03 658.93 605.73 657.83 606.60 660.14 C 608.41 666.32 609.39 673.22 606.00 679.08 C 600.07 678.00 594.90 674.42 590.92 670.02 C 589.68 668.70 589.89 666.40 591.44 665.44 C 594.43 663.01 597.98 661.41 601.42 659.71 Z" />
<path fill="#003359" d=" M 572.59 677.65 C 576.51 675.03 581.52 673.11 586.21 674.72 C 590.80 676.62 594.31 680.28 598.05 683.43 C 591.44 686.26 584.65 688.71 577.67 690.47 C 574.76 688.31 572.06 685.62 570.68 682.21 C 570.25 680.41 571.10 678.64 572.59 677.65 Z" />
<path fill="#003359" d=" M 498.84 688.16 C 499.98 685.88 502.55 685.00 504.73 684.04 C 504.88 687.86 503.50 691.55 502.01 694.99 C 501.52 695.20 500.55 695.63 500.06 695.84 C 499.59 693.29 498.69 690.77 498.84 688.16 Z" />
<path fill="#003359" d=" M 340.41 686.59 C 346.39 685.53 353.06 685.22 358.47 688.39 C 363.66 691.51 364.62 697.93 367.37 702.85 C 370.04 707.74 372.23 713.93 368.98 719.12 C 356.95 738.99 345.15 759.02 332.61 778.58 C 325.91 789.27 317.37 798.61 309.62 808.52 C 307.65 811.21 304.18 813.18 300.83 811.88 C 296.00 810.10 290.93 808.44 286.78 805.31 C 283.44 802.66 284.82 798.02 285.84 794.58 C 292.80 773.68 301.71 753.52 310.13 733.19 C 314.26 723.11 318.94 713.27 323.19 703.25 C 324.65 699.82 325.90 696.21 328.35 693.32 C 331.32 689.63 335.80 687.42 340.41 686.59 Z" />
<path fill="#003359" d=" M 367.52 686.51 C 368.49 686.45 369.47 686.39 370.45 686.34 C 370.95 689.23 371.44 692.12 371.70 695.06 C 370.66 695.10 368.58 695.19 367.54 695.24 C 367.51 692.32 367.50 689.42 367.52 686.51 Z" />
<path fill="#003359" d=" M 434.07 692.75 C 442.31 692.11 450.61 692.39 458.87 692.52 C 460.99 692.42 462.25 694.39 463.59 695.71 C 463.12 702.57 458.95 708.51 453.99 712.99 C 451.31 715.35 447.80 717.41 444.09 716.69 C 441.15 716.07 439.58 713.27 437.84 711.12 C 434.94 707.15 431.70 703.33 429.58 698.86 C 428.11 695.78 430.98 692.71 434.07 692.75 Z" />
<path fill="#003359" d=" M 508.54 695.06 C 509.14 694.71 510.34 694.00 510.93 693.64 C 516.87 693.50 522.77 694.20 528.70 694.38 C 527.11 700.83 526.39 707.60 523.70 713.73 C 522.76 716.17 519.24 716.17 518.01 713.98 C 514.16 708.05 511.61 701.40 508.54 695.06 Z" />
<path fill="#003359" d=" M 586.21 693.74 C 588.41 696.12 591.35 698.51 591.48 702.02 C 591.75 704.91 589.23 706.77 587.50 708.67 C 586.69 703.73 586.27 698.74 586.21 693.74 Z" />
<path fill="#003359" d=" M 614.22 696.18 C 615.59 695.38 616.09 697.28 616.61 698.13 C 635.21 736.49 654.23 774.65 673.28 812.79 C 674.60 815.42 675.56 818.62 674.31 821.46 C 672.26 824.28 668.49 824.80 665.79 826.80 C 662.31 828.96 659.24 832.95 654.69 832.23 C 650.88 831.13 648.75 827.48 646.26 824.70 C 633.16 809.15 619.59 793.97 607.02 777.97 C 596.45 765.05 588.75 749.49 586.45 732.86 C 585.44 724.53 588.75 716.24 593.77 709.72 C 598.73 702.91 606.47 698.95 614.22 696.18 Z" />
<path fill="#003359" d=" M 491.45 700.53 C 494.77 698.43 499.03 699.57 502.50 700.71 C 509.43 702.89 510.17 711.17 513.46 716.61 C 505.83 715.26 498.15 714.15 490.63 712.27 C 488.69 708.69 488.51 703.59 491.45 700.53 Z" />
<path fill="#003359" d=" M 425.16 706.39 C 425.82 706.21 427.15 705.85 427.81 705.67 C 430.05 709.30 432.46 712.83 434.80 716.40 C 432.09 716.03 429.38 715.65 426.67 715.28 C 425.67 712.42 425.32 709.40 425.16 706.39 Z" />
<path fill="#003359" d=" M 494.50 730.94 C 495.88 727.24 494.89 721.76 499.00 719.74 C 502.25 718.21 504.12 721.57 505.52 723.90 C 504.76 725.60 504.37 727.76 502.60 728.76 C 500.14 730.16 497.21 730.33 494.50 730.94 Z" />
<path fill="#003359" d=" M 126.16 727.96 C 126.12 726.30 126.39 724.66 126.78 723.06 C 131.76 727.81 135.82 733.42 140.09 738.79 C 165.47 771.19 194.26 801.20 227.40 825.74 C 240.92 835.99 255.45 844.85 270.77 852.15 C 289.32 860.92 307.31 870.94 326.46 878.39 C 346.27 886.35 366.63 892.82 387.08 898.91 C 390.51 899.99 394.40 900.45 396.91 903.32 C 389.62 904.04 382.27 903.63 374.96 903.81 C 330.28 903.65 285.66 904.20 241.00 903.87 C 206.00 904.38 170.98 904.07 135.97 904.17 C 133.10 904.24 130.21 903.75 127.71 902.30 C 126.19 896.65 126.62 890.77 126.57 884.99 C 126.45 832.65 126.18 780.31 126.16 727.96 Z" />
<path fill="#003359" d=" M 510.88 730.43 C 515.59 729.11 520.28 726.75 525.29 727.54 C 525.76 729.00 526.65 730.38 526.58 731.98 C 526.34 748.33 525.53 764.65 525.41 781.00 C 524.58 805.64 523.68 830.31 524.62 854.96 C 524.39 859.62 525.49 864.32 524.84 868.95 C 524.71 871.45 522.22 872.65 520.02 872.80 C 515.31 873.39 510.48 873.87 505.76 873.21 C 501.20 872.38 500.07 867.21 499.22 863.41 C 495.59 845.22 492.49 826.94 489.34 808.67 C 487.38 795.97 484.52 783.37 483.28 770.58 C 484.61 762.02 485.24 753.01 489.18 745.15 C 493.46 736.90 502.43 732.97 510.88 730.43 Z" />
<path fill="#003359" d=" M 443.94 730.81 C 451.93 729.40 459.30 733.84 465.37 738.51 C 471.32 743.20 475.15 750.44 475.35 758.05 C 475.49 764.70 474.30 771.32 474.95 777.98 C 474.86 782.15 476.29 786.23 475.70 790.41 C 472.90 814.78 470.21 839.17 467.26 863.54 C 466.47 870.84 459.37 876.81 451.97 875.63 C 447.37 875.58 443.60 872.01 442.79 867.60 C 438.58 846.46 435.12 825.17 430.99 804.01 C 427.83 788.54 426.34 772.73 426.59 756.95 C 426.66 752.97 426.21 748.87 427.50 745.03 C 429.70 737.65 436.45 732.14 443.94 730.81 Z" />
<path fill="#003359" d=" M 847.03 732.89 C 848.07 733.74 849.83 734.23 849.72 735.92 C 850.68 742.24 850.00 748.67 850.15 755.04 C 849.53 799.02 849.59 843.01 849.30 886.99 C 849.16 891.77 849.82 896.67 848.40 901.33 C 843.74 904.10 838.14 902.92 833.01 903.17 C 804.69 902.51 776.35 903.00 748.02 902.83 C 722.37 903.58 696.68 902.87 671.02 903.39 C 655.37 903.52 639.71 903.62 624.06 903.76 C 621.29 903.88 618.56 903.36 616.05 902.23 C 645.54 887.82 675.45 874.29 704.85 859.70 C 715.28 854.44 726.02 849.65 735.67 843.01 C 746.91 835.37 757.15 826.38 767.12 817.17 C 783.17 802.58 799.52 788.26 814.44 772.49 C 822.60 763.93 830.49 755.10 838.01 745.97 C 841.36 741.86 845.06 737.90 847.03 732.89 Z" />
<path fill="#003359" d=" M 479.41 785.72 C 479.69 786.50 480.25 788.06 480.53 788.85 C 486.36 816.50 490.88 844.41 496.10 872.18 C 496.47 875.79 499.61 877.95 501.31 880.89 C 502.01 883.53 499.96 885.60 498.62 887.61 C 495.13 892.04 494.64 897.96 491.53 902.61 C 490.31 903.35 489.29 902.30 488.38 901.63 C 485.59 899.40 483.83 896.19 481.09 893.93 C 478.00 891.33 474.73 888.74 472.81 885.11 C 470.41 880.80 470.12 875.61 471.11 870.86 C 475.21 850.14 478.37 829.15 478.87 808.00 C 479.62 800.59 478.74 793.13 479.41 785.72 Z" />
<path fill="#003359" d=" M 281.83 819.11 C 287.52 821.01 293.33 822.87 298.57 825.84 C 295.88 826.58 292.99 827.69 290.23 826.60 C 286.43 825.52 283.95 822.21 281.83 819.11 Z" />
<path fill="#003359" d=" M 734.06 828.03 C 735.12 827.26 736.46 827.48 737.71 827.43 C 737.24 829.46 737.28 832.00 735.43 833.39 C 731.41 836.60 727.15 841.32 721.43 839.53 C 722.19 837.70 722.31 835.33 724.14 834.19 C 727.32 831.94 730.69 829.98 734.06 828.03 Z" />
<path fill="#003359" d=" M 277.57 828.89 C 284.85 827.23 292.45 831.65 294.96 838.59 C 289.09 835.50 283.12 832.53 277.57 828.89 Z" />
<path fill="#003359" d=" M 268.96 830.20 C 272.22 831.82 275.43 833.54 278.71 835.14 C 278.42 835.88 277.85 837.35 277.57 838.09 C 274.06 836.70 270.81 834.76 267.48 833.01 C 267.85 832.31 268.59 830.90 268.96 830.20 Z" />
<path fill="#003359" d=" M 258.95 837.97 C 259.54 836.72 260.14 835.47 260.75 834.25 C 271.82 840.47 282.94 846.60 293.99 852.86 C 293.37 854.42 292.29 855.26 290.78 854.19 C 280.16 848.81 269.59 843.32 258.95 837.97 Z" />
<path fill="#003359" d=" M 660.55 835.57 C 661.52 835.45 662.49 835.35 663.48 835.25 C 664.82 838.14 666.35 840.96 667.40 843.99 C 667.11 844.48 666.52 845.46 666.23 845.95 C 664.27 844.64 661.95 843.60 660.62 841.58 C 660.02 839.62 660.50 837.55 660.55 835.57 Z" />
<path fill="#003359" d=" M 700.70 842.90 C 702.81 840.60 706.10 840.25 709.04 840.14 C 711.93 839.67 714.15 841.90 716.52 843.15 C 713.84 847.57 709.37 850.32 704.87 852.60 C 701.72 850.65 699.03 846.64 700.70 842.90 Z" />
<path fill="#003359" d=" M 684.19 848.14 C 687.21 846.48 690.14 843.40 693.91 844.42 C 696.65 845.22 697.79 848.34 697.77 850.96 C 698.32 855.08 693.36 856.35 690.87 858.59 C 688.60 855.13 686.33 851.67 684.19 848.14 Z" />
<path fill="#003359" d=" M 669.36 852.38 C 671.62 849.87 674.59 848.17 677.27 846.16 C 679.36 848.97 681.74 851.62 683.45 854.71 C 682.62 857.88 682.42 861.62 680.06 864.13 C 677.91 865.35 675.11 864.30 673.73 862.40 C 671.54 859.48 669.74 856.04 669.36 852.38 Z" />
<path fill="#003359" d=" M 517.14 890.67 C 524.02 887.48 532.31 887.64 539.17 890.82 C 541.85 892.11 544.88 894.57 544.24 897.92 C 541.23 904.22 532.79 905.97 526.82 903.23 C 522.15 900.40 519.81 895.19 517.14 890.67 Z" />
<path fill="#003359" d=" M 498.41 898.01 C 499.53 895.42 501.25 893.17 503.03 891.01 C 504.75 892.57 506.46 894.16 508.13 895.79 C 506.19 898.19 504.29 900.63 502.23 902.94 C 500.93 901.30 499.64 899.68 498.41 898.01 Z" />
<path fill="#003359" d=" M 448.51 893.44 C 456.11 893.43 463.71 893.38 471.31 893.47 L 471.21 895.37 C 463.66 895.40 456.12 895.37 448.57 895.39 L 448.51 893.44 Z" />
<path fill="#003359" d=" M 510.25 894.52 C 510.91 894.42 512.25 894.21 512.92 894.11 C 514.74 897.12 518.67 899.49 517.76 903.48 C 515.75 903.40 513.74 903.30 511.74 903.19 C 510.67 900.42 510.31 897.46 510.25 894.52 Z" />
<path fill="#003359" d=" M 548.03 901.06 C 549.20 899.99 549.96 897.78 551.92 898.18 C 558.26 898.67 564.46 900.22 570.76 901.01 C 570.81 901.66 570.90 902.96 570.94 903.61 C 564.32 903.59 557.68 903.76 551.06 903.53 C 549.59 903.54 549.01 901.83 548.03 901.06 Z" />
<path fill="#003359" d=" M 443.07 901.17 C 455.78 901.16 468.49 901.10 481.20 901.20 C 481.20 901.85 481.19 903.14 481.19 903.79 C 468.50 903.99 455.82 904.40 443.14 903.70 C 443.12 903.07 443.09 901.80 443.07 901.17 Z" />
</svg>
